<svg width="20" height="21" viewBox="0 0 20 21" fill="none" xmlns="http://www.w3.org/2000/svg">
<path d="M4.21249 3.44962C4.15761 3.38775 4.09099 3.33739 4.01649 3.30146C3.942 3.26552 3.86111 3.24473 3.77853 3.24029C3.69594 3.23585 3.61329 3.24784 3.53537 3.27557C3.45746 3.30331 3.38582 3.34623 3.32461 3.40185C3.2634 3.45748 3.21384 3.5247 3.17881 3.59962C3.14377 3.67454 3.12395 3.75566 3.1205 3.8383C3.11704 3.92093 3.13003 4.00343 3.15869 4.08101C3.18736 4.15859 3.23114 4.22971 3.28749 4.29025L4.79062 5.94415C1.95312 7.68556 0.732805 10.3699 0.678899 10.4918C0.643362 10.5717 0.625 10.6582 0.625 10.7457C0.625 10.8332 0.643362 10.9197 0.678899 10.9996C0.706243 11.0613 1.36796 12.5285 2.83905 13.9996C4.79921 15.959 7.27499 16.9949 9.99999 16.9949C11.4005 17.0029 12.7868 16.7146 14.068 16.1488L15.7867 18.0402C15.8416 18.1021 15.9082 18.1525 15.9827 18.1884C16.0572 18.2243 16.1381 18.2451 16.2207 18.2496C16.3033 18.254 16.3859 18.242 16.4638 18.2143C16.5417 18.1866 16.6134 18.1436 16.6746 18.088C16.7358 18.0324 16.7854 17.9652 16.8204 17.8903C16.8554 17.8153 16.8753 17.7342 16.8787 17.6516C16.8822 17.5689 16.8692 17.4864 16.8405 17.4089C16.8118 17.3313 16.7681 17.2602 16.7117 17.1996L4.21249 3.44962ZM11.1656 12.9567C10.6754 13.2146 10.1134 13.3023 9.56783 13.2062C9.02229 13.1101 8.52413 12.8355 8.15157 12.4256C7.77901 12.0156 7.55314 11.4936 7.50945 10.9414C7.46575 10.3891 7.6067 9.83805 7.91015 9.37462L11.1656 12.9567ZM19.3211 10.9996C19.2883 11.0731 18.4969 12.8254 16.7148 14.4215C16.592 14.5317 16.4306 14.5889 16.2658 14.5805C16.101 14.5722 15.9462 14.499 15.8351 14.377L7.92187 5.67228C7.84617 5.58921 7.79426 5.48726 7.77163 5.37717C7.74899 5.26709 7.75646 5.15293 7.79325 5.04673C7.83004 4.94054 7.89478 4.84622 7.98066 4.77372C8.06654 4.70122 8.17038 4.65322 8.28124 4.63478C8.84934 4.54098 9.4242 4.4942 9.99999 4.49493C12.725 4.49493 15.2008 5.53087 17.1609 7.49103C18.632 8.96212 19.2937 10.4301 19.3211 10.4918C19.3566 10.5717 19.375 10.6582 19.375 10.7457C19.375 10.8332 19.3566 10.9197 19.3211 10.9996Z" fill="#6A7781"/>
</svg>
