<svg width="24" height="25" viewBox="0 0 24 25" fill="none" xmlns="http://www.w3.org/2000/svg">
<path d="M24.0007 12.7721C24.0007 11.7653 23.919 11.0306 23.7422 10.2687H12.2456V14.8129H18.9939C18.8579 15.9422 18.1232 17.6429 16.4905 18.7857L16.4676 18.9378L20.1026 21.7538L20.3544 21.7789C22.6673 19.6429 24.0007 16.5 24.0007 12.7721Z" fill="#4285F4"/>
<path d="M12.245 24.7449C15.551 24.7449 18.3265 23.6564 20.3538 21.779L16.4898 18.7857C15.4558 19.5068 14.0681 20.0102 12.245 20.0102C9.00689 20.0102 6.25861 17.8742 5.27892 14.9218L5.13532 14.934L1.35558 17.8592L1.30615 17.9966C3.31974 21.9966 7.4558 24.7449 12.245 24.7449Z" fill="#34A853"/>
<path d="M5.27837 14.9217C5.01987 14.1598 4.87027 13.3434 4.87027 12.4999C4.87027 11.6563 5.01988 10.8401 5.26477 10.0782L5.25793 9.91589L1.43082 6.94373L1.3056 7.00329C0.475708 8.66317 -0.000488281 10.5272 -0.000488281 12.4999C-0.000488281 14.4727 0.475708 16.3366 1.3056 17.9965L5.27837 14.9217Z" fill="#FBBC05"/>
<path d="M12.245 4.98973C14.5442 4.98973 16.0952 5.98292 16.9796 6.81291L20.4354 3.43874C18.313 1.46596 15.551 0.255066 12.245 0.255066C7.4558 0.255066 3.31974 3.00335 1.30615 7.00331L5.26532 10.0782C6.25861 7.12581 9.00689 4.98973 12.245 4.98973Z" fill="#EB4335"/>
</svg>
