<svg width="162" height="42" viewBox="0 0 162 42" fill="none" xmlns="http://www.w3.org/2000/svg">
<path d="M27.7096 0.522583C27.4768 1.75951 27.4008 3.42366 27.4008 5.82147V26.6345C27.4008 28.9943 27.4791 30.2312 27.7096 31.9737H20.7055C20.9382 30.3878 21.0143 29.1106 21.0143 26.6345V18.4726H6.65719V26.6345C6.65719 28.9943 6.73551 30.2715 6.96599 31.9737H0C0.232722 30.4258 0.308804 29.1509 0.308804 26.6345V5.86173C0.308804 3.38564 0.232722 2.10845 0 0.522583H6.96599C6.73327 2.18673 6.65719 3.61826 6.65719 5.82147V12.7845H21.0143V5.86173C21.0143 3.42366 20.936 1.95411 20.7055 0.522583H27.7096Z" fill="#111012"/>
<path d="M40.0139 0.522583C39.7812 2.07042 39.7051 3.26932 39.7051 5.86173V26.6345C39.7051 29.1106 39.7835 30.4639 40.0139 31.9737H32.8936C33.1263 30.4661 33.2024 29.0346 33.2024 26.6345V5.86173C33.2024 3.19327 33.124 2.18673 32.8936 0.522583H40.0139Z" fill="#111012"/>
<path d="M51.8942 26.1702C51.8942 29.0332 51.9725 30.4647 52.203 31.9723H45.1587C45.3914 30.5408 45.5078 28.8766 45.5078 26.2462V5.70829C45.5078 3.38653 45.4295 2.18763 45.199 0.409402C46.7475 0.487689 47.7925 0.525714 50.4621 0.525714H61.7245C64.318 0.525714 65.6337 0.447427 67.2964 0.255066V6.47997C65.8262 6.28761 64.2777 6.20932 61.7625 6.20932H51.8942V13.5593H59.8269C62.3801 13.5593 63.7742 13.481 65.3607 13.2887V19.3615C63.8906 19.1691 62.2637 19.0908 59.8269 19.0908H51.8942V26.1702Z" fill="#111012"/>
<path d="M78.0154 0.522583C77.7827 2.07042 77.7066 3.26932 77.7066 5.86173V26.6345C77.7066 29.1106 77.7849 30.4639 78.0154 31.9737H70.895C71.1277 30.4661 71.2038 29.0346 71.2038 26.6345V5.86173C71.2038 3.19327 71.1255 2.18673 70.895 0.522583H78.0154Z" fill="#111012"/>
<path d="M92.7056 31.9677C92.9562 30.5049 93.0412 29.3753 93.0412 27.4495V5.03266C93.0412 3.40206 92.9584 2.14724 92.7056 0.431641C94.2115 0.514401 95.2588 0.556899 97.0982 0.556899H105.593C111.787 0.556899 115.3 3.77783 115.3 9.46591C115.3 15.154 111.659 18.876 105.425 18.876H95.7175V27.4495C95.7175 29.4156 95.8003 30.5854 96.0532 31.9677H92.7056ZM105.384 16.4916C109.987 16.4916 112.581 14.0244 112.581 9.59117C112.581 5.15792 110.07 2.94129 105.384 2.94129H95.7175V16.4938H105.384V16.4916Z" fill="#111012"/>
<path d="M134.468 28.7892C132.751 30.3795 131.915 30.9633 130.409 31.5494C129.028 32.0929 127.562 32.3859 126.182 32.3859C121.789 32.3859 119.068 30.044 119.068 26.1946C119.068 22.7656 121.243 20.3812 125.345 19.3344C127.73 18.7484 129.697 18.5404 134.468 18.4151V15.6974C134.468 12.8948 132.543 11.3067 129.07 11.3067C126.643 11.3067 124.886 11.933 123.713 13.2303C123.127 13.8566 122.834 14.4426 122.415 15.6974L119.779 15.1114C120.449 13.2303 120.952 12.434 121.829 11.5572C123.461 9.96686 125.888 9.13031 128.9 9.13031C134.09 9.13031 136.893 11.4297 136.893 15.6549V27.5344C136.893 29.2902 136.976 30.337 137.229 31.9676H134.468V28.7892ZM134.468 20.549C129.153 20.6742 126.685 21.0097 124.801 21.8463C122.751 22.7656 121.704 24.2307 121.704 26.237C121.704 28.6639 123.546 30.2095 126.39 30.2095C128.775 30.2095 131.619 28.9122 133.253 27.0311C134.215 25.9865 134.466 25.1902 134.466 23.4344V20.549H134.468Z" fill="#111012"/>
<path d="M142.879 14.6533C141.708 12.0318 140.954 10.4146 140.619 9.80173H144.092C144.302 10.9313 144.803 12.5619 145.472 14.1097L151.792 28.7493L157.44 14.1522C158.194 12.1034 158.57 10.9313 158.778 9.80173H162C161.664 10.6383 160.995 12.2689 159.99 14.6533L150.702 37.6158C149.657 40.1255 147.983 41.255 145.304 41.255C144.425 41.255 143.505 41.1298 142.04 40.8368L142.919 38.2019C144.092 38.7454 144.593 38.9132 145.387 38.9132C146.81 38.9132 147.73 38.2019 148.442 36.5713L150.491 31.6347L142.876 14.6533H142.879Z" fill="#111012"/>
</svg>
