<svg width="1000" height="187" viewBox="0 0 1000 187" fill="none" xmlns="http://www.w3.org/2000/svg">
<path d="M126.26 1.23047C125.2 6.87047 124.85 14.4605 124.85 25.3905V120.26C124.85 131.02 125.2 136.66 126.26 144.59H94.34C95.4 137.36 95.75 131.54 95.75 120.26V83.0505H30.33V120.26C30.33 131.02 30.68 136.84 31.74 144.59H0C1.06 137.54 1.41 131.72 1.41 120.26V25.5705C1.41 14.2805 1.06 8.46047 0 1.23047H31.74C30.68 8.81047 30.33 15.3405 30.33 25.3905V57.1305H95.75V25.5705C95.75 14.4605 95.4 7.76047 94.34 1.24047H126.26V1.23047Z" fill="white"/>
<path d="M181.479 1.23047C180.419 8.28047 180.069 13.7505 180.069 25.5605V120.26C180.069 131.55 180.419 137.72 181.479 144.59H149.029C150.089 137.71 150.439 131.19 150.439 120.26V25.5705C150.439 13.4005 150.089 8.82047 149.029 1.24047H181.479V1.23047Z" fill="white"/>
<path d="M234.94 118.15C234.94 131.2 235.29 137.72 236.35 144.6H204.26C205.32 138.08 205.85 130.49 205.85 118.5V24.86C205.85 14.28 205.5 8.81 204.44 0.7C211.49 1.05 216.26 1.23 228.42 1.23H279.73C291.54 1.23 297.54 0.88 305.12 0V28.39C298.42 27.51 291.37 27.16 279.9 27.16H234.93V60.66H271.08C282.72 60.66 289.07 60.31 296.3 59.42V87.11C289.6 86.23 282.19 85.88 271.08 85.88H234.93V118.15H234.94Z" fill="white"/>
<path d="M360.35 1.23047C359.29 8.28047 358.94 13.7505 358.94 25.5605V120.26C358.94 131.55 359.29 137.72 360.35 144.59H327.9C328.96 137.71 329.31 131.19 329.31 120.26V25.5705C329.31 13.4005 328.96 8.82047 327.9 1.24047H360.35V1.23047Z" fill="white"/>
<path d="M438.58 144.441C430.56 144.441 425.21 144.631 418.34 145.011C419.68 137.561 420.06 132.601 420.06 121.711V20.1206C420.06 12.1006 419.68 6.94063 418.53 0.640625C424.26 1.02062 427.7 1.02062 438.58 1.02062H478.11C505.23 1.02062 520.5 13.4306 520.5 35.7806C520.5 46.6706 517.06 55.0706 510.19 60.9906C506.37 64.2406 503.12 65.9606 495.29 68.4406C503.88 69.9706 508.47 72.0706 513.62 76.4606C521.26 82.9506 525.27 92.5006 525.27 104.721C525.27 129.931 508.85 144.441 480.2 144.441H438.57H438.58ZM478.49 63.4706C497.2 63.4706 508.09 53.7306 508.09 36.7306C508.09 19.7306 497.97 11.9106 478.3 11.9106H432.09V63.4706H478.5H478.49ZM432.08 133.551H479.44C501.21 133.551 512.86 123.241 512.86 103.951C512.86 84.6606 501.21 74.1606 478.87 74.1606H432.08V133.551Z" fill="white"/>
<path d="M609.49 55.4498C602.42 53.1598 599.18 52.5898 594.59 52.5898C584.66 52.5898 576.83 56.5998 570.72 64.8098C566.14 70.9198 564.61 75.4998 563.84 84.0998V123.82C563.84 132.03 564.22 137.19 565.18 144.45H550.67C551.63 136.24 552.01 130.89 552.01 123.82V63.8498C552.01 55.0698 551.63 49.9098 550.67 43.2298H563.85V60.4198C566.91 55.2598 569.77 51.8298 573.02 49.1498C580.09 43.7998 587.15 41.5098 597.46 41.5098C602.04 41.5098 605.67 41.8898 613.12 43.2298L609.49 55.4498Z" fill="white"/>
<path d="M645.579 1.02148V16.4915H629.539V1.02148H645.579ZM644.819 43.2215C643.869 49.7115 643.479 54.8715 643.479 64.0415V123.811C643.479 132.021 643.859 136.991 644.819 144.441H630.309C631.269 136.421 631.649 131.071 631.649 123.811V63.8515C631.649 55.2615 631.269 49.9115 630.309 43.2315H644.819V43.2215Z" fill="white"/>
<path d="M752.71 135.661C752.71 131.841 752.9 127.831 753.47 123.631C745.26 138.911 732.65 146.161 714.7 146.161C685.86 146.161 668.49 126.301 668.49 93.8313C668.49 61.3613 686.44 41.1213 714.51 41.1213C732.08 41.1213 745.64 48.7613 753.47 63.2713C752.9 56.3913 752.71 54.2913 752.71 48.5713V21.6512C752.71 13.8212 752.33 8.09125 751.37 1.03125H765.5C764.55 8.48125 764.16 13.6312 764.16 21.6512V123.431C764.16 132.601 764.54 137.371 765.5 144.441H752.71V135.651V135.661ZM680.72 93.6513C680.72 105.871 683.58 117.141 688.55 123.631C694.66 131.651 703.64 135.851 715.09 135.851C738.01 135.851 752.71 119.431 752.71 93.4512C752.71 80.0812 748.7 68.6213 741.44 61.5613C734.76 55.0713 725.59 51.4412 715.28 51.4412C693.7 51.4412 680.71 67.2913 680.71 93.6413L680.72 93.6513Z" fill="white"/>
<path d="M885.229 43.2303C884.279 50.3003 883.889 55.0703 883.889 64.0503V133.75C883.889 150.55 880.639 163.16 873.959 171.56C866.319 181.49 852.759 186.84 835.379 186.84C817.999 186.84 805.969 181.68 793.749 167.74L803.869 160.67C806.349 164.11 807.499 165.44 809.599 167.35C817.239 173.84 825.259 176.71 835.949 176.71C853.709 176.71 865.169 169.07 869.939 153.79C871.212 149.59 872.359 139.534 873.379 123.62C870.329 128.97 868.419 131.64 864.979 134.89C857.529 141.77 846.839 145.59 834.809 145.59C806.349 145.59 788.789 125.73 788.789 94.0303C788.789 62.3303 807.119 41.3203 834.999 41.3203C853.139 41.3203 865.749 48.3903 873.379 63.2803C872.999 60.2203 872.809 57.9303 872.809 55.2603V43.2303H885.219H885.229ZM835.009 135.47C857.539 135.47 872.439 118.47 872.439 92.3103C872.439 66.1503 858.309 51.4403 836.159 51.4403C814.009 51.4403 800.829 67.6703 800.829 94.0303C800.829 120.39 813.819 135.47 835.009 135.47Z" fill="white"/>
<path d="M920.369 94.9797C920.939 108.16 923.229 116.37 928.199 123.24C934.689 132.02 944.429 136.8 955.889 136.8C966.389 136.8 975.559 132.79 981.669 125.53C984.529 122.28 985.869 119.8 988.159 113.69L999.429 118.46C995.419 126.29 993.129 129.73 989.119 133.93C980.529 142.33 969.069 146.92 955.699 146.92C926.859 146.92 908.529 126.49 908.529 94.0197C908.529 61.5497 926.479 40.9297 954.169 40.9297C977.659 40.9297 994.459 55.8297 998.469 79.6997C998.849 81.4197 999.229 86.5797 999.999 94.9797H920.369ZM987.399 84.8597C986.449 75.4997 984.539 69.5797 980.139 63.6597C974.219 55.6397 964.669 50.8597 954.549 50.8597C936.029 50.8597 924.189 62.8897 920.939 84.8497H987.399V84.8597Z" fill="white"/>
</svg>
