<svg width="29" height="24" viewBox="0 0 29 24" fill="none" xmlns="http://www.w3.org/2000/svg">
<path fill-rule="evenodd" clip-rule="evenodd" d="M28.3426 1.00577C28.7184 1.44229 28.9295 2.03427 28.9295 2.65152C28.9295 3.26877 28.7184 3.86075 28.3426 4.29727L12.3061 22.9197C11.9301 23.3561 11.4204 23.6012 10.8888 23.6012C10.3573 23.6012 9.84752 23.3561 9.4716 22.9197L1.45333 13.6085C1.08818 13.1694 0.886134 12.5814 0.890701 11.9711C0.895268 11.3607 1.10609 10.7769 1.47775 10.3453C1.84941 9.91372 2.35218 9.66891 2.87777 9.66361C3.40337 9.6583 3.90972 9.89293 4.28779 10.317L10.8888 17.9824L25.5081 1.00577C25.8841 0.569372 26.3938 0.324219 26.9254 0.324219C27.4569 0.324219 27.9667 0.569372 28.3426 1.00577Z" fill="#7D65FD"/>
</svg>
