<svg width="41" height="42" viewBox="0 0 41 42" fill="none" xmlns="http://www.w3.org/2000/svg">
<path d="M20.5 0.255066C9.1963 0.255066 0 9.45137 0 20.7551C0 32.0588 9.1963 41.2551 20.5 41.2551C31.8037 41.2551 41 32.0588 41 20.7551C41 9.45137 31.8037 0.255066 20.5 0.255066ZM38.1757 22.9064L37.4547 22.1532C37.1173 21.8 36.8121 21.4966 36.5222 21.226C34.348 19.1965 31.7369 17.567 28.9718 16.5139L28.6725 16.3997L28.6783 16.0799C28.71 14.3298 28.813 12.4122 28.9647 10.7704H24.5028C24.6357 12.2253 24.7136 13.7365 24.7558 14.7743L24.7781 15.3302L24.2292 15.2423C21.7856 14.8528 19.2079 14.8528 16.7743 15.2423L16.226 15.3302L16.2471 14.7755C16.3051 13.2989 16.3877 11.9852 16.4996 10.7704H12.0288C12.4974 17.0586 12.4974 24.4779 12.0288 30.7409H16.4996C16.3613 29.2356 16.2682 27.6114 16.2214 25.9076L16.2102 25.4712L16.6454 25.4408C23.7103 24.9529 30.4823 25.8028 36.2317 27.8996L36.7061 28.073L36.4847 28.5269C33.5181 34.6043 27.2439 38.5315 20.5006 38.5315C13.7573 38.5315 7.47664 34.6008 4.51176 28.5175L4.29036 28.0642L4.7642 27.8902C6.48737 27.2594 8.31773 26.7446 10.3543 26.3182C10.3824 25.4338 10.3871 24.458 10.3859 23.512C8.97666 23.782 7.5809 24.1188 6.23083 24.5154L4.53167 25.0138L5.77983 23.7574C7.13927 22.3886 8.6879 21.2184 10.3847 20.2777C10.3847 19.7652 10.3853 18.076 10.3847 17.2174C8.21581 18.2453 6.23083 19.5924 4.48013 21.2266C4.18903 21.4983 3.88329 21.8023 3.54591 22.1555L2.82666 22.9087L2.76223 21.8691C2.73587 21.4439 2.72416 21.0907 2.72416 20.7557C2.72357 10.9531 10.6981 2.97864 20.5 2.97864C30.3019 2.97864 38.277 10.9531 38.277 20.7551C38.277 21.0924 38.2647 21.4456 38.2389 21.8662L38.1757 22.9064ZM36.4631 25.0115L34.7709 24.5154C34.0148 24.2934 33.3107 24.1071 32.6196 23.9455C31.4862 23.6702 30.2867 23.4324 29.052 23.2379L28.6678 23.177V19.3113L29.3156 19.6135C31.5395 20.6508 33.5269 22.0454 35.2231 23.758L36.4631 25.0115ZM24.7997 18.1129V22.7348L24.3142 22.7032C21.7827 22.5339 19.2161 22.5345 16.6852 22.7032L16.1997 22.7348V18.1164L16.5687 18.045C19.1242 17.5495 21.843 17.5489 24.4296 18.042L24.7997 18.1129Z" fill="#111012"/>
<path d="M28.7668 27.9447C27.4472 27.7151 26.0895 27.5406 24.7248 27.4252C24.6732 28.5679 24.5971 29.7036 24.5028 30.7409H28.9647C28.8857 29.8752 28.8177 28.9182 28.7668 27.9447Z" fill="#111012"/>
</svg>
