<?xml version="1.0" encoding="UTF-8"?><svg id="a" xmlns="http://www.w3.org/2000/svg" viewBox="0 0 99 24.9"><defs><style>.b{fill:#fff;}</style></defs><path class="b" d="M16.9,.2c-.1,.8-.2,1.8-.2,3.2v12.7c0,1.4,0,2.2,.2,3.3h-4.3c.1-1,.2-1.7,.2-3.3v-5H4.1v5c0,1.4,0,2.2,.2,3.3H0c.1-.9,.2-1.7,.2-3.3V3.4C.2,1.9,.2,1.1,0,.1H4.3c-.1,1-.2,1.9-.2,3.2V7.5H12.9V3.4c0-1.5,0-2.4-.2-3.3h4.2v.1Z"/><path class="b" d="M24.5,.2c-.1,.9-.2,1.7-.2,3.3v12.7c0,1.5,0,2.3,.2,3.3h-4.4c.1-.9,.2-1.8,.2-3.3V3.4c0-1.6,0-2.2-.2-3.3h4.4v.1Z"/><path class="b" d="M31.7,15.8c0,1.7,0,2.6,.2,3.5h-4.3c.1-.9,.2-1.9,.2-3.5V3.3c0-1.4,0-2.1-.2-3.2,.9,0,1.6,.1,3.2,.1h6.9c1.6,0,2.4,0,3.4-.2V3.8c-.9-.1-1.8-.2-3.4-.2h-6v4.5h4.8c1.6,0,2.4,0,3.4-.2v3.7c-.9-.1-1.9-.2-3.4-.2h-4.8v4.4Z"/><path class="b" d="M47.7,.2c-.1,.9-.2,1.7-.2,3.3v12.7c0,1.5,0,2.3,.2,3.3h-4.4c.1-.9,.2-1.8,.2-3.3V3.4c0-1.6,0-2.2-.2-3.3h4.4v.1Z"/><path class="b" d="M56.7,19.3c.2-.9,.2-1.6,.2-2.8V2.9c0-1-.1-1.8-.2-2.8,.9,.1,1.6,.1,2.7,.1h5.2c3.8,0,5.9,2,5.9,5.4s-2.2,5.7-6,5.7h-5.9v5.2c0,1.2,.1,1.9,.2,2.8h-2.1Zm7.7-9.4c2.8,0,4.4-1.5,4.4-4.2s-1.5-4.1-4.4-4.1h-5.9V9.9h5.9Z"/><path class="b" d="M82.2,17.4c-1,1-1.6,1.3-2.5,1.7-.8,.3-1.7,.5-2.6,.5-2.7,0-4.3-1.4-4.3-3.8,0-2.1,1.3-3.5,3.8-4.2,1.5-.4,2.7-.5,5.6-.6v-1.6c0-1.7-1.2-2.7-3.3-2.7-1.5,0-2.6,.4-3.3,1.2-.4,.4-.5,.7-.8,1.5l-1.6-.4c.4-1.1,.7-1.6,1.3-2.2,1-1,2.5-1.5,4.3-1.5,3.2,0,4.9,1.4,4.9,4v7.2c0,1.1,.1,1.7,.2,2.7h-1.7v-1.8Zm0-5c-3.2,.1-4.8,.3-5.9,.8-1.3,.6-1.9,1.5-1.9,2.7,0,1.5,1.1,2.4,2.9,2.4,1.5,0,3.2-.8,4.2-1.9,.6-.6,.7-1.1,.7-2.2v-1.8h0Z"/><path class="b" d="M87.3,8.8c-.7-1.6-1.2-2.6-1.4-3h2.1c.1,.7,.4,1.7,.8,2.6l3.9,8.9,3.5-8.9c.5-1.2,.7-2,.8-2.7h2l-1.2,3-5.7,14c-.6,1.5-1.7,2.2-3.3,2.2-.5,0-1.1-.1-2-.3l.5-1.6c.7,.3,1,.4,1.5,.4,.9,0,1.4-.4,1.9-1.4l1.3-3-4.7-10.2h0Z"/></svg>