<svg width="370" height="364" viewBox="0 0 370 364" fill="none" xmlns="http://www.w3.org/2000/svg">
<path d="M184.716 0C82.8539 0 0 81.5886 0 181.87C0 282.151 82.8539 363.74 184.716 363.74C286.578 363.74 369.508 282.151 369.508 181.87C369.508 81.5886 286.578 0 184.716 0ZM343.985 201.022L337.471 194.357C334.405 191.216 331.722 188.535 329.039 186.16C309.495 168.157 285.965 153.678 261.055 144.331L258.372 143.335L258.449 140.501C258.755 124.949 259.675 107.942 261.055 93.3864H220.816C222.042 106.333 222.732 119.74 223.115 128.933L223.345 133.836L218.363 133.07C196.366 129.622 173.142 129.622 151.145 133.07L146.163 133.836L146.393 128.933C146.93 115.833 147.696 104.188 148.692 93.3864H108.377C112.592 149.158 112.592 215.042 108.377 270.583H148.616C147.389 257.253 146.546 242.851 146.086 227.682L146.01 223.775L149.919 223.468C213.611 219.102 274.621 226.686 326.434 245.302L330.726 246.834L328.733 250.895C301.984 304.827 245.496 339.684 184.716 339.684C123.936 339.684 67.3715 304.827 40.6222 250.818L38.6294 246.834L42.9215 245.302C58.4806 239.71 74.9594 235.113 93.2777 231.359C93.5076 223.545 93.5843 214.888 93.5843 206.461C80.9377 208.836 68.2912 211.824 56.1812 215.348L40.8521 219.791L52.119 208.606C64.3823 196.425 78.3318 186.083 93.6609 177.733C93.6609 173.213 93.6609 158.198 93.6609 150.613C74.1163 159.73 56.2579 171.681 40.4689 186.16C37.8629 188.535 35.1037 191.293 32.0379 194.434L25.523 201.099L24.9865 191.906C24.7565 188.152 24.6032 185.011 24.6032 182.023C24.6032 95.0718 96.4968 24.2851 184.793 24.2851C273.165 24.2851 344.982 95.0718 344.982 182.023C344.982 185.011 344.828 188.152 344.599 191.906L343.985 201.022ZM328.58 219.715L313.327 215.348C306.506 213.356 300.144 211.747 293.936 210.292C283.742 207.84 272.935 205.772 261.821 204.01L258.372 203.474V169.153L264.197 171.834C284.202 181.027 302.137 193.438 317.389 208.606L328.58 219.715ZM223.499 158.504V199.49L219.13 199.183C196.289 197.651 173.219 197.651 150.379 199.183L146.01 199.49V158.504L149.306 157.891C172.376 153.524 196.902 153.524 220.126 157.891L223.499 158.504Z" fill="url(#paint0_linear_402_6653)"/>
<path d="M259.292 245.685C247.335 243.617 235.149 242.085 222.885 241.089C222.425 251.201 221.736 261.314 220.893 270.507H261.055C260.288 262.846 259.675 254.342 259.292 245.685Z" fill="#A3E0EE"/>
<defs>
<linearGradient id="paint0_linear_402_6653" x1="184.754" y1="0" x2="184.754" y2="363.74" gradientUnits="userSpaceOnUse">
<stop stop-color="#9B99FF"/>
<stop offset="0.444135" stop-color="#86CDFF"/>
<stop offset="0.937625" stop-color="#A9FFEA" stop-opacity="0.5"/>
</linearGradient>
</defs>
</svg>
