<svg width="430" height="197" viewBox="0 0 430 197" fill="none" xmlns="http://www.w3.org/2000/svg">
<g opacity="0.9" filter="url(#filter0_d_2620_9933)">
<rect x="13" y="11" width="400" height="167" rx="16" fill="white" shape-rendering="crispEdges"/>
<path d="M41.88 41.192C41.624 40.7227 41.272 40.3653 40.824 40.12C40.376 39.8747 39.8533 39.752 39.256 39.752C38.5947 39.752 38.008 39.9013 37.496 40.2C36.984 40.4987 36.584 40.9253 36.296 41.48C36.008 42.0347 35.864 42.6747 35.864 43.4C35.864 44.1467 36.008 44.7973 36.296 45.352C36.5947 45.9067 37.0053 46.3333 37.528 46.632C38.0507 46.9307 38.6587 47.08 39.352 47.08C40.2053 47.08 40.904 46.856 41.448 46.408C41.992 45.9493 42.3493 45.3147 42.52 44.504H38.68V42.792H44.728V44.744C44.5787 45.5227 44.2587 46.2427 43.768 46.904C43.2773 47.5653 42.6427 48.0987 41.864 48.504C41.096 48.8987 40.232 49.096 39.272 49.096C38.1947 49.096 37.2187 48.856 36.344 48.376C35.48 47.8853 34.7973 47.208 34.296 46.344C33.8053 45.48 33.56 44.4987 33.56 43.4C33.56 42.3013 33.8053 41.32 34.296 40.456C34.7973 39.5813 35.48 38.904 36.344 38.424C37.2187 37.9333 38.1893 37.688 39.256 37.688C40.5147 37.688 41.608 37.9973 42.536 38.616C43.464 39.224 44.104 40.0827 44.456 41.192H41.88ZM48.6253 37.16V49H46.3853V37.16H48.6253ZM54.7744 49.144C53.921 49.144 53.153 48.9573 52.4704 48.584C51.7877 48.2 51.249 47.6613 50.8544 46.968C50.4704 46.2747 50.2784 45.4747 50.2784 44.568C50.2784 43.6613 50.4757 42.8613 50.8704 42.168C51.2757 41.4747 51.825 40.9413 52.5184 40.568C53.2117 40.184 53.985 39.992 54.8384 39.992C55.6917 39.992 56.465 40.184 57.1584 40.568C57.8517 40.9413 58.3957 41.4747 58.7904 42.168C59.1957 42.8613 59.3984 43.6613 59.3984 44.568C59.3984 45.4747 59.1904 46.2747 58.7744 46.968C58.369 47.6613 57.8144 48.2 57.1104 48.584C56.417 48.9573 55.6384 49.144 54.7744 49.144ZM54.7744 47.192C55.1797 47.192 55.5584 47.096 55.9104 46.904C56.273 46.7013 56.561 46.4027 56.7744 46.008C56.9877 45.6133 57.0944 45.1333 57.0944 44.568C57.0944 43.7253 56.8704 43.08 56.4224 42.632C55.985 42.1733 55.4464 41.944 54.8064 41.944C54.1664 41.944 53.6277 42.1733 53.1904 42.632C52.7637 43.08 52.5504 43.7253 52.5504 44.568C52.5504 45.4107 52.7584 46.0613 53.1744 46.52C53.601 46.968 54.1344 47.192 54.7744 47.192ZM63.2815 41.432C63.5695 41.0053 63.9642 40.6587 64.4655 40.392C64.9775 40.1253 65.5588 39.992 66.2095 39.992C66.9668 39.992 67.6495 40.1787 68.2575 40.552C68.8762 40.9253 69.3615 41.4587 69.7135 42.152C70.0762 42.8347 70.2575 43.6293 70.2575 44.536C70.2575 45.4427 70.0762 46.248 69.7135 46.952C69.3615 47.6453 68.8762 48.184 68.2575 48.568C67.6495 48.952 66.9668 49.144 66.2095 49.144C65.5482 49.144 64.9668 49.016 64.4655 48.76C63.9748 48.4933 63.5802 48.152 63.2815 47.736V49H61.0415V37.16H63.2815V41.432ZM67.9695 44.536C67.9695 44.0027 67.8575 43.544 67.6335 43.16C67.4202 42.7653 67.1322 42.4667 66.7695 42.264C66.4175 42.0613 66.0335 41.96 65.6175 41.96C65.2122 41.96 64.8282 42.0667 64.4655 42.28C64.1135 42.4827 63.8255 42.7813 63.6015 43.176C63.3882 43.5707 63.2815 44.0347 63.2815 44.568C63.2815 45.1013 63.3882 45.5653 63.6015 45.96C63.8255 46.3547 64.1135 46.6587 64.4655 46.872C64.8282 47.0747 65.2122 47.176 65.6175 47.176C66.0335 47.176 66.4175 47.0693 66.7695 46.856C67.1322 46.6427 67.4202 46.3387 67.6335 45.944C67.8575 45.5493 67.9695 45.08 67.9695 44.536ZM71.3092 44.536C71.3092 43.64 71.4852 42.8453 71.8372 42.152C72.1999 41.4587 72.6853 40.9253 73.2933 40.552C73.9119 40.1787 74.5999 39.992 75.3573 39.992C76.0186 39.992 76.5946 40.1253 77.0853 40.392C77.5866 40.6587 77.9866 40.9947 78.2853 41.4V40.136H80.5413V49H78.2853V47.704C77.9973 48.12 77.5973 48.4667 77.0853 48.744C76.5839 49.0107 76.0026 49.144 75.3413 49.144C74.5946 49.144 73.9119 48.952 73.2933 48.568C72.6853 48.184 72.1999 47.6453 71.8372 46.952C71.4852 46.248 71.3092 45.4427 71.3092 44.536ZM78.2853 44.568C78.2853 44.024 78.1786 43.56 77.9653 43.176C77.7519 42.7813 77.4639 42.4827 77.1013 42.28C76.7386 42.0667 76.3493 41.96 75.9333 41.96C75.5173 41.96 75.1333 42.0613 74.7812 42.264C74.4293 42.4667 74.1413 42.7653 73.9173 43.16C73.7039 43.544 73.5973 44.0027 73.5973 44.536C73.5973 45.0693 73.7039 45.5387 73.9173 45.944C74.1413 46.3387 74.4293 46.6427 74.7812 46.856C75.1439 47.0693 75.5279 47.176 75.9333 47.176C76.3493 47.176 76.7386 47.0747 77.1013 46.872C77.4639 46.6587 77.7519 46.36 77.9653 45.976C78.1786 45.5813 78.2853 45.112 78.2853 44.568ZM84.969 37.16V49H82.729V37.16H84.969ZM99.1386 41.288C99.1386 41.8853 98.9946 42.4453 98.7066 42.968C98.4293 43.4907 97.9866 43.912 97.3786 44.232C96.7813 44.552 96.024 44.712 95.1066 44.712H93.2346V49H90.9946V37.832H95.1066C95.9706 37.832 96.7066 37.9813 97.3146 38.28C97.9226 38.5787 98.376 38.9893 98.6746 39.512C98.984 40.0347 99.1386 40.6267 99.1386 41.288ZM95.0106 42.904C95.6293 42.904 96.088 42.7653 96.3866 42.488C96.6853 42.2 96.8346 41.8 96.8346 41.288C96.8346 40.2 96.2266 39.656 95.0106 39.656H93.2346V42.904H95.0106ZM100.153 44.536C100.153 43.64 100.329 42.8453 100.681 42.152C101.044 41.4587 101.529 40.9253 102.137 40.552C102.756 40.1787 103.444 39.992 104.201 39.992C104.862 39.992 105.438 40.1253 105.929 40.392C106.43 40.6587 106.83 40.9947 107.129 41.4V40.136H109.385V49H107.129V47.704C106.841 48.12 106.441 48.4667 105.929 48.744C105.428 49.0107 104.846 49.144 104.185 49.144C103.438 49.144 102.756 48.952 102.137 48.568C101.529 48.184 101.044 47.6453 100.681 46.952C100.329 46.248 100.153 45.4427 100.153 44.536ZM107.129 44.568C107.129 44.024 107.022 43.56 106.809 43.176C106.596 42.7813 106.308 42.4827 105.945 42.28C105.582 42.0667 105.193 41.96 104.777 41.96C104.361 41.96 103.977 42.0613 103.625 42.264C103.273 42.4667 102.985 42.7653 102.761 43.16C102.548 43.544 102.441 44.0027 102.441 44.536C102.441 45.0693 102.548 45.5387 102.761 45.944C102.985 46.3387 103.273 46.6427 103.625 46.856C103.988 47.0693 104.372 47.176 104.777 47.176C105.193 47.176 105.582 47.0747 105.945 46.872C106.308 46.6587 106.596 46.36 106.809 45.976C107.022 45.5813 107.129 45.112 107.129 44.568ZM120.053 40.136L114.565 53.192H112.181L114.101 48.776L110.549 40.136H113.061L115.349 46.328L117.669 40.136H120.053ZM125.196 49.144C124.343 49.144 123.575 48.9573 122.892 48.584C122.21 48.2 121.671 47.6613 121.276 46.968C120.892 46.2747 120.7 45.4747 120.7 44.568C120.7 43.6613 120.898 42.8613 121.292 42.168C121.698 41.4747 122.247 40.9413 122.94 40.568C123.634 40.184 124.407 39.992 125.26 39.992C126.114 39.992 126.887 40.184 127.58 40.568C128.274 40.9413 128.818 41.4747 129.212 42.168C129.618 42.8613 129.82 43.6613 129.82 44.568C129.82 45.4747 129.612 46.2747 129.196 46.968C128.791 47.6613 128.236 48.2 127.532 48.584C126.839 48.9573 126.06 49.144 125.196 49.144ZM125.196 47.192C125.602 47.192 125.98 47.096 126.332 46.904C126.695 46.7013 126.983 46.4027 127.196 46.008C127.41 45.6133 127.516 45.1333 127.516 44.568C127.516 43.7253 127.292 43.08 126.844 42.632C126.407 42.1733 125.868 41.944 125.228 41.944C124.588 41.944 124.05 42.1733 123.612 42.632C123.186 43.08 122.972 43.7253 122.972 44.568C122.972 45.4107 123.18 46.0613 123.596 46.52C124.023 46.968 124.556 47.192 125.196 47.192ZM139.831 40.136V49H137.575V47.88C137.287 48.264 136.909 48.568 136.439 48.792C135.981 49.0053 135.479 49.112 134.935 49.112C134.242 49.112 133.629 48.968 133.095 48.68C132.562 48.3813 132.141 47.9493 131.831 47.384C131.533 46.808 131.383 46.1253 131.383 45.336V40.136H133.623V45.016C133.623 45.72 133.799 46.264 134.151 46.648C134.503 47.0213 134.983 47.208 135.591 47.208C136.21 47.208 136.695 47.0213 137.047 46.648C137.399 46.264 137.575 45.72 137.575 45.016V40.136H139.831ZM144.65 41.976V46.264C144.65 46.5627 144.719 46.7813 144.858 46.92C145.007 47.048 145.252 47.112 145.594 47.112H146.634V49H145.226C143.338 49 142.394 48.0827 142.394 46.248V41.976H141.338V40.136H142.394V37.944H144.65V40.136H146.634V41.976H144.65ZM151.637 49.144C150.911 49.144 150.261 49.016 149.685 48.76C149.109 48.4933 148.65 48.136 148.309 47.688C147.978 47.24 147.797 46.744 147.765 46.2H150.021C150.063 46.5413 150.229 46.824 150.517 47.048C150.815 47.272 151.183 47.384 151.621 47.384C152.047 47.384 152.378 47.2987 152.613 47.128C152.858 46.9573 152.981 46.7387 152.981 46.472C152.981 46.184 152.831 45.9707 152.533 45.832C152.245 45.6827 151.781 45.5227 151.141 45.352C150.479 45.192 149.935 45.0267 149.509 44.856C149.093 44.6853 148.73 44.424 148.421 44.072C148.122 43.72 147.973 43.2453 147.973 42.648C147.973 42.1573 148.111 41.7093 148.389 41.304C148.677 40.8987 149.082 40.5787 149.605 40.344C150.138 40.1093 150.762 39.992 151.477 39.992C152.533 39.992 153.375 40.2587 154.005 40.792C154.634 41.3147 154.981 42.024 155.045 42.92H152.901C152.869 42.568 152.719 42.2907 152.453 42.088C152.197 41.8747 151.85 41.768 151.413 41.768C151.007 41.768 150.693 41.8427 150.469 41.992C150.255 42.1413 150.149 42.3493 150.149 42.616C150.149 42.9147 150.298 43.144 150.597 43.304C150.895 43.4533 151.359 43.608 151.989 43.768C152.629 43.928 153.157 44.0933 153.573 44.264C153.989 44.4347 154.346 44.7013 154.645 45.064C154.954 45.416 155.114 45.8853 155.125 46.472C155.125 46.984 154.981 47.4427 154.693 47.848C154.415 48.2533 154.01 48.5733 153.477 48.808C152.954 49.032 152.341 49.144 151.637 49.144Z" fill="#111012"/>
<path d="M41.384 71.88V73.368H38.424V83H36.6V73.368H33.624V71.88H41.384ZM48.4633 83.112C47.4286 83.112 46.4739 82.872 45.5993 82.392C44.7352 81.9013 44.0472 81.224 43.5352 80.36C43.0339 79.4853 42.7832 78.504 42.7832 77.416C42.7832 76.328 43.0339 75.352 43.5352 74.488C44.0472 73.624 44.7352 72.952 45.5993 72.472C46.4739 71.9813 47.4286 71.736 48.4633 71.736C49.5086 71.736 50.4633 71.9813 51.3273 72.472C52.2019 72.952 52.8899 73.624 53.3913 74.488C53.8926 75.352 54.1433 76.328 54.1433 77.416C54.1433 78.504 53.8926 79.4853 53.3913 80.36C52.8899 81.224 52.2019 81.9013 51.3273 82.392C50.4633 82.872 49.5086 83.112 48.4633 83.112ZM48.4633 81.528C49.1993 81.528 49.8553 81.3627 50.4313 81.032C51.0073 80.6907 51.4553 80.2107 51.7753 79.592C52.1059 78.9627 52.2713 78.2373 52.2713 77.416C52.2713 76.5947 52.1059 75.8747 51.7753 75.256C51.4553 74.6373 51.0073 74.1627 50.4313 73.832C49.8553 73.5013 49.1993 73.336 48.4633 73.336C47.7273 73.336 47.0713 73.5013 46.4953 73.832C45.9193 74.1627 45.4659 74.6373 45.1353 75.256C44.8153 75.8747 44.6553 76.5947 44.6553 77.416C44.6553 78.2373 44.8153 78.9627 45.1353 79.592C45.4659 80.2107 45.9193 80.6907 46.4953 81.032C47.0713 81.3627 47.7273 81.528 48.4633 81.528ZM63.2821 71.88V73.368H60.3221V83H58.4981V73.368H55.5221V71.88H63.2821ZM71.9934 80.728H67.3374L66.5374 83H64.6334L68.6174 71.864H70.7294L74.7134 83H72.7934L71.9934 80.728ZM71.4814 79.24L69.6734 74.072L67.8494 79.24H71.4814ZM78.4296 81.528H82.1896V83H76.6056V71.88H78.4296V81.528ZM95.9672 75.192C95.9672 75.7573 95.8339 76.2907 95.5672 76.792C95.3006 77.2933 94.8739 77.704 94.2872 78.024C93.7006 78.3333 92.9486 78.488 92.0312 78.488H90.0152V83H88.1912V71.88H92.0312C92.8846 71.88 93.6046 72.0293 94.1912 72.328C94.7886 72.616 95.2312 73.0107 95.5192 73.512C95.8179 74.0133 95.9672 74.5733 95.9672 75.192ZM92.0312 77C92.7246 77 93.2419 76.8453 93.5832 76.536C93.9246 76.216 94.0952 75.768 94.0952 75.192C94.0952 73.976 93.4072 73.368 92.0312 73.368H90.0152V77H92.0312ZM104.571 80.728H99.9149L99.1149 83H97.2109L101.195 71.864H103.307L107.291 83H105.371L104.571 80.728ZM104.059 79.24L102.251 74.072L100.427 79.24H104.059ZM117.423 71.88L113.743 78.968V83H111.919V78.968L108.223 71.88H110.255L112.831 77.336L115.407 71.88H117.423ZM124.103 83.112C123.068 83.112 122.113 82.872 121.239 82.392C120.375 81.9013 119.687 81.224 119.175 80.36C118.673 79.4853 118.423 78.504 118.423 77.416C118.423 76.328 118.673 75.352 119.175 74.488C119.687 73.624 120.375 72.952 121.239 72.472C122.113 71.9813 123.068 71.736 124.103 71.736C125.148 71.736 126.103 71.9813 126.967 72.472C127.841 72.952 128.529 73.624 129.031 74.488C129.532 75.352 129.783 76.328 129.783 77.416C129.783 78.504 129.532 79.4853 129.031 80.36C128.529 81.224 127.841 81.9013 126.967 82.392C126.103 82.872 125.148 83.112 124.103 83.112ZM124.103 81.528C124.839 81.528 125.495 81.3627 126.071 81.032C126.647 80.6907 127.095 80.2107 127.415 79.592C127.745 78.9627 127.911 78.2373 127.911 77.416C127.911 76.5947 127.745 75.8747 127.415 75.256C127.095 74.6373 126.647 74.1627 126.071 73.832C125.495 73.5013 124.839 73.336 124.103 73.336C123.367 73.336 122.711 73.5013 122.135 73.832C121.559 74.1627 121.105 74.6373 120.775 75.256C120.455 75.8747 120.295 76.5947 120.295 77.416C120.295 78.2373 120.455 78.9627 120.775 79.592C121.105 80.2107 121.559 80.6907 122.135 81.032C122.711 81.3627 123.367 81.528 124.103 81.528ZM133.545 71.88V78.968C133.545 79.8107 133.764 80.4453 134.201 80.872C134.649 81.2987 135.268 81.512 136.057 81.512C136.857 81.512 137.476 81.2987 137.913 80.872C138.361 80.4453 138.585 79.8107 138.585 78.968V71.88H140.409V78.936C140.409 79.8427 140.212 80.6107 139.817 81.24C139.423 81.8693 138.895 82.3387 138.233 82.648C137.572 82.9573 136.841 83.112 136.041 83.112C135.241 83.112 134.511 82.9573 133.849 82.648C133.199 82.3387 132.681 81.8693 132.297 81.24C131.913 80.6107 131.721 79.8427 131.721 78.936V71.88H133.545ZM150.128 71.88V73.368H147.168V83H145.344V73.368H142.368V71.88H150.128Z" fill="#111012"/>
<path d="M228.432 79.944C228.432 80.456 228.304 80.9467 228.048 81.416C227.792 81.8747 227.413 82.2587 226.912 82.568C226.421 82.8773 225.829 83.0533 225.136 83.096V84.392H224.272V83.096C223.301 83.0107 222.512 82.7013 221.904 82.168C221.296 81.624 220.987 80.936 220.976 80.104H222.528C222.571 80.552 222.736 80.9413 223.024 81.272C223.323 81.6027 223.739 81.8107 224.272 81.896V77.896C223.557 77.7147 222.981 77.528 222.544 77.336C222.107 77.144 221.733 76.8453 221.424 76.44C221.115 76.0347 220.96 75.4907 220.96 74.808C220.96 73.944 221.259 73.2293 221.856 72.664C222.464 72.0987 223.269 71.784 224.272 71.72V70.392H225.136V71.72C226.043 71.7947 226.773 72.088 227.328 72.6C227.883 73.1013 228.203 73.7573 228.288 74.568H226.736C226.683 74.1947 226.517 73.8587 226.24 73.56C225.963 73.2507 225.595 73.048 225.136 72.952V76.856C225.84 77.0373 226.411 77.224 226.848 77.416C227.296 77.5973 227.669 77.8907 227.968 78.296C228.277 78.7013 228.432 79.2507 228.432 79.944ZM222.448 74.728C222.448 75.2507 222.603 75.6507 222.912 75.928C223.221 76.2053 223.675 76.4347 224.272 76.616V72.92C223.717 72.9733 223.275 73.1547 222.944 73.464C222.613 73.7627 222.448 74.184 222.448 74.728ZM225.136 81.912C225.712 81.848 226.16 81.64 226.48 81.288C226.811 80.936 226.976 80.5147 226.976 80.024C226.976 79.5013 226.816 79.1013 226.496 78.824C226.176 78.536 225.723 78.3067 225.136 78.136V81.912ZM230.913 74.344C230.988 73.3627 231.366 72.5947 232.049 72.04C232.732 71.4853 233.617 71.208 234.705 71.208C235.43 71.208 236.054 71.3413 236.577 71.608C237.11 71.864 237.51 72.216 237.777 72.664C238.054 73.112 238.193 73.6187 238.193 74.184C238.193 74.8453 238.001 75.416 237.617 75.896C237.244 76.376 236.753 76.6853 236.145 76.824V76.904C236.838 77.0747 237.388 77.4107 237.793 77.912C238.198 78.4133 238.401 79.0693 238.401 79.88C238.401 80.488 238.262 81.0373 237.985 81.528C237.708 82.008 237.292 82.3867 236.737 82.664C236.182 82.9413 235.516 83.08 234.737 83.08C233.606 83.08 232.678 82.7867 231.953 82.2C231.228 81.6027 230.822 80.76 230.737 79.672H232.145C232.22 80.312 232.481 80.8347 232.929 81.24C233.377 81.6453 233.974 81.848 234.721 81.848C235.468 81.848 236.033 81.656 236.417 81.272C236.812 80.8773 237.009 80.3707 237.009 79.752C237.009 78.952 236.742 78.376 236.209 78.024C235.676 77.672 234.87 77.496 233.793 77.496H233.425V76.28H233.809C234.79 76.2693 235.532 76.1093 236.033 75.8C236.534 75.48 236.785 74.9893 236.785 74.328C236.785 73.7627 236.598 73.3093 236.225 72.968C235.862 72.6267 235.34 72.456 234.657 72.456C233.996 72.456 233.462 72.6267 233.057 72.968C232.652 73.3093 232.412 73.768 232.337 74.344H230.913ZM239.983 72.76V71.432H242.991V83H241.519V72.76H239.983ZM245.492 77.096C245.492 75.2613 245.791 73.832 246.388 72.808C246.985 71.7733 248.031 71.256 249.524 71.256C251.007 71.256 252.047 71.7733 252.644 72.808C253.241 73.832 253.54 75.2613 253.54 77.096C253.54 78.9627 253.241 80.4133 252.644 81.448C252.047 82.4827 251.007 83 249.524 83C248.031 83 246.985 82.4827 246.388 81.448C245.791 80.4133 245.492 78.9627 245.492 77.096ZM252.1 77.096C252.1 76.168 252.036 75.384 251.908 74.744C251.791 74.0933 251.54 73.5707 251.156 73.176C250.783 72.7813 250.239 72.584 249.524 72.584C248.799 72.584 248.244 72.7813 247.86 73.176C247.487 73.5707 247.236 74.0933 247.108 74.744C246.991 75.384 246.932 76.168 246.932 77.096C246.932 78.056 246.991 78.8613 247.108 79.512C247.236 80.1627 247.487 80.6853 247.86 81.08C248.244 81.4747 248.799 81.672 249.524 81.672C250.239 81.672 250.783 81.4747 251.156 81.08C251.54 80.6853 251.791 80.1627 251.908 79.512C252.036 78.8613 252.1 78.056 252.1 77.096ZM257.283 80.984L255.491 85.288H254.515L255.683 80.984H257.283ZM258.359 80.424V79.32L263.975 71.544H265.719V79.16H267.319V80.424H265.719V83H264.279V80.424H258.359ZM264.343 73.064L260.039 79.16H264.343V73.064ZM276.149 72.696H270.533V76.344C270.779 76.0027 271.141 75.7253 271.621 75.512C272.101 75.288 272.619 75.176 273.173 75.176C274.059 75.176 274.779 75.3627 275.333 75.736C275.888 76.0987 276.283 76.5733 276.517 77.16C276.763 77.736 276.885 78.3493 276.885 79C276.885 79.768 276.741 80.456 276.453 81.064C276.165 81.672 275.723 82.152 275.125 82.504C274.539 82.856 273.808 83.032 272.933 83.032C271.813 83.032 270.907 82.744 270.213 82.168C269.52 81.592 269.099 80.824 268.949 79.864H270.373C270.512 80.472 270.805 80.9467 271.253 81.288C271.701 81.6293 272.267 81.8 272.949 81.8C273.792 81.8 274.427 81.5493 274.853 81.048C275.28 80.536 275.493 79.864 275.493 79.032C275.493 78.2 275.28 77.56 274.853 77.112C274.427 76.6533 273.797 76.424 272.965 76.424C272.4 76.424 271.904 76.5627 271.477 76.84C271.061 77.1067 270.757 77.4747 270.565 77.944H269.189V71.416H276.149V72.696ZM278.644 81.832C279.999 80.744 281.06 79.8533 281.828 79.16C282.596 78.456 283.241 77.7253 283.764 76.968C284.297 76.2 284.564 75.448 284.564 74.712C284.564 74.0187 284.393 73.4747 284.052 73.08C283.721 72.6747 283.183 72.472 282.436 72.472C281.711 72.472 281.145 72.7013 280.74 73.16C280.345 73.608 280.132 74.2107 280.1 74.968H278.692C278.735 73.7733 279.097 72.8507 279.78 72.2C280.463 71.5493 281.343 71.224 282.42 71.224C283.519 71.224 284.388 71.528 285.028 72.136C285.679 72.744 286.004 73.5813 286.004 74.648C286.004 75.5333 285.737 76.3973 285.204 77.24C284.681 78.072 284.084 78.808 283.412 79.448C282.74 80.0773 281.881 80.8133 280.836 81.656H286.34V82.872H278.644V81.832ZM288.727 83.096C288.45 83.096 288.215 83 288.023 82.808C287.831 82.616 287.735 82.3813 287.735 82.104C287.735 81.8267 287.831 81.592 288.023 81.4C288.215 81.208 288.45 81.112 288.727 81.112C288.994 81.112 289.218 81.208 289.399 81.4C289.591 81.592 289.687 81.8267 289.687 82.104C289.687 82.3813 289.591 82.616 289.399 82.808C289.218 83 288.994 83.096 288.727 83.096ZM291.031 80.424V79.32L296.647 71.544H298.391V79.16H299.991V80.424H298.391V83H296.951V80.424H291.031ZM297.015 73.064L292.711 79.16H297.015V73.064ZM301.269 81.832C302.624 80.744 303.685 79.8533 304.453 79.16C305.221 78.456 305.866 77.7253 306.389 76.968C306.922 76.2 307.189 75.448 307.189 74.712C307.189 74.0187 307.018 73.4747 306.677 73.08C306.346 72.6747 305.808 72.472 305.061 72.472C304.336 72.472 303.77 72.7013 303.365 73.16C302.97 73.608 302.757 74.2107 302.725 74.968H301.317C301.36 73.7733 301.722 72.8507 302.405 72.2C303.088 71.5493 303.968 71.224 305.045 71.224C306.144 71.224 307.013 71.528 307.653 72.136C308.304 72.744 308.629 73.5813 308.629 74.648C308.629 75.5333 308.362 76.3973 307.829 77.24C307.306 78.072 306.709 78.808 306.037 79.448C305.365 80.0773 304.506 80.8133 303.461 81.656H308.965V82.872H301.269V81.832Z" fill="#4B5563"/>
<g clip-path="url(#clip0_2620_9933)">
<path d="M41.384 105.88V107.368H38.424V117H36.6V107.368H33.624V105.88H41.384ZM49.1673 117L46.6073 112.552H45.2153V117H43.3912V105.88H47.2313C48.0846 105.88 48.8046 106.029 49.3913 106.328C49.9886 106.627 50.4313 107.027 50.7193 107.528C51.0179 108.029 51.1673 108.589 51.1673 109.208C51.1673 109.933 50.9539 110.595 50.5273 111.192C50.1113 111.779 49.4659 112.179 48.5912 112.392L51.3433 117H49.1673ZM45.2153 111.096H47.2313C47.9139 111.096 48.4259 110.925 48.7673 110.584C49.1193 110.243 49.2953 109.784 49.2953 109.208C49.2953 108.632 49.1246 108.184 48.7833 107.864C48.4419 107.533 47.9246 107.368 47.2313 107.368H45.2153V111.096ZM60.3646 114.728H55.7086L54.9086 117H53.0046L56.9886 105.864H59.1006L63.0846 117H61.1646L60.3646 114.728ZM59.8526 113.24L58.0446 108.072L56.2206 113.24H59.8526ZM74.1129 117H72.2889L66.8009 108.696V117H64.9769V105.864H66.8009L72.2889 114.152V105.864H74.1129V117ZM80.3321 117.112C79.5855 117.112 78.9135 116.984 78.3161 116.728C77.7188 116.461 77.2495 116.088 76.9081 115.608C76.5668 115.128 76.3961 114.568 76.3961 113.928H78.3481C78.3908 114.408 78.5775 114.803 78.9081 115.112C79.2495 115.421 79.7241 115.576 80.3321 115.576C80.9615 115.576 81.4521 115.427 81.8041 115.128C82.1561 114.819 82.3321 114.424 82.3321 113.944C82.3321 113.571 82.2201 113.267 81.9961 113.032C81.7828 112.797 81.5108 112.616 81.1801 112.488C80.8601 112.36 80.4121 112.221 79.8361 112.072C79.1108 111.88 78.5188 111.688 78.0601 111.496C77.6121 111.293 77.2281 110.984 76.9081 110.568C76.5881 110.152 76.4281 109.597 76.4281 108.904C76.4281 108.264 76.5881 107.704 76.9081 107.224C77.2281 106.744 77.6761 106.376 78.2521 106.12C78.8281 105.864 79.4948 105.736 80.2521 105.736C81.3295 105.736 82.2095 106.008 82.8921 106.552C83.5855 107.085 83.9695 107.821 84.0441 108.76H82.0281C81.9961 108.355 81.8041 108.008 81.4521 107.72C81.1001 107.432 80.6361 107.288 80.0601 107.288C79.5375 107.288 79.1108 107.421 78.7801 107.688C78.4495 107.955 78.2841 108.339 78.2841 108.84C78.2841 109.181 78.3855 109.464 78.5881 109.688C78.8015 109.901 79.0681 110.072 79.3881 110.2C79.7081 110.328 80.1455 110.467 80.7001 110.616C81.4361 110.819 82.0335 111.021 82.4921 111.224C82.9615 111.427 83.3561 111.741 83.6761 112.168C84.0068 112.584 84.1721 113.144 84.1721 113.848C84.1721 114.413 84.0175 114.947 83.7081 115.448C83.4095 115.949 82.9668 116.355 82.3801 116.664C81.8041 116.963 81.1215 117.112 80.3321 117.112ZM93.1884 114.728H88.5324L87.7324 117H85.8284L89.8124 105.864H91.9244L95.9084 117H93.9884L93.1884 114.728ZM92.6764 113.24L90.8684 108.072L89.0444 113.24H92.6764ZM97.1926 111.416C97.1926 110.328 97.4433 109.352 97.9446 108.488C98.4566 107.624 99.1446 106.952 100.009 106.472C100.883 105.981 101.838 105.736 102.873 105.736C104.057 105.736 105.107 106.029 106.025 106.616C106.953 107.192 107.625 108.013 108.041 109.08H105.849C105.561 108.493 105.161 108.056 104.649 107.768C104.137 107.48 103.545 107.336 102.873 107.336C102.137 107.336 101.481 107.501 100.905 107.832C100.329 108.163 99.8753 108.637 99.5446 109.256C99.2246 109.875 99.0646 110.595 99.0646 111.416C99.0646 112.237 99.2246 112.957 99.5446 113.576C99.8753 114.195 100.329 114.675 100.905 115.016C101.481 115.347 102.137 115.512 102.873 115.512C103.545 115.512 104.137 115.368 104.649 115.08C105.161 114.792 105.561 114.355 105.849 113.768H108.041C107.625 114.835 106.953 115.656 106.025 116.232C105.107 116.808 104.057 117.096 102.873 117.096C101.827 117.096 100.873 116.856 100.009 116.376C99.1446 115.885 98.4566 115.208 97.9446 114.344C97.4433 113.48 97.1926 112.504 97.1926 111.416ZM117.52 105.88V107.368H114.56V117H112.736V107.368H109.76V105.88H117.52ZM121.351 105.88V117H119.527V105.88H121.351ZM128.978 117.112C127.943 117.112 126.988 116.872 126.114 116.392C125.25 115.901 124.562 115.224 124.05 114.36C123.548 113.485 123.298 112.504 123.298 111.416C123.298 110.328 123.548 109.352 124.05 108.488C124.562 107.624 125.25 106.952 126.114 106.472C126.988 105.981 127.943 105.736 128.978 105.736C130.023 105.736 130.978 105.981 131.842 106.472C132.716 106.952 133.404 107.624 133.906 108.488C134.407 109.352 134.658 110.328 134.658 111.416C134.658 112.504 134.407 113.485 133.906 114.36C133.404 115.224 132.716 115.901 131.842 116.392C130.978 116.872 130.023 117.112 128.978 117.112ZM128.978 115.528C129.714 115.528 130.37 115.363 130.946 115.032C131.522 114.691 131.97 114.211 132.29 113.592C132.62 112.963 132.786 112.237 132.786 111.416C132.786 110.595 132.62 109.875 132.29 109.256C131.97 108.637 131.522 108.163 130.946 107.832C130.37 107.501 129.714 107.336 128.978 107.336C128.242 107.336 127.586 107.501 127.01 107.832C126.434 108.163 125.98 108.637 125.65 109.256C125.33 109.875 125.17 110.595 125.17 111.416C125.17 112.237 125.33 112.963 125.65 113.592C125.98 114.211 126.434 114.691 127.01 115.032C127.586 115.363 128.242 115.528 128.978 115.528ZM145.748 117H143.924L138.436 108.696V117H136.612V105.864H138.436L143.924 114.152V105.864H145.748V117ZM154.444 105.88V117H152.62V105.88H154.444ZM160.631 105.88C161.815 105.88 162.849 106.109 163.735 106.568C164.631 107.016 165.319 107.667 165.799 108.52C166.289 109.363 166.535 110.349 166.535 111.48C166.535 112.611 166.289 113.592 165.799 114.424C165.319 115.256 164.631 115.896 163.735 116.344C162.849 116.781 161.815 117 160.631 117H156.999V105.88H160.631ZM160.631 115.512C161.932 115.512 162.929 115.16 163.623 114.456C164.316 113.752 164.663 112.76 164.663 111.48C164.663 110.189 164.316 109.181 163.623 108.456C162.929 107.731 161.932 107.368 160.631 107.368H158.823V115.512H160.631Z" fill="#111012"/>
<path d="M224.336 117.144C223.664 117.144 223.061 117.032 222.528 116.808C221.995 116.573 221.573 116.253 221.264 115.848C220.955 115.432 220.784 114.957 220.752 114.424H222.256C222.299 114.861 222.501 115.219 222.864 115.496C223.237 115.773 223.723 115.912 224.32 115.912C224.875 115.912 225.312 115.789 225.632 115.544C225.952 115.299 226.112 114.989 226.112 114.616C226.112 114.232 225.941 113.949 225.6 113.768C225.259 113.576 224.731 113.389 224.016 113.208C223.365 113.037 222.832 112.867 222.416 112.696C222.011 112.515 221.659 112.253 221.36 111.912C221.072 111.56 220.928 111.101 220.928 110.536C220.928 110.088 221.061 109.677 221.328 109.304C221.595 108.931 221.973 108.637 222.464 108.424C222.955 108.2 223.515 108.088 224.144 108.088C225.115 108.088 225.899 108.333 226.496 108.824C227.093 109.315 227.413 109.987 227.456 110.84H226C225.968 110.381 225.781 110.013 225.44 109.736C225.109 109.459 224.661 109.32 224.096 109.32C223.573 109.32 223.157 109.432 222.848 109.656C222.539 109.88 222.384 110.173 222.384 110.536C222.384 110.824 222.475 111.064 222.656 111.256C222.848 111.437 223.083 111.587 223.36 111.704C223.648 111.811 224.043 111.933 224.544 112.072C225.173 112.243 225.685 112.413 226.08 112.584C226.475 112.744 226.811 112.989 227.088 113.32C227.376 113.651 227.525 114.083 227.536 114.616C227.536 115.096 227.403 115.528 227.136 115.912C226.869 116.296 226.491 116.6 226 116.824C225.52 117.037 224.965 117.144 224.336 117.144ZM237.399 105.848L233.767 112.792V117H232.311V112.792L228.663 105.848H230.279L233.031 111.496L235.783 105.848H237.399ZM240.391 115.816H244.295V117H238.935V105.848H240.391V115.816ZM247.617 109.432V114.6C247.617 115.027 247.708 115.331 247.889 115.512C248.071 115.683 248.385 115.768 248.833 115.768H249.905V117H248.593C247.783 117 247.175 116.813 246.769 116.44C246.364 116.067 246.161 115.453 246.161 114.6V109.432H245.025V108.232H246.161V106.024H247.617V108.232H249.905V109.432H247.617ZM265.686 105.848L262.454 117H260.822L258.23 108.024L255.542 117L253.926 117.016L250.806 105.848H252.358L254.79 115.304L257.478 105.848H259.11L261.67 115.272L264.118 105.848H265.686ZM272.895 105.848V114.088C272.895 115.005 272.612 115.741 272.047 116.296C271.482 116.84 270.735 117.112 269.807 117.112C268.868 117.112 268.116 116.835 267.551 116.28C266.986 115.715 266.703 114.947 266.703 113.976H268.159C268.17 114.52 268.308 114.963 268.575 115.304C268.852 115.645 269.263 115.816 269.807 115.816C270.351 115.816 270.756 115.656 271.023 115.336C271.29 115.005 271.423 114.589 271.423 114.088V105.848H272.895ZM275.219 112.6C275.219 111.693 275.401 110.904 275.763 110.232C276.126 109.549 276.627 109.021 277.267 108.648C277.918 108.275 278.659 108.088 279.491 108.088C280.569 108.088 281.454 108.349 282.147 108.872C282.851 109.395 283.315 110.12 283.539 111.048H281.971C281.822 110.515 281.529 110.093 281.091 109.784C280.665 109.475 280.131 109.32 279.491 109.32C278.659 109.32 277.987 109.608 277.475 110.184C276.963 110.749 276.707 111.555 276.707 112.6C276.707 113.656 276.963 114.472 277.475 115.048C277.987 115.624 278.659 115.912 279.491 115.912C280.131 115.912 280.665 115.763 281.091 115.464C281.518 115.165 281.811 114.739 281.971 114.184H283.539C283.305 115.08 282.835 115.8 282.131 116.344C281.427 116.877 280.547 117.144 279.491 117.144C278.659 117.144 277.918 116.957 277.267 116.584C276.627 116.211 276.126 115.683 275.763 115C275.401 114.317 275.219 113.517 275.219 112.6ZM288.746 115.656L291.466 108.232H293.018L289.578 117H287.882L284.442 108.232H286.01L288.746 115.656ZM296.083 113.896C296.189 114.504 296.435 114.973 296.819 115.304C297.213 115.635 297.741 115.8 298.403 115.8C299.288 115.8 299.939 115.453 300.355 114.76C300.781 114.067 300.984 112.899 300.963 111.256C300.739 111.736 300.365 112.115 299.843 112.392C299.32 112.659 298.739 112.792 298.099 112.792C297.384 112.792 296.744 112.648 296.179 112.36C295.624 112.061 295.187 111.629 294.867 111.064C294.547 110.499 294.387 109.816 294.387 109.016C294.387 107.875 294.717 106.957 295.379 106.264C296.04 105.56 296.979 105.208 298.195 105.208C299.688 105.208 300.733 105.693 301.331 106.664C301.939 107.635 302.243 109.08 302.243 111C302.243 112.344 302.12 113.453 301.875 114.328C301.64 115.203 301.235 115.869 300.659 116.328C300.093 116.787 299.315 117.016 298.323 117.016C297.235 117.016 296.387 116.723 295.779 116.136C295.171 115.549 294.824 114.803 294.739 113.896H296.083ZM298.339 111.56C299.053 111.56 299.64 111.341 300.099 110.904C300.557 110.456 300.787 109.853 300.787 109.096C300.787 108.296 300.563 107.651 300.115 107.16C299.667 106.669 299.037 106.424 298.227 106.424C297.48 106.424 296.883 106.659 296.435 107.128C295.997 107.597 295.779 108.216 295.779 108.984C295.779 109.763 295.997 110.387 296.435 110.856C296.872 111.325 297.507 111.56 298.339 111.56ZM305.761 115.736H311.201V117H304.033V115.848L309.441 107.112H304.097V105.848H311.169V107L305.761 115.736ZM314.641 105.16V117H313.185V105.16H314.641ZM318.899 109.432V114.6C318.899 115.027 318.989 115.331 319.171 115.512C319.352 115.683 319.667 115.768 320.115 115.768H321.187V117H319.875C319.064 117 318.456 116.813 318.051 116.44C317.645 116.067 317.443 115.453 317.443 114.6V109.432H316.307V108.232H317.443V106.024H318.899V108.232H321.187V109.432H318.899ZM329.831 106.568L325.383 117H323.911L328.423 106.712H322.247V105.464H329.831V106.568ZM339.141 109.112C339.141 110.04 338.821 110.813 338.181 111.432C337.552 112.04 336.586 112.344 335.285 112.344H333.141V117H331.685V105.848H335.285C336.544 105.848 337.498 106.152 338.149 106.76C338.81 107.368 339.141 108.152 339.141 109.112ZM335.285 111.144C336.096 111.144 336.693 110.968 337.077 110.616C337.461 110.264 337.653 109.763 337.653 109.112C337.653 107.736 336.864 107.048 335.285 107.048H333.141V111.144H335.285ZM346.999 117L342.407 111.912V117H340.951V105.848H342.407V111.016L347.015 105.848H348.855L343.799 111.432L348.903 117H346.999ZM355.089 111.432L358.513 117H356.865L354.193 112.648L351.649 117H350.033L353.441 111.432L350.017 105.848H351.649L354.337 110.216L356.897 105.848H358.529L355.089 111.432Z" fill="#4B5563"/>
</g>
<path d="M37.832 139.88C39.016 139.88 40.0507 140.109 40.936 140.568C41.832 141.016 42.52 141.667 43 142.52C43.4907 143.363 43.736 144.349 43.736 145.48C43.736 146.611 43.4907 147.592 43 148.424C42.52 149.256 41.832 149.896 40.936 150.344C40.0507 150.781 39.016 151 37.832 151H34.2V139.88H37.832ZM37.832 149.512C39.1333 149.512 40.1307 149.16 40.824 148.456C41.5173 147.752 41.864 146.76 41.864 145.48C41.864 144.189 41.5173 143.181 40.824 142.456C40.1307 141.731 39.1333 141.368 37.832 141.368H36.024V149.512H37.832ZM47.5278 141.352V144.616H51.3678V146.104H47.5278V149.512H51.8478V151H45.7037V139.864H51.8478V141.352H47.5278ZM57.9184 151.112C57.1717 151.112 56.4997 150.984 55.9024 150.728C55.305 150.461 54.8357 150.088 54.4944 149.608C54.153 149.128 53.9824 148.568 53.9824 147.928H55.9344C55.977 148.408 56.1637 148.803 56.4944 149.112C56.8357 149.421 57.3104 149.576 57.9184 149.576C58.5477 149.576 59.0384 149.427 59.3904 149.128C59.7424 148.819 59.9184 148.424 59.9184 147.944C59.9184 147.571 59.8064 147.267 59.5824 147.032C59.369 146.797 59.097 146.616 58.7664 146.488C58.4464 146.36 57.9984 146.221 57.4224 146.072C56.697 145.88 56.105 145.688 55.6464 145.496C55.1984 145.293 54.8144 144.984 54.4944 144.568C54.1744 144.152 54.0144 143.597 54.0144 142.904C54.0144 142.264 54.1744 141.704 54.4944 141.224C54.8144 140.744 55.2624 140.376 55.8384 140.12C56.4144 139.864 57.081 139.736 57.8384 139.736C58.9157 139.736 59.7957 140.008 60.4784 140.552C61.1717 141.085 61.5557 141.821 61.6304 142.76H59.6144C59.5824 142.355 59.3904 142.008 59.0384 141.72C58.6864 141.432 58.2224 141.288 57.6464 141.288C57.1237 141.288 56.697 141.421 56.3664 141.688C56.0357 141.955 55.8704 142.339 55.8704 142.84C55.8704 143.181 55.9717 143.464 56.1744 143.688C56.3877 143.901 56.6544 144.072 56.9744 144.2C57.2944 144.328 57.7317 144.467 58.2864 144.616C59.0224 144.819 59.6197 145.021 60.0784 145.224C60.5477 145.427 60.9424 145.741 61.2624 146.168C61.593 146.584 61.7584 147.144 61.7584 147.848C61.7584 148.413 61.6037 148.947 61.2944 149.448C60.9957 149.949 60.553 150.355 59.9664 150.664C59.3904 150.963 58.7077 151.112 57.9184 151.112ZM63.4626 145.416C63.4626 144.328 63.7133 143.352 64.2146 142.488C64.7266 141.624 65.4146 140.952 66.2786 140.472C67.1533 139.981 68.108 139.736 69.1426 139.736C70.3266 139.736 71.3773 140.029 72.2946 140.616C73.2226 141.192 73.8946 142.013 74.3106 143.08H72.1186C71.8306 142.493 71.4306 142.056 70.9186 141.768C70.4066 141.48 69.8146 141.336 69.1426 141.336C68.4066 141.336 67.7506 141.501 67.1746 141.832C66.5986 142.163 66.1453 142.637 65.8146 143.256C65.4946 143.875 65.3346 144.595 65.3346 145.416C65.3346 146.237 65.4946 146.957 65.8146 147.576C66.1453 148.195 66.5986 148.675 67.1746 149.016C67.7506 149.347 68.4066 149.512 69.1426 149.512C69.8146 149.512 70.4066 149.368 70.9186 149.08C71.4306 148.792 71.8306 148.355 72.1186 147.768H74.3106C73.8946 148.835 73.2226 149.656 72.2946 150.232C71.3773 150.808 70.3266 151.096 69.1426 151.096C68.0973 151.096 67.1426 150.856 66.2786 150.376C65.4146 149.885 64.7266 149.208 64.2146 148.344C63.7133 147.48 63.4626 146.504 63.4626 145.416ZM82.3816 151L79.8216 146.552H78.4296V151H76.6056V139.88H80.4456C81.299 139.88 82.019 140.029 82.6056 140.328C83.203 140.627 83.6456 141.027 83.9336 141.528C84.2323 142.029 84.3816 142.589 84.3816 143.208C84.3816 143.933 84.1683 144.595 83.7416 145.192C83.3256 145.779 82.6803 146.179 81.8056 146.392L84.5576 151H82.3816ZM78.4296 145.096H80.4456C81.1283 145.096 81.6403 144.925 81.9816 144.584C82.3336 144.243 82.5096 143.784 82.5096 143.208C82.5096 142.632 82.339 142.184 81.9976 141.864C81.6563 141.533 81.139 141.368 80.4456 141.368H78.4296V145.096ZM88.699 139.88V151H86.875V139.88H88.699ZM99.0297 143.192C99.0297 143.757 98.8964 144.291 98.6297 144.792C98.3631 145.293 97.9364 145.704 97.3497 146.024C96.7631 146.333 96.0111 146.488 95.0937 146.488H93.0777V151H91.2537V139.88H95.0937C95.9471 139.88 96.6671 140.029 97.2537 140.328C97.8511 140.616 98.2937 141.011 98.5817 141.512C98.8804 142.013 99.0297 142.573 99.0297 143.192ZM95.0937 145C95.7871 145 96.3044 144.845 96.6457 144.536C96.9871 144.216 97.1577 143.768 97.1577 143.192C97.1577 141.976 96.4697 141.368 95.0937 141.368H93.0777V145H95.0937ZM108.113 139.88V141.368H105.153V151H103.329V141.368H100.353V139.88H108.113ZM111.945 139.88V151H110.121V139.88H111.945ZM119.571 151.112C118.537 151.112 117.582 150.872 116.707 150.392C115.843 149.901 115.155 149.224 114.643 148.36C114.142 147.485 113.891 146.504 113.891 145.416C113.891 144.328 114.142 143.352 114.643 142.488C115.155 141.624 115.843 140.952 116.707 140.472C117.582 139.981 118.537 139.736 119.571 139.736C120.617 139.736 121.571 139.981 122.435 140.472C123.31 140.952 123.998 141.624 124.499 142.488C125.001 143.352 125.251 144.328 125.251 145.416C125.251 146.504 125.001 147.485 124.499 148.36C123.998 149.224 123.31 149.901 122.435 150.392C121.571 150.872 120.617 151.112 119.571 151.112ZM119.571 149.528C120.307 149.528 120.963 149.363 121.539 149.032C122.115 148.691 122.563 148.211 122.883 147.592C123.214 146.963 123.379 146.237 123.379 145.416C123.379 144.595 123.214 143.875 122.883 143.256C122.563 142.637 122.115 142.163 121.539 141.832C120.963 141.501 120.307 141.336 119.571 141.336C118.835 141.336 118.179 141.501 117.603 141.832C117.027 142.163 116.574 142.637 116.243 143.256C115.923 143.875 115.763 144.595 115.763 145.416C115.763 146.237 115.923 146.963 116.243 147.592C116.574 148.211 117.027 148.691 117.603 149.032C118.179 149.363 118.835 149.528 119.571 149.528ZM136.342 151H134.518L129.03 142.696V151H127.206V139.864H129.03L134.518 148.152V139.864H136.342V151Z" fill="#111012"/>
<path d="M226.288 151.112C225.253 151.112 224.309 150.872 223.456 150.392C222.603 149.901 221.925 149.224 221.424 148.36C220.933 147.485 220.688 146.504 220.688 145.416C220.688 144.328 220.933 143.352 221.424 142.488C221.925 141.613 222.603 140.936 223.456 140.456C224.309 139.965 225.253 139.72 226.288 139.72C227.333 139.72 228.283 139.965 229.136 140.456C229.989 140.936 230.661 141.608 231.152 142.472C231.643 143.336 231.888 144.317 231.888 145.416C231.888 146.515 231.643 147.496 231.152 148.36C230.661 149.224 229.989 149.901 229.136 150.392C228.283 150.872 227.333 151.112 226.288 151.112ZM226.288 149.848C227.067 149.848 227.765 149.667 228.384 149.304C229.013 148.941 229.504 148.424 229.856 147.752C230.219 147.08 230.4 146.301 230.4 145.416C230.4 144.52 230.219 143.741 229.856 143.08C229.504 142.408 229.019 141.891 228.4 141.528C227.781 141.165 227.077 140.984 226.288 140.984C225.499 140.984 224.795 141.165 224.176 141.528C223.557 141.891 223.067 142.408 222.704 143.08C222.352 143.741 222.176 144.52 222.176 145.416C222.176 146.301 222.352 147.08 222.704 147.752C223.067 148.424 223.557 148.941 224.176 149.304C224.805 149.667 225.509 149.848 226.288 149.848ZM235.266 143.656C235.522 143.155 235.885 142.765 236.354 142.488C236.834 142.211 237.415 142.072 238.098 142.072V143.576H237.714C236.082 143.576 235.266 144.461 235.266 146.232V151H233.81V142.232H235.266V143.656ZM239.235 146.584C239.235 145.688 239.416 144.904 239.779 144.232C240.142 143.549 240.638 143.021 241.267 142.648C241.907 142.275 242.622 142.088 243.411 142.088C244.094 142.088 244.728 142.248 245.315 142.568C245.902 142.877 246.35 143.288 246.659 143.8V139.16H248.131V151H246.659V149.352C246.371 149.875 245.944 150.307 245.379 150.648C244.814 150.979 244.152 151.144 243.395 151.144C242.616 151.144 241.907 150.952 241.267 150.568C240.638 150.184 240.142 149.645 239.779 148.952C239.416 148.259 239.235 147.469 239.235 146.584ZM246.659 146.6C246.659 145.939 246.526 145.363 246.259 144.872C245.992 144.381 245.63 144.008 245.171 143.752C244.723 143.485 244.227 143.352 243.683 143.352C243.139 143.352 242.643 143.48 242.195 143.736C241.747 143.992 241.39 144.365 241.123 144.856C240.856 145.347 240.723 145.923 240.723 146.584C240.723 147.256 240.856 147.843 241.123 148.344C241.39 148.835 241.747 149.213 242.195 149.48C242.643 149.736 243.139 149.864 243.683 149.864C244.227 149.864 244.723 149.736 245.171 149.48C245.63 149.213 245.992 148.835 246.259 148.344C246.526 147.843 246.659 147.261 246.659 146.6ZM258.591 146.28C258.591 146.557 258.575 146.851 258.543 147.16H251.535C251.589 148.024 251.882 148.701 252.415 149.192C252.959 149.672 253.615 149.912 254.383 149.912C255.013 149.912 255.535 149.768 255.951 149.48C256.378 149.181 256.677 148.787 256.847 148.296H258.415C258.181 149.139 257.711 149.827 257.007 150.36C256.303 150.883 255.429 151.144 254.383 151.144C253.551 151.144 252.805 150.957 252.143 150.584C251.493 150.211 250.981 149.683 250.607 149C250.234 148.307 250.047 147.507 250.047 146.6C250.047 145.693 250.229 144.899 250.591 144.216C250.954 143.533 251.461 143.011 252.111 142.648C252.773 142.275 253.53 142.088 254.383 142.088C255.215 142.088 255.951 142.269 256.591 142.632C257.231 142.995 257.722 143.496 258.063 144.136C258.415 144.765 258.591 145.48 258.591 146.28ZM257.087 145.976C257.087 145.421 256.965 144.947 256.719 144.552C256.474 144.147 256.138 143.843 255.711 143.64C255.295 143.427 254.831 143.32 254.319 143.32C253.583 143.32 252.954 143.555 252.431 144.024C251.919 144.493 251.626 145.144 251.551 145.976H257.087ZM261.969 143.656C262.225 143.155 262.588 142.765 263.057 142.488C263.537 142.211 264.119 142.072 264.801 142.072V143.576H264.417C262.785 143.576 261.969 144.461 261.969 146.232V151H260.513V142.232H261.969V143.656ZM276.956 142.184C276.721 141 275.99 140.408 274.764 140.408C273.814 140.408 273.105 140.776 272.636 141.512C272.166 142.237 271.937 143.437 271.948 145.112C272.193 144.557 272.598 144.125 273.164 143.816C273.74 143.496 274.38 143.336 275.084 143.336C276.182 143.336 277.057 143.677 277.708 144.36C278.369 145.043 278.7 145.987 278.7 147.192C278.7 147.917 278.556 148.568 278.268 149.144C277.99 149.72 277.564 150.179 276.988 150.52C276.422 150.861 275.734 151.032 274.924 151.032C273.825 151.032 272.966 150.787 272.348 150.296C271.729 149.805 271.297 149.128 271.052 148.264C270.806 147.4 270.684 146.333 270.684 145.064C270.684 141.149 272.049 139.192 274.78 139.192C275.825 139.192 276.646 139.475 277.244 140.04C277.841 140.605 278.193 141.32 278.3 142.184H276.956ZM274.78 144.568C274.321 144.568 273.889 144.664 273.484 144.856C273.078 145.037 272.748 145.32 272.492 145.704C272.246 146.077 272.124 146.536 272.124 147.08C272.124 147.891 272.358 148.552 272.828 149.064C273.297 149.565 273.969 149.816 274.844 149.816C275.59 149.816 276.182 149.587 276.62 149.128C277.068 148.659 277.292 148.029 277.292 147.24C277.292 146.408 277.078 145.757 276.652 145.288C276.225 144.808 275.601 144.568 274.78 144.568ZM286.488 145.256C286.893 145.32 287.261 145.485 287.592 145.752C287.933 146.019 288.2 146.349 288.392 146.744C288.595 147.139 288.696 147.56 288.696 148.008C288.696 148.573 288.552 149.085 288.264 149.544C287.976 149.992 287.555 150.349 287 150.616C286.456 150.872 285.811 151 285.064 151H280.904V139.848H284.904C285.661 139.848 286.307 139.976 286.84 140.232C287.373 140.477 287.773 140.813 288.04 141.24C288.307 141.667 288.44 142.147 288.44 142.68C288.44 143.341 288.259 143.891 287.896 144.328C287.544 144.755 287.075 145.064 286.488 145.256ZM282.36 144.664H284.808C285.491 144.664 286.019 144.504 286.392 144.184C286.765 143.864 286.952 143.421 286.952 142.856C286.952 142.291 286.765 141.848 286.392 141.528C286.019 141.208 285.48 141.048 284.776 141.048H282.36V144.664ZM284.936 149.8C285.661 149.8 286.227 149.629 286.632 149.288C287.037 148.947 287.24 148.472 287.24 147.864C287.24 147.245 287.027 146.76 286.6 146.408C286.173 146.045 285.603 145.864 284.888 145.864H282.36V149.8H284.936ZM290.092 140.76V139.432H293.1V151H291.628V140.76H290.092ZM297.297 141.032V144.76H301.361V145.96H297.297V149.8H301.841V151H295.841V139.832H301.841V141.032H297.297ZM310.925 140.568L306.477 151H305.005L309.517 140.712H303.34V139.464H310.925V140.568ZM312.507 142.344C312.582 141.363 312.96 140.595 313.643 140.04C314.326 139.485 315.211 139.208 316.299 139.208C317.024 139.208 317.648 139.341 318.171 139.608C318.704 139.864 319.104 140.216 319.371 140.664C319.648 141.112 319.787 141.619 319.787 142.184C319.787 142.845 319.595 143.416 319.211 143.896C318.838 144.376 318.347 144.685 317.739 144.824V144.904C318.432 145.075 318.982 145.411 319.387 145.912C319.792 146.413 319.995 147.069 319.995 147.88C319.995 148.488 319.856 149.037 319.579 149.528C319.302 150.008 318.886 150.387 318.331 150.664C317.776 150.941 317.11 151.08 316.331 151.08C315.2 151.08 314.272 150.787 313.547 150.2C312.822 149.603 312.416 148.76 312.331 147.672H313.739C313.814 148.312 314.075 148.835 314.523 149.24C314.971 149.645 315.568 149.848 316.315 149.848C317.062 149.848 317.627 149.656 318.011 149.272C318.406 148.877 318.603 148.371 318.603 147.752C318.603 146.952 318.336 146.376 317.803 146.024C317.27 145.672 316.464 145.496 315.387 145.496H315.019V144.28H315.403C316.384 144.269 317.126 144.109 317.627 143.8C318.128 143.48 318.379 142.989 318.379 142.328C318.379 141.763 318.192 141.309 317.819 140.968C317.456 140.627 316.934 140.456 316.251 140.456C315.59 140.456 315.056 140.627 314.651 140.968C314.246 141.309 314.006 141.768 313.931 142.344H312.507ZM325.673 139.848C326.889 139.848 327.939 140.077 328.825 140.536C329.721 140.984 330.403 141.629 330.873 142.472C331.353 143.315 331.593 144.307 331.593 145.448C331.593 146.589 331.353 147.581 330.873 148.424C330.403 149.256 329.721 149.896 328.825 150.344C327.939 150.781 326.889 151 325.673 151H322.201V139.848H325.673ZM325.673 149.8C327.113 149.8 328.211 149.421 328.969 148.664C329.726 147.896 330.105 146.824 330.105 145.448C330.105 144.061 329.721 142.979 328.953 142.2C328.195 141.421 327.102 141.032 325.673 141.032H323.657V149.8H325.673ZM340.105 148.52H335.241L334.345 151H332.809L336.841 139.912H338.521L342.537 151H341.001L340.105 148.52ZM339.689 147.336L337.673 141.704L335.657 147.336H339.689ZM352.695 144.52V145.752H344.279V144.52H352.695ZM354.883 145.096C354.883 143.261 355.181 141.832 355.779 140.808C356.376 139.773 357.421 139.256 358.915 139.256C360.397 139.256 361.437 139.773 362.035 140.808C362.632 141.832 362.931 143.261 362.931 145.096C362.931 146.963 362.632 148.413 362.035 149.448C361.437 150.483 360.397 151 358.915 151C357.421 151 356.376 150.483 355.779 149.448C355.181 148.413 354.883 146.963 354.883 145.096ZM361.491 145.096C361.491 144.168 361.427 143.384 361.299 142.744C361.181 142.093 360.931 141.571 360.547 141.176C360.173 140.781 359.629 140.584 358.915 140.584C358.189 140.584 357.635 140.781 357.251 141.176C356.877 141.571 356.627 142.093 356.499 142.744C356.381 143.384 356.323 144.168 356.323 145.096C356.323 146.056 356.381 146.861 356.499 147.512C356.627 148.163 356.877 148.685 357.251 149.08C357.635 149.475 358.189 149.672 358.915 149.672C359.629 149.672 360.173 149.475 360.547 149.08C360.931 148.685 361.181 148.163 361.299 147.512C361.427 146.861 361.491 146.056 361.491 145.096ZM364.93 145.096C364.93 143.261 365.228 141.832 365.826 140.808C366.423 139.773 367.468 139.256 368.962 139.256C370.444 139.256 371.484 139.773 372.082 140.808C372.679 141.832 372.977 143.261 372.977 145.096C372.977 146.963 372.679 148.413 372.082 149.448C371.484 150.483 370.444 151 368.962 151C367.468 151 366.423 150.483 365.826 149.448C365.228 148.413 364.93 146.963 364.93 145.096ZM371.538 145.096C371.538 144.168 371.474 143.384 371.346 142.744C371.228 142.093 370.978 141.571 370.594 141.176C370.22 140.781 369.676 140.584 368.962 140.584C368.236 140.584 367.682 140.781 367.298 141.176C366.924 141.571 366.674 142.093 366.546 142.744C366.428 143.384 366.37 144.168 366.37 145.096C366.37 146.056 366.428 146.861 366.546 147.512C366.674 148.163 366.924 148.685 367.298 149.08C367.682 149.475 368.236 149.672 368.962 149.672C369.676 149.672 370.22 149.475 370.594 149.08C370.978 148.685 371.228 148.163 371.346 147.512C371.474 146.861 371.538 146.056 371.538 145.096ZM374.592 140.76V139.432H377.6V151H376.128V140.76H374.592ZM387.221 140.568L382.773 151H381.301L385.813 140.712H379.637V139.464H387.221V140.568Z" fill="#4B5563"/>
<rect x="13.5" y="11.5" width="399" height="166" rx="15.5" stroke="#E5E9EB" shape-rendering="crispEdges"/>
</g>
<defs>
<filter id="filter0_d_2620_9933" x="0" y="0" width="430" height="197" filterUnits="userSpaceOnUse" color-interpolation-filters="sRGB">
<feFlood flood-opacity="0" result="BackgroundImageFix"/>
<feColorMatrix in="SourceAlpha" type="matrix" values="0 0 0 0 0 0 0 0 0 0 0 0 0 0 0 0 0 0 127 0" result="hardAlpha"/>
<feOffset dx="2" dy="4"/>
<feGaussianBlur stdDeviation="7.5"/>
<feComposite in2="hardAlpha" operator="out"/>
<feColorMatrix type="matrix" values="0 0 0 0 0 0 0 0 0 0 0 0 0 0 0 0 0 0 0.1 0"/>
<feBlend mode="normal" in2="BackgroundImageFix" result="effect1_dropShadow_2620_9933"/>
<feBlend mode="normal" in="SourceGraphic" in2="effect1_dropShadow_2620_9933" result="shape"/>
</filter>
<clipPath id="clip0_2620_9933">
<rect width="360" height="24" fill="white" transform="translate(33 99)"/>
</clipPath>
</defs>
</svg>
