<svg width="1442" height="418" viewBox="0 0 1442 418" fill="none" xmlns="http://www.w3.org/2000/svg">
<path opacity="0.5" d="M682.2 364.008C826.994 373.826 893.679 195.441 1038.46 185.384C1205.39 173.787 1442.18 364.007 1442.18 364.007V425.705H-168.117L-59.9524 0.679688C-59.9524 0.679688 63.4286 384.083 221.314 346.071C313.074 323.98 337.671 233.961 432.107 230.14C545.703 225.543 568.78 356.317 682.2 364.008Z" fill="url(#paint0_linear_370_8571)"/>
<path opacity="0.6" d="M647.317 402.328C792.111 412.146 858.796 233.762 1003.57 223.704C1170.51 212.107 1407.29 402.327 1407.29 402.327V464.025H-203L-94.8353 39C-94.8353 39 28.5457 422.404 186.431 384.392C278.191 362.3 302.788 272.282 397.224 268.46C510.82 263.864 533.897 394.637 647.317 402.328Z" fill="url(#paint1_linear_370_8571)"/>
<path opacity="0.7" d="M773.022 427.787C917.816 437.605 984.501 259.22 1129.28 249.163C1296.21 237.566 1533 427.786 1533 427.786V489.484H-77.2953L-125.262 120.074C-125.262 120.074 154.251 447.862 312.136 409.85C403.896 387.759 428.494 297.74 522.929 293.919C636.525 289.322 659.602 420.096 773.022 427.787Z" fill="url(#paint2_linear_370_8571)"/>
<path d="M1342.5 112.501C1423.45 121.149 1465.76 179.262 1465.76 179.262V425.702H-44.15L-52.4995 138C-52.4995 138 -44.15 325.5 116 325.5C213.313 313.671 252.5 216.948 347.535 283.857C481.813 378.396 557.42 215.737 683.923 209.363C813.974 202.81 887.8 335.59 1018 333.5C1174.63 330.986 1186.74 95.8595 1342.5 112.501Z" fill="url(#paint3_linear_370_8571)" fill-opacity="0.3"/>
<path d="M1393 163.999C1475.3 172.642 1505.69 218.217 1505.69 218.217V464.483H-29.3027V266C-29.3027 266 33.9995 350.549 142.987 337.527C241.917 325.706 253.857 226.374 368.89 322.738C495.956 429.18 582.263 254.665 710.867 248.296C843.08 241.748 932.635 371.588 1065 369.5C1224.24 366.988 1234.65 147.37 1393 163.999Z" fill="url(#paint4_linear_370_8571)" fill-opacity="0.4"/>
<path d="M1359 206.5C1442.75 215.144 1451 243.69 1451 243.69V490H-111V281.356C-111 281.356 0.0219727 370.573 64.321 363.022C164.991 351.199 177.141 251.849 294.198 348.23C423.499 454.692 511.325 280.145 642.192 273.775C776.731 267.226 824.243 395.708 958.936 393.62C1120.97 391.107 1197.87 189.868 1359 206.5Z" fill="url(#paint5_linear_370_8571)" fill-opacity="0.5"/>
<defs>
<linearGradient id="paint0_linear_370_8571" x1="-0.500447" y1="206.232" x2="1442" y2="202.16" gradientUnits="userSpaceOnUse">
<stop stop-color="#BEF8E3" stop-opacity="0.37"/>
<stop offset="0.651042" stop-color="#85C5F1" stop-opacity="0.380704"/>
<stop offset="1" stop-color="#BCBBFF" stop-opacity="0.7"/>
</linearGradient>
<linearGradient id="paint1_linear_370_8571" x1="-35.3833" y1="244.553" x2="1407.11" y2="240.48" gradientUnits="userSpaceOnUse">
<stop stop-color="#BEF8E3" stop-opacity="0.37"/>
<stop offset="0.651042" stop-color="#85C5F1" stop-opacity="0.380704"/>
<stop offset="1" stop-color="#BCBBFF" stop-opacity="0.7"/>
</linearGradient>
<linearGradient id="paint2_linear_370_8571" x1="47.3479" y1="298.73" x2="1532.81" y2="293.761" gradientUnits="userSpaceOnUse">
<stop stop-color="#BEF8E3" stop-opacity="0.37"/>
<stop offset="0.651042" stop-color="#85C5F1" stop-opacity="0.380704"/>
<stop offset="1" stop-color="#BCBBFF" stop-opacity="0.7"/>
</linearGradient>
<linearGradient id="paint3_linear_370_8571" x1="1465.76" y1="119.563" x2="130.433" y2="119.563" gradientUnits="userSpaceOnUse">
<stop stop-color="#7B55FF"/>
<stop offset="0.546875" stop-color="#BD53F2"/>
<stop offset="1" stop-color="#FFC4C2"/>
</linearGradient>
<linearGradient id="paint4_linear_370_8571" x1="1505.69" y1="158.561" x2="148.181" y2="158.561" gradientUnits="userSpaceOnUse">
<stop stop-color="#7B55FF"/>
<stop offset="0.546875" stop-color="#BD53F2"/>
<stop offset="1" stop-color="#FFC4C2"/>
</linearGradient>
<linearGradient id="paint5_linear_370_8571" x1="1451" y1="184.023" x2="69.6059" y2="184.023" gradientUnits="userSpaceOnUse">
<stop stop-color="#7B55FF"/>
<stop offset="0.546875" stop-color="#BD53F2"/>
<stop offset="1" stop-color="#FFC4C2"/>
</linearGradient>
</defs>
</svg>
