<svg width="416" height="342" viewBox="0 0 416 342" fill="none" xmlns="http://www.w3.org/2000/svg">
<g filter="url(#filter0_d_327_10007)">
<rect x="116.5" y="120.5" width="289" height="93" rx="15.5" fill="white"/>
<path d="M145.248 150.288C145.248 150.885 145.104 151.445 144.816 151.968C144.539 152.491 144.096 152.912 143.488 153.232C142.891 153.552 142.133 153.712 141.216 153.712H139.344V158H137.104V146.832H141.216C142.08 146.832 142.816 146.981 143.424 147.28C144.032 147.579 144.485 147.989 144.784 148.512C145.093 149.035 145.248 149.627 145.248 150.288ZM141.12 151.904C141.739 151.904 142.197 151.765 142.496 151.488C142.795 151.2 142.944 150.8 142.944 150.288C142.944 149.2 142.336 148.656 141.12 148.656H139.344V151.904H141.12ZM146.262 153.536C146.262 152.64 146.438 151.845 146.79 151.152C147.153 150.459 147.638 149.925 148.246 149.552C148.865 149.179 149.553 148.992 150.31 148.992C150.972 148.992 151.548 149.125 152.038 149.392C152.54 149.659 152.94 149.995 153.238 150.4V149.136H155.494V158H153.238V156.704C152.95 157.12 152.55 157.467 152.038 157.744C151.537 158.011 150.956 158.144 150.294 158.144C149.548 158.144 148.865 157.952 148.246 157.568C147.638 157.184 147.153 156.645 146.79 155.952C146.438 155.248 146.262 154.443 146.262 153.536ZM153.238 153.568C153.238 153.024 153.132 152.56 152.918 152.176C152.705 151.781 152.417 151.483 152.054 151.28C151.692 151.067 151.302 150.96 150.886 150.96C150.47 150.96 150.086 151.061 149.734 151.264C149.382 151.467 149.094 151.765 148.87 152.16C148.657 152.544 148.55 153.003 148.55 153.536C148.55 154.069 148.657 154.539 148.87 154.944C149.094 155.339 149.382 155.643 149.734 155.856C150.097 156.069 150.481 156.176 150.886 156.176C151.302 156.176 151.692 156.075 152.054 155.872C152.417 155.659 152.705 155.36 152.918 154.976C153.132 154.581 153.238 154.112 153.238 153.568ZM166.162 149.136L160.674 162.192H158.29L160.21 157.776L156.658 149.136H159.17L161.458 155.328L163.778 149.136H166.162ZM178.378 149.008C179.466 149.008 180.34 149.344 181.002 150.016C181.674 150.677 182.01 151.605 182.01 152.8V158H179.77V153.104C179.77 152.411 179.594 151.883 179.242 151.52C178.89 151.147 178.41 150.96 177.802 150.96C177.194 150.96 176.708 151.147 176.346 151.52C175.994 151.883 175.818 152.411 175.818 153.104V158H173.578V153.104C173.578 152.411 173.402 151.883 173.05 151.52C172.698 151.147 172.218 150.96 171.61 150.96C170.991 150.96 170.5 151.147 170.138 151.52C169.786 151.883 169.61 152.411 169.61 153.104V158H167.37V149.136H169.61V150.208C169.898 149.835 170.266 149.541 170.714 149.328C171.172 149.115 171.674 149.008 172.218 149.008C172.911 149.008 173.53 149.157 174.074 149.456C174.618 149.744 175.039 150.16 175.338 150.704C175.626 150.192 176.042 149.781 176.586 149.472C177.14 149.163 177.738 149.008 178.378 149.008ZM192.375 153.376C192.375 153.696 192.354 153.984 192.311 154.24H185.831C185.885 154.88 186.109 155.381 186.503 155.744C186.898 156.107 187.383 156.288 187.959 156.288C188.791 156.288 189.383 155.931 189.735 155.216H192.151C191.895 156.069 191.405 156.773 190.679 157.328C189.954 157.872 189.063 158.144 188.007 158.144C187.154 158.144 186.386 157.957 185.703 157.584C185.031 157.2 184.503 156.661 184.119 155.968C183.746 155.275 183.559 154.475 183.559 153.568C183.559 152.651 183.746 151.845 184.119 151.152C184.493 150.459 185.015 149.925 185.687 149.552C186.359 149.179 187.133 148.992 188.007 148.992C188.85 148.992 189.602 149.173 190.263 149.536C190.935 149.899 191.453 150.416 191.815 151.088C192.189 151.749 192.375 152.512 192.375 153.376ZM190.055 152.736C190.045 152.16 189.837 151.701 189.431 151.36C189.026 151.008 188.53 150.832 187.943 150.832C187.389 150.832 186.919 151.003 186.535 151.344C186.162 151.675 185.933 152.139 185.847 152.736H190.055ZM198.922 149.008C199.978 149.008 200.832 149.344 201.482 150.016C202.133 150.677 202.458 151.605 202.458 152.8V158H200.218V153.104C200.218 152.4 200.042 151.861 199.69 151.488C199.338 151.104 198.858 150.912 198.25 150.912C197.632 150.912 197.141 151.104 196.778 151.488C196.426 151.861 196.25 152.4 196.25 153.104V158H194.01V149.136H196.25V150.24C196.549 149.856 196.928 149.557 197.386 149.344C197.856 149.12 198.368 149.008 198.922 149.008ZM207.196 150.976V155.264C207.196 155.563 207.266 155.781 207.404 155.92C207.554 156.048 207.799 156.112 208.14 156.112H209.18V158H207.772C205.884 158 204.94 157.083 204.94 155.248V150.976H203.884V149.136H204.94V146.944H207.196V149.136H209.18V150.976H207.196ZM220.364 158L217.9 153.648H216.844V158H214.604V146.832H218.796C219.66 146.832 220.396 146.987 221.004 147.296C221.612 147.595 222.065 148.005 222.364 148.528C222.673 149.04 222.828 149.616 222.828 150.256C222.828 150.992 222.615 151.659 222.188 152.256C221.761 152.843 221.127 153.248 220.284 153.472L222.956 158H220.364ZM216.844 151.968H218.716C219.324 151.968 219.777 151.824 220.076 151.536C220.375 151.237 220.524 150.827 220.524 150.304C220.524 149.792 220.375 149.397 220.076 149.12C219.777 148.832 219.324 148.688 218.716 148.688H216.844V151.968ZM233.094 153.376C233.094 153.696 233.073 153.984 233.03 154.24H226.55C226.603 154.88 226.827 155.381 227.222 155.744C227.617 156.107 228.102 156.288 228.678 156.288C229.51 156.288 230.102 155.931 230.454 155.216H232.87C232.614 156.069 232.123 156.773 231.398 157.328C230.673 157.872 229.782 158.144 228.726 158.144C227.873 158.144 227.105 157.957 226.422 157.584C225.75 157.2 225.222 156.661 224.838 155.968C224.465 155.275 224.278 154.475 224.278 153.568C224.278 152.651 224.465 151.845 224.838 151.152C225.211 150.459 225.734 149.925 226.406 149.552C227.078 149.179 227.851 148.992 228.726 148.992C229.569 148.992 230.321 149.173 230.982 149.536C231.654 149.899 232.171 150.416 232.534 151.088C232.907 151.749 233.094 152.512 233.094 153.376ZM230.774 152.736C230.763 152.16 230.555 151.701 230.15 151.36C229.745 151.008 229.249 150.832 228.662 150.832C228.107 150.832 227.638 151.003 227.254 151.344C226.881 151.675 226.651 152.139 226.566 152.736H230.774ZM234.153 153.568C234.153 152.651 234.34 151.851 234.713 151.168C235.086 150.475 235.604 149.941 236.265 149.568C236.926 149.184 237.684 148.992 238.537 148.992C239.636 148.992 240.542 149.269 241.257 149.824C241.982 150.368 242.468 151.136 242.713 152.128H240.297C240.169 151.744 239.95 151.445 239.641 151.232C239.342 151.008 238.969 150.896 238.521 150.896C237.881 150.896 237.374 151.131 237.001 151.6C236.628 152.059 236.441 152.715 236.441 153.568C236.441 154.411 236.628 155.067 237.001 155.536C237.374 155.995 237.881 156.224 238.521 156.224C239.428 156.224 240.02 155.819 240.297 155.008H242.713C242.468 155.968 241.982 156.731 241.257 157.296C240.532 157.861 239.625 158.144 238.537 158.144C237.684 158.144 236.926 157.957 236.265 157.584C235.604 157.2 235.086 156.667 234.713 155.984C234.34 155.291 234.153 154.485 234.153 153.568ZM252.594 153.376C252.594 153.696 252.573 153.984 252.53 154.24H246.05C246.103 154.88 246.327 155.381 246.722 155.744C247.117 156.107 247.602 156.288 248.178 156.288C249.01 156.288 249.602 155.931 249.954 155.216H252.37C252.114 156.069 251.623 156.773 250.898 157.328C250.173 157.872 249.282 158.144 248.226 158.144C247.373 158.144 246.605 157.957 245.922 157.584C245.25 157.2 244.722 156.661 244.338 155.968C243.965 155.275 243.778 154.475 243.778 153.568C243.778 152.651 243.965 151.845 244.338 151.152C244.711 150.459 245.234 149.925 245.906 149.552C246.578 149.179 247.351 148.992 248.226 148.992C249.069 148.992 249.821 149.173 250.482 149.536C251.154 149.899 251.671 150.416 252.034 151.088C252.407 151.749 252.594 152.512 252.594 153.376ZM250.274 152.736C250.263 152.16 250.055 151.701 249.65 151.36C249.245 151.008 248.749 150.832 248.162 150.832C247.607 150.832 247.138 151.003 246.754 151.344C246.381 151.675 246.151 152.139 246.066 152.736H250.274ZM255.365 148.08C254.97 148.08 254.64 147.957 254.373 147.712C254.117 147.456 253.989 147.141 253.989 146.768C253.989 146.395 254.117 146.085 254.373 145.84C254.64 145.584 254.97 145.456 255.365 145.456C255.76 145.456 256.085 145.584 256.341 145.84C256.608 146.085 256.741 146.395 256.741 146.768C256.741 147.141 256.608 147.456 256.341 147.712C256.085 147.957 255.76 148.08 255.365 148.08ZM256.469 149.136V158H254.229V149.136H256.469ZM262.378 155.936L264.618 149.136H267.002L263.722 158H261.002L257.738 149.136H260.138L262.378 155.936ZM276.5 153.376C276.5 153.696 276.479 153.984 276.436 154.24H269.956C270.01 154.88 270.234 155.381 270.628 155.744C271.023 156.107 271.508 156.288 272.084 156.288C272.916 156.288 273.508 155.931 273.86 155.216H276.276C276.02 156.069 275.53 156.773 274.804 157.328C274.079 157.872 273.188 158.144 272.132 158.144C271.279 158.144 270.511 157.957 269.828 157.584C269.156 157.2 268.628 156.661 268.244 155.968C267.871 155.275 267.684 154.475 267.684 153.568C267.684 152.651 267.871 151.845 268.244 151.152C268.618 150.459 269.14 149.925 269.812 149.552C270.484 149.179 271.258 148.992 272.132 148.992C272.975 148.992 273.727 149.173 274.388 149.536C275.06 149.899 275.578 150.416 275.94 151.088C276.314 151.749 276.5 152.512 276.5 153.376ZM274.18 152.736C274.17 152.16 273.962 151.701 273.556 151.36C273.151 151.008 272.655 150.832 272.068 150.832C271.514 150.832 271.044 151.003 270.66 151.344C270.287 151.675 270.058 152.139 269.972 152.736H274.18ZM277.559 153.536C277.559 152.64 277.735 151.845 278.087 151.152C278.45 150.459 278.941 149.925 279.559 149.552C280.178 149.179 280.866 148.992 281.623 148.992C282.199 148.992 282.749 149.12 283.271 149.376C283.794 149.621 284.21 149.952 284.519 150.368V146.16H286.791V158H284.519V156.688C284.242 157.125 283.853 157.477 283.351 157.744C282.85 158.011 282.269 158.144 281.607 158.144C280.861 158.144 280.178 157.952 279.559 157.568C278.941 157.184 278.45 156.645 278.087 155.952C277.735 155.248 277.559 154.443 277.559 153.536ZM284.535 153.568C284.535 153.024 284.429 152.56 284.215 152.176C284.002 151.781 283.714 151.483 283.351 151.28C282.989 151.067 282.599 150.96 282.183 150.96C281.767 150.96 281.383 151.061 281.031 151.264C280.679 151.467 280.391 151.765 280.167 152.16C279.954 152.544 279.847 153.003 279.847 153.536C279.847 154.069 279.954 154.539 280.167 154.944C280.391 155.339 280.679 155.643 281.031 155.856C281.394 156.069 281.778 156.176 282.183 156.176C282.599 156.176 282.989 156.075 283.351 155.872C283.714 155.659 284.002 155.36 284.215 154.976C284.429 154.581 284.535 154.112 284.535 153.568Z" fill="#111012"/>
<path d="M139.008 180.88V187.968C139.008 188.811 139.227 189.445 139.664 189.872C140.112 190.299 140.731 190.512 141.52 190.512C142.32 190.512 142.939 190.299 143.376 189.872C143.824 189.445 144.048 188.811 144.048 187.968V180.88H145.872V187.936C145.872 188.843 145.675 189.611 145.28 190.24C144.885 190.869 144.357 191.339 143.696 191.648C143.035 191.957 142.304 192.112 141.504 192.112C140.704 192.112 139.973 191.957 139.312 191.648C138.661 191.339 138.144 190.869 137.76 190.24C137.376 189.611 137.184 188.843 137.184 187.936V180.88H139.008ZM152.071 192.112C151.324 192.112 150.652 191.984 150.055 191.728C149.458 191.461 148.988 191.088 148.647 190.608C148.306 190.128 148.135 189.568 148.135 188.928H150.087C150.13 189.408 150.316 189.803 150.647 190.112C150.988 190.421 151.463 190.576 152.071 190.576C152.7 190.576 153.191 190.427 153.543 190.128C153.895 189.819 154.071 189.424 154.071 188.944C154.071 188.571 153.959 188.267 153.735 188.032C153.522 187.797 153.25 187.616 152.919 187.488C152.599 187.36 152.151 187.221 151.575 187.072C150.85 186.88 150.258 186.688 149.799 186.496C149.351 186.293 148.967 185.984 148.647 185.568C148.327 185.152 148.167 184.597 148.167 183.904C148.167 183.264 148.327 182.704 148.647 182.224C148.967 181.744 149.415 181.376 149.991 181.12C150.567 180.864 151.234 180.736 151.991 180.736C153.068 180.736 153.948 181.008 154.631 181.552C155.324 182.085 155.708 182.821 155.783 183.76H153.767C153.735 183.355 153.543 183.008 153.191 182.72C152.839 182.432 152.375 182.288 151.799 182.288C151.276 182.288 150.85 182.421 150.519 182.688C150.188 182.955 150.023 183.339 150.023 183.84C150.023 184.181 150.124 184.464 150.327 184.688C150.54 184.901 150.807 185.072 151.127 185.2C151.447 185.328 151.884 185.467 152.439 185.616C153.175 185.819 153.772 186.021 154.231 186.224C154.7 186.427 155.095 186.741 155.415 187.168C155.746 187.584 155.911 188.144 155.911 188.848C155.911 189.413 155.756 189.947 155.447 190.448C155.148 190.949 154.706 191.355 154.119 191.664C153.543 191.963 152.86 192.112 152.071 192.112ZM161.855 180.88C163.039 180.88 164.074 181.109 164.959 181.568C165.855 182.016 166.543 182.667 167.023 183.52C167.514 184.363 167.759 185.349 167.759 186.48C167.759 187.611 167.514 188.592 167.023 189.424C166.543 190.256 165.855 190.896 164.959 191.344C164.074 191.781 163.039 192 161.855 192H158.223V180.88H161.855ZM161.855 190.512C163.156 190.512 164.154 190.16 164.847 189.456C165.54 188.752 165.887 187.76 165.887 186.48C165.887 185.189 165.54 184.181 164.847 183.456C164.154 182.731 163.156 182.368 161.855 182.368H160.047V190.512H161.855ZM169.119 186.416C169.119 185.328 169.37 184.352 169.871 183.488C170.383 182.624 171.071 181.952 171.935 181.472C172.81 180.981 173.764 180.736 174.799 180.736C175.983 180.736 177.034 181.029 177.951 181.616C178.879 182.192 179.551 183.013 179.967 184.08H177.775C177.487 183.493 177.087 183.056 176.575 182.768C176.063 182.48 175.471 182.336 174.799 182.336C174.063 182.336 173.407 182.501 172.831 182.832C172.255 183.163 171.802 183.637 171.471 184.256C171.151 184.875 170.991 185.595 170.991 186.416C170.991 187.237 171.151 187.957 171.471 188.576C171.802 189.195 172.255 189.675 172.831 190.016C173.407 190.347 174.063 190.512 174.799 190.512C175.471 190.512 176.063 190.368 176.575 190.08C177.087 189.792 177.487 189.355 177.775 188.768H179.967C179.551 189.835 178.879 190.656 177.951 191.232C177.034 191.808 175.983 192.096 174.799 192.096C173.754 192.096 172.799 191.856 171.935 191.376C171.071 190.885 170.383 190.208 169.871 189.344C169.37 188.48 169.119 187.504 169.119 186.416Z" fill="#111012"/>
<path d="M336.963 188.944C336.963 189.456 336.835 189.947 336.579 190.416C336.323 190.875 335.945 191.259 335.443 191.568C334.953 191.877 334.361 192.053 333.667 192.096V193.392H332.803V192.096C331.833 192.011 331.043 191.701 330.435 191.168C329.827 190.624 329.518 189.936 329.507 189.104H331.059C331.102 189.552 331.267 189.941 331.555 190.272C331.854 190.603 332.27 190.811 332.803 190.896V186.896C332.089 186.715 331.513 186.528 331.075 186.336C330.638 186.144 330.265 185.845 329.955 185.44C329.646 185.035 329.491 184.491 329.491 183.808C329.491 182.944 329.79 182.229 330.387 181.664C330.995 181.099 331.801 180.784 332.803 180.72V179.392H333.667V180.72C334.574 180.795 335.305 181.088 335.859 181.6C336.414 182.101 336.734 182.757 336.819 183.568H335.267C335.214 183.195 335.049 182.859 334.771 182.56C334.494 182.251 334.126 182.048 333.667 181.952V185.856C334.371 186.037 334.942 186.224 335.379 186.416C335.827 186.597 336.201 186.891 336.499 187.296C336.809 187.701 336.963 188.251 336.963 188.944ZM330.979 183.728C330.979 184.251 331.134 184.651 331.443 184.928C331.753 185.205 332.206 185.435 332.803 185.616V181.92C332.249 181.973 331.806 182.155 331.475 182.464C331.145 182.763 330.979 183.184 330.979 183.728ZM333.667 190.912C334.243 190.848 334.691 190.64 335.011 190.288C335.342 189.936 335.507 189.515 335.507 189.024C335.507 188.501 335.347 188.101 335.027 187.824C334.707 187.536 334.254 187.307 333.667 187.136V190.912ZM345.924 183.184C345.69 182 344.959 181.408 343.732 181.408C342.783 181.408 342.074 181.776 341.604 182.512C341.135 183.237 340.906 184.437 340.916 186.112C341.162 185.557 341.567 185.125 342.132 184.816C342.708 184.496 343.348 184.336 344.052 184.336C345.151 184.336 346.026 184.677 346.676 185.36C347.338 186.043 347.668 186.987 347.668 188.192C347.668 188.917 347.524 189.568 347.236 190.144C346.959 190.72 346.532 191.179 345.956 191.52C345.391 191.861 344.703 192.032 343.892 192.032C342.794 192.032 341.935 191.787 341.316 191.296C340.698 190.805 340.266 190.128 340.02 189.264C339.775 188.4 339.652 187.333 339.652 186.064C339.652 182.149 341.018 180.192 343.748 180.192C344.794 180.192 345.615 180.475 346.212 181.04C346.81 181.605 347.162 182.32 347.268 183.184H345.924ZM343.748 185.568C343.29 185.568 342.858 185.664 342.452 185.856C342.047 186.037 341.716 186.32 341.46 186.704C341.215 187.077 341.092 187.536 341.092 188.08C341.092 188.891 341.327 189.552 341.796 190.064C342.266 190.565 342.938 190.816 343.812 190.816C344.559 190.816 345.151 190.587 345.588 190.128C346.036 189.659 346.26 189.029 346.26 188.24C346.26 187.408 346.047 186.757 345.62 186.288C345.194 185.808 344.57 185.568 343.748 185.568ZM351.745 185.984C351.147 185.749 350.689 185.408 350.369 184.96C350.049 184.512 349.889 183.968 349.889 183.328C349.889 182.752 350.033 182.235 350.321 181.776C350.609 181.307 351.035 180.939 351.601 180.672C352.177 180.395 352.87 180.256 353.681 180.256C354.491 180.256 355.179 180.395 355.745 180.672C356.321 180.939 356.753 181.307 357.041 181.776C357.339 182.235 357.489 182.752 357.489 183.328C357.489 183.947 357.323 184.491 356.993 184.96C356.662 185.419 356.209 185.76 355.633 185.984C356.294 186.187 356.817 186.544 357.201 187.056C357.595 187.557 357.793 188.165 357.793 188.88C357.793 189.573 357.622 190.181 357.281 190.704C356.939 191.216 356.454 191.616 355.825 191.904C355.206 192.181 354.491 192.32 353.681 192.32C352.87 192.32 352.155 192.181 351.537 191.904C350.929 191.616 350.454 191.216 350.113 190.704C349.771 190.181 349.601 189.573 349.601 188.88C349.601 188.165 349.793 187.552 350.177 187.04C350.561 186.528 351.083 186.176 351.745 185.984ZM356.081 183.504C356.081 182.853 355.867 182.352 355.441 182C355.014 181.648 354.427 181.472 353.681 181.472C352.945 181.472 352.363 181.648 351.937 182C351.51 182.352 351.297 182.859 351.297 183.52C351.297 184.117 351.515 184.597 351.953 184.96C352.401 185.323 352.977 185.504 353.681 185.504C354.395 185.504 354.971 185.323 355.409 184.96C355.857 184.587 356.081 184.101 356.081 183.504ZM353.681 186.624C352.891 186.624 352.246 186.811 351.745 187.184C351.243 187.547 350.993 188.096 350.993 188.832C350.993 189.515 351.233 190.064 351.713 190.48C352.203 190.896 352.859 191.104 353.681 191.104C354.502 191.104 355.153 190.896 355.633 190.48C356.113 190.064 356.353 189.515 356.353 188.832C356.353 188.117 356.107 187.573 355.617 187.2C355.126 186.816 354.481 186.624 353.681 186.624ZM359.726 186.096C359.726 184.261 360.025 182.832 360.622 181.808C361.22 180.773 362.265 180.256 363.758 180.256C365.241 180.256 366.281 180.773 366.878 181.808C367.476 182.832 367.774 184.261 367.774 186.096C367.774 187.963 367.476 189.413 366.878 190.448C366.281 191.483 365.241 192 363.758 192C362.265 192 361.22 191.483 360.622 190.448C360.025 189.413 359.726 187.963 359.726 186.096ZM366.334 186.096C366.334 185.168 366.27 184.384 366.142 183.744C366.025 183.093 365.774 182.571 365.39 182.176C365.017 181.781 364.473 181.584 363.758 181.584C363.033 181.584 362.478 181.781 362.094 182.176C361.721 182.571 361.47 183.093 361.342 183.744C361.225 184.384 361.166 185.168 361.166 186.096C361.166 187.056 361.225 187.861 361.342 188.512C361.47 189.163 361.721 189.685 362.094 190.08C362.478 190.475 363.033 190.672 363.758 190.672C364.473 190.672 365.017 190.475 365.39 190.08C365.774 189.685 366.025 189.163 366.142 188.512C366.27 187.861 366.334 187.056 366.334 186.096ZM370.477 192.096C370.2 192.096 369.965 192 369.773 191.808C369.581 191.616 369.485 191.381 369.485 191.104C369.485 190.827 369.581 190.592 369.773 190.4C369.965 190.208 370.2 190.112 370.477 190.112C370.744 190.112 370.968 190.208 371.149 190.4C371.341 190.592 371.437 190.827 371.437 191.104C371.437 191.381 371.341 191.616 371.149 191.808C370.968 192 370.744 192.096 370.477 192.096ZM372.749 181.76V180.432H375.757V192H374.285V181.76H372.749ZM385.378 181.568L380.93 192H379.458L383.97 181.712H377.794V180.464H385.378V181.568Z" fill="#4B5563"/>
<rect x="116.5" y="120.5" width="289" height="93" rx="15.5" stroke="#E5E9EB"/>
<g clip-path="url(#clip0_327_10007)">
<path d="M306.5 145C302.364 145 299 148.364 299 152.5C299 156.636 302.364 160 306.5 160C310.636 160 314 156.636 314 152.5C314 148.364 310.636 145 306.5 145Z" fill="#6DDDBB"/>
<path d="M310.301 150.911L306.239 154.973C306.117 155.095 305.957 155.156 305.797 155.156C305.637 155.156 305.477 155.095 305.355 154.973L303.324 152.942C303.08 152.698 303.08 152.303 303.324 152.058C303.568 151.814 303.963 151.814 304.208 152.058L305.797 153.648L309.418 150.027C309.662 149.783 310.057 149.783 310.301 150.027C310.546 150.271 310.546 150.666 310.301 150.911Z" fill="#FAFAFA"/>
</g>
</g>
<g filter="url(#filter1_d_327_10007)">
<rect x="116" y="6" width="290" height="94" rx="16" fill="white" shape-rendering="crispEdges"/>
<path d="M145.248 36.288C145.248 36.8853 145.104 37.4453 144.816 37.968C144.539 38.4907 144.096 38.912 143.488 39.232C142.891 39.552 142.133 39.712 141.216 39.712H139.344V44H137.104V32.832H141.216C142.08 32.832 142.816 32.9813 143.424 33.28C144.032 33.5787 144.485 33.9893 144.784 34.512C145.093 35.0347 145.248 35.6267 145.248 36.288ZM141.12 37.904C141.739 37.904 142.197 37.7653 142.496 37.488C142.795 37.2 142.944 36.8 142.944 36.288C142.944 35.2 142.336 34.656 141.12 34.656H139.344V37.904H141.12ZM146.262 39.536C146.262 38.64 146.438 37.8453 146.79 37.152C147.153 36.4587 147.638 35.9253 148.246 35.552C148.865 35.1787 149.553 34.992 150.31 34.992C150.972 34.992 151.548 35.1253 152.038 35.392C152.54 35.6587 152.94 35.9947 153.238 36.4V35.136H155.494V44H153.238V42.704C152.95 43.12 152.55 43.4667 152.038 43.744C151.537 44.0107 150.956 44.144 150.294 44.144C149.548 44.144 148.865 43.952 148.246 43.568C147.638 43.184 147.153 42.6453 146.79 41.952C146.438 41.248 146.262 40.4427 146.262 39.536ZM153.238 39.568C153.238 39.024 153.132 38.56 152.918 38.176C152.705 37.7813 152.417 37.4827 152.054 37.28C151.692 37.0667 151.302 36.96 150.886 36.96C150.47 36.96 150.086 37.0613 149.734 37.264C149.382 37.4667 149.094 37.7653 148.87 38.16C148.657 38.544 148.55 39.0027 148.55 39.536C148.55 40.0693 148.657 40.5387 148.87 40.944C149.094 41.3387 149.382 41.6427 149.734 41.856C150.097 42.0693 150.481 42.176 150.886 42.176C151.302 42.176 151.692 42.0747 152.054 41.872C152.417 41.6587 152.705 41.36 152.918 40.976C153.132 40.5813 153.238 40.112 153.238 39.568ZM166.162 35.136L160.674 48.192H158.29L160.21 43.776L156.658 35.136H159.17L161.458 41.328L163.778 35.136H166.162ZM178.378 35.008C179.466 35.008 180.34 35.344 181.002 36.016C181.674 36.6773 182.01 37.6053 182.01 38.8V44H179.77V39.104C179.77 38.4107 179.594 37.8827 179.242 37.52C178.89 37.1467 178.41 36.96 177.802 36.96C177.194 36.96 176.708 37.1467 176.346 37.52C175.994 37.8827 175.818 38.4107 175.818 39.104V44H173.578V39.104C173.578 38.4107 173.402 37.8827 173.05 37.52C172.698 37.1467 172.218 36.96 171.61 36.96C170.991 36.96 170.5 37.1467 170.138 37.52C169.786 37.8827 169.61 38.4107 169.61 39.104V44H167.37V35.136H169.61V36.208C169.898 35.8347 170.266 35.5413 170.714 35.328C171.172 35.1147 171.674 35.008 172.218 35.008C172.911 35.008 173.53 35.1573 174.074 35.456C174.618 35.744 175.039 36.16 175.338 36.704C175.626 36.192 176.042 35.7813 176.586 35.472C177.14 35.1627 177.738 35.008 178.378 35.008ZM192.375 39.376C192.375 39.696 192.354 39.984 192.311 40.24H185.831C185.885 40.88 186.109 41.3813 186.503 41.744C186.898 42.1067 187.383 42.288 187.959 42.288C188.791 42.288 189.383 41.9307 189.735 41.216H192.151C191.895 42.0693 191.405 42.7733 190.679 43.328C189.954 43.872 189.063 44.144 188.007 44.144C187.154 44.144 186.386 43.9573 185.703 43.584C185.031 43.2 184.503 42.6613 184.119 41.968C183.746 41.2747 183.559 40.4747 183.559 39.568C183.559 38.6507 183.746 37.8453 184.119 37.152C184.493 36.4587 185.015 35.9253 185.687 35.552C186.359 35.1787 187.133 34.992 188.007 34.992C188.85 34.992 189.602 35.1733 190.263 35.536C190.935 35.8987 191.453 36.416 191.815 37.088C192.189 37.7493 192.375 38.512 192.375 39.376ZM190.055 38.736C190.045 38.16 189.837 37.7013 189.431 37.36C189.026 37.008 188.53 36.832 187.943 36.832C187.389 36.832 186.919 37.0027 186.535 37.344C186.162 37.6747 185.933 38.1387 185.847 38.736H190.055ZM198.922 35.008C199.978 35.008 200.832 35.344 201.482 36.016C202.133 36.6773 202.458 37.6053 202.458 38.8V44H200.218V39.104C200.218 38.4 200.042 37.8613 199.69 37.488C199.338 37.104 198.858 36.912 198.25 36.912C197.632 36.912 197.141 37.104 196.778 37.488C196.426 37.8613 196.25 38.4 196.25 39.104V44H194.01V35.136H196.25V36.24C196.549 35.856 196.928 35.5573 197.386 35.344C197.856 35.12 198.368 35.008 198.922 35.008ZM207.196 36.976V41.264C207.196 41.5627 207.266 41.7813 207.404 41.92C207.554 42.048 207.799 42.112 208.14 42.112H209.18V44H207.772C205.884 44 204.94 43.0827 204.94 41.248V36.976H203.884V35.136H204.94V32.944H207.196V35.136H209.18V36.976H207.196ZM218.46 44.112C217.681 44.112 216.977 43.9787 216.348 43.712C215.729 43.4453 215.239 43.0613 214.876 42.56C214.513 42.0587 214.327 41.4667 214.316 40.784H216.716C216.748 41.2427 216.908 41.6053 217.196 41.872C217.495 42.1387 217.9 42.272 218.412 42.272C218.935 42.272 219.345 42.1493 219.644 41.904C219.943 41.648 220.092 41.3173 220.092 40.912C220.092 40.5813 219.991 40.3093 219.788 40.096C219.585 39.8827 219.329 39.7173 219.02 39.6C218.721 39.472 218.305 39.3333 217.772 39.184C217.047 38.9707 216.455 38.7627 215.996 38.56C215.548 38.3467 215.159 38.032 214.828 37.616C214.508 37.1893 214.348 36.624 214.348 35.92C214.348 35.2587 214.513 34.6827 214.844 34.192C215.175 33.7013 215.639 33.328 216.236 33.072C216.833 32.8053 217.516 32.672 218.284 32.672C219.436 32.672 220.369 32.9547 221.084 33.52C221.809 34.0747 222.209 34.8533 222.284 35.856H219.82C219.799 35.472 219.633 35.1573 219.324 34.912C219.025 34.656 218.625 34.528 218.124 34.528C217.687 34.528 217.335 34.64 217.068 34.864C216.812 35.088 216.684 35.4133 216.684 35.84C216.684 36.1387 216.78 36.3893 216.972 36.592C217.175 36.784 217.42 36.944 217.708 37.072C218.007 37.1893 218.423 37.328 218.956 37.488C219.681 37.7013 220.273 37.9147 220.732 38.128C221.191 38.3413 221.585 38.6613 221.916 39.088C222.247 39.5147 222.412 40.0747 222.412 40.768C222.412 41.3653 222.257 41.92 221.948 42.432C221.639 42.944 221.185 43.3547 220.588 43.664C219.991 43.9627 219.281 44.112 218.46 44.112ZM232.594 39.376C232.594 39.696 232.573 39.984 232.53 40.24H226.05C226.103 40.88 226.327 41.3813 226.722 41.744C227.117 42.1067 227.602 42.288 228.178 42.288C229.01 42.288 229.602 41.9307 229.954 41.216H232.37C232.114 42.0693 231.623 42.7733 230.898 43.328C230.173 43.872 229.282 44.144 228.226 44.144C227.373 44.144 226.605 43.9573 225.922 43.584C225.25 43.2 224.722 42.6613 224.338 41.968C223.965 41.2747 223.778 40.4747 223.778 39.568C223.778 38.6507 223.965 37.8453 224.338 37.152C224.711 36.4587 225.234 35.9253 225.906 35.552C226.578 35.1787 227.351 34.992 228.226 34.992C229.069 34.992 229.821 35.1733 230.482 35.536C231.154 35.8987 231.671 36.416 232.034 37.088C232.407 37.7493 232.594 38.512 232.594 39.376ZM230.274 38.736C230.263 38.16 230.055 37.7013 229.65 37.36C229.245 37.008 228.749 36.832 228.162 36.832C227.607 36.832 227.138 37.0027 226.754 37.344C226.381 37.6747 226.151 38.1387 226.066 38.736H230.274ZM239.141 35.008C240.197 35.008 241.05 35.344 241.701 36.016C242.352 36.6773 242.677 37.6053 242.677 38.8V44H240.437V39.104C240.437 38.4 240.261 37.8613 239.909 37.488C239.557 37.104 239.077 36.912 238.469 36.912C237.85 36.912 237.36 37.104 236.997 37.488C236.645 37.8613 236.469 38.4 236.469 39.104V44H234.229V35.136H236.469V36.24C236.768 35.856 237.146 35.5573 237.605 35.344C238.074 35.12 238.586 35.008 239.141 35.008ZM247.415 36.976V41.264C247.415 41.5627 247.484 41.7813 247.623 41.92C247.772 42.048 248.018 42.112 248.359 42.112H249.399V44H247.991C246.103 44 245.159 43.0827 245.159 41.248V36.976H244.103V35.136H245.159V32.944H247.415V35.136H249.399V36.976H247.415Z" fill="#111012"/>
<path d="M139.008 66.88V73.968C139.008 74.8107 139.227 75.4453 139.664 75.872C140.112 76.2987 140.731 76.512 141.52 76.512C142.32 76.512 142.939 76.2987 143.376 75.872C143.824 75.4453 144.048 74.8107 144.048 73.968V66.88H145.872V73.936C145.872 74.8427 145.675 75.6107 145.28 76.24C144.885 76.8693 144.357 77.3387 143.696 77.648C143.035 77.9573 142.304 78.112 141.504 78.112C140.704 78.112 139.973 77.9573 139.312 77.648C138.661 77.3387 138.144 76.8693 137.76 76.24C137.376 75.6107 137.184 74.8427 137.184 73.936V66.88H139.008ZM152.071 78.112C151.324 78.112 150.652 77.984 150.055 77.728C149.458 77.4613 148.988 77.088 148.647 76.608C148.306 76.128 148.135 75.568 148.135 74.928H150.087C150.13 75.408 150.316 75.8027 150.647 76.112C150.988 76.4213 151.463 76.576 152.071 76.576C152.7 76.576 153.191 76.4267 153.543 76.128C153.895 75.8187 154.071 75.424 154.071 74.944C154.071 74.5707 153.959 74.2667 153.735 74.032C153.522 73.7973 153.25 73.616 152.919 73.488C152.599 73.36 152.151 73.2213 151.575 73.072C150.85 72.88 150.258 72.688 149.799 72.496C149.351 72.2933 148.967 71.984 148.647 71.568C148.327 71.152 148.167 70.5973 148.167 69.904C148.167 69.264 148.327 68.704 148.647 68.224C148.967 67.744 149.415 67.376 149.991 67.12C150.567 66.864 151.234 66.736 151.991 66.736C153.068 66.736 153.948 67.008 154.631 67.552C155.324 68.0853 155.708 68.8213 155.783 69.76H153.767C153.735 69.3547 153.543 69.008 153.191 68.72C152.839 68.432 152.375 68.288 151.799 68.288C151.276 68.288 150.85 68.4213 150.519 68.688C150.188 68.9547 150.023 69.3387 150.023 69.84C150.023 70.1813 150.124 70.464 150.327 70.688C150.54 70.9013 150.807 71.072 151.127 71.2C151.447 71.328 151.884 71.4667 152.439 71.616C153.175 71.8187 153.772 72.0213 154.231 72.224C154.7 72.4267 155.095 72.7413 155.415 73.168C155.746 73.584 155.911 74.144 155.911 74.848C155.911 75.4133 155.756 75.9467 155.447 76.448C155.148 76.9493 154.706 77.3547 154.119 77.664C153.543 77.9627 152.86 78.112 152.071 78.112ZM161.855 66.88C163.039 66.88 164.074 67.1093 164.959 67.568C165.855 68.016 166.543 68.6667 167.023 69.52C167.514 70.3627 167.759 71.3493 167.759 72.48C167.759 73.6107 167.514 74.592 167.023 75.424C166.543 76.256 165.855 76.896 164.959 77.344C164.074 77.7813 163.039 78 161.855 78H158.223V66.88H161.855ZM161.855 76.512C163.156 76.512 164.154 76.16 164.847 75.456C165.54 74.752 165.887 73.76 165.887 72.48C165.887 71.1893 165.54 70.1813 164.847 69.456C164.154 68.7307 163.156 68.368 161.855 68.368H160.047V76.512H161.855ZM169.119 72.416C169.119 71.328 169.37 70.352 169.871 69.488C170.383 68.624 171.071 67.952 171.935 67.472C172.81 66.9813 173.764 66.736 174.799 66.736C175.983 66.736 177.034 67.0293 177.951 67.616C178.879 68.192 179.551 69.0133 179.967 70.08H177.775C177.487 69.4933 177.087 69.056 176.575 68.768C176.063 68.48 175.471 68.336 174.799 68.336C174.063 68.336 173.407 68.5013 172.831 68.832C172.255 69.1627 171.802 69.6373 171.471 70.256C171.151 70.8747 170.991 71.5947 170.991 72.416C170.991 73.2373 171.151 73.9573 171.471 74.576C171.802 75.1947 172.255 75.6747 172.831 76.016C173.407 76.3467 174.063 76.512 174.799 76.512C175.471 76.512 176.063 76.368 176.575 76.08C177.087 75.792 177.487 75.3547 177.775 74.768H179.967C179.551 75.8347 178.879 76.656 177.951 77.232C177.034 77.808 175.983 78.096 174.799 78.096C173.754 78.096 172.799 77.856 171.935 77.376C171.071 76.8853 170.383 76.208 169.871 75.344C169.37 74.48 169.119 73.504 169.119 72.416Z" fill="#111012"/>
<path d="M336.963 74.944C336.963 75.456 336.835 75.9467 336.579 76.416C336.323 76.8747 335.945 77.2587 335.443 77.568C334.953 77.8773 334.361 78.0533 333.667 78.096V79.392H332.803V78.096C331.833 78.0107 331.043 77.7013 330.435 77.168C329.827 76.624 329.518 75.936 329.507 75.104H331.059C331.102 75.552 331.267 75.9413 331.555 76.272C331.854 76.6027 332.27 76.8107 332.803 76.896V72.896C332.089 72.7147 331.513 72.528 331.075 72.336C330.638 72.144 330.265 71.8453 329.955 71.44C329.646 71.0347 329.491 70.4907 329.491 69.808C329.491 68.944 329.79 68.2293 330.387 67.664C330.995 67.0987 331.801 66.784 332.803 66.72V65.392H333.667V66.72C334.574 66.7947 335.305 67.088 335.859 67.6C336.414 68.1013 336.734 68.7573 336.819 69.568H335.267C335.214 69.1947 335.049 68.8587 334.771 68.56C334.494 68.2507 334.126 68.048 333.667 67.952V71.856C334.371 72.0373 334.942 72.224 335.379 72.416C335.827 72.5973 336.201 72.8907 336.499 73.296C336.809 73.7013 336.963 74.2507 336.963 74.944ZM330.979 69.728C330.979 70.2507 331.134 70.6507 331.443 70.928C331.753 71.2053 332.206 71.4347 332.803 71.616V67.92C332.249 67.9733 331.806 68.1547 331.475 68.464C331.145 68.7627 330.979 69.184 330.979 69.728ZM333.667 76.912C334.243 76.848 334.691 76.64 335.011 76.288C335.342 75.936 335.507 75.5147 335.507 75.024C335.507 74.5013 335.347 74.1013 335.027 73.824C334.707 73.536 334.254 73.3067 333.667 73.136V76.912ZM345.924 69.184C345.69 68 344.959 67.408 343.732 67.408C342.783 67.408 342.074 67.776 341.604 68.512C341.135 69.2373 340.906 70.4373 340.916 72.112C341.162 71.5573 341.567 71.1253 342.132 70.816C342.708 70.496 343.348 70.336 344.052 70.336C345.151 70.336 346.026 70.6773 346.676 71.36C347.338 72.0427 347.668 72.9867 347.668 74.192C347.668 74.9173 347.524 75.568 347.236 76.144C346.959 76.72 346.532 77.1787 345.956 77.52C345.391 77.8613 344.703 78.032 343.892 78.032C342.794 78.032 341.935 77.7867 341.316 77.296C340.698 76.8053 340.266 76.128 340.02 75.264C339.775 74.4 339.652 73.3333 339.652 72.064C339.652 68.1493 341.018 66.192 343.748 66.192C344.794 66.192 345.615 66.4747 346.212 67.04C346.81 67.6053 347.162 68.32 347.268 69.184H345.924ZM343.748 71.568C343.29 71.568 342.858 71.664 342.452 71.856C342.047 72.0373 341.716 72.32 341.46 72.704C341.215 73.0773 341.092 73.536 341.092 74.08C341.092 74.8907 341.327 75.552 341.796 76.064C342.266 76.5653 342.938 76.816 343.812 76.816C344.559 76.816 345.151 76.5867 345.588 76.128C346.036 75.6587 346.26 75.0293 346.26 74.24C346.26 73.408 346.047 72.7573 345.62 72.288C345.194 71.808 344.57 71.568 343.748 71.568ZM351.745 71.984C351.147 71.7493 350.689 71.408 350.369 70.96C350.049 70.512 349.889 69.968 349.889 69.328C349.889 68.752 350.033 68.2347 350.321 67.776C350.609 67.3067 351.035 66.9387 351.601 66.672C352.177 66.3947 352.87 66.256 353.681 66.256C354.491 66.256 355.179 66.3947 355.745 66.672C356.321 66.9387 356.753 67.3067 357.041 67.776C357.339 68.2347 357.489 68.752 357.489 69.328C357.489 69.9467 357.323 70.4907 356.993 70.96C356.662 71.4187 356.209 71.76 355.633 71.984C356.294 72.1867 356.817 72.544 357.201 73.056C357.595 73.5573 357.793 74.1653 357.793 74.88C357.793 75.5733 357.622 76.1813 357.281 76.704C356.939 77.216 356.454 77.616 355.825 77.904C355.206 78.1813 354.491 78.32 353.681 78.32C352.87 78.32 352.155 78.1813 351.537 77.904C350.929 77.616 350.454 77.216 350.113 76.704C349.771 76.1813 349.601 75.5733 349.601 74.88C349.601 74.1653 349.793 73.552 350.177 73.04C350.561 72.528 351.083 72.176 351.745 71.984ZM356.081 69.504C356.081 68.8533 355.867 68.352 355.441 68C355.014 67.648 354.427 67.472 353.681 67.472C352.945 67.472 352.363 67.648 351.937 68C351.51 68.352 351.297 68.8587 351.297 69.52C351.297 70.1173 351.515 70.5973 351.953 70.96C352.401 71.3227 352.977 71.504 353.681 71.504C354.395 71.504 354.971 71.3227 355.409 70.96C355.857 70.5867 356.081 70.1013 356.081 69.504ZM353.681 72.624C352.891 72.624 352.246 72.8107 351.745 73.184C351.243 73.5467 350.993 74.096 350.993 74.832C350.993 75.5147 351.233 76.064 351.713 76.48C352.203 76.896 352.859 77.104 353.681 77.104C354.502 77.104 355.153 76.896 355.633 76.48C356.113 76.064 356.353 75.5147 356.353 74.832C356.353 74.1173 356.107 73.5733 355.617 73.2C355.126 72.816 354.481 72.624 353.681 72.624ZM359.726 72.096C359.726 70.2613 360.025 68.832 360.622 67.808C361.22 66.7733 362.265 66.256 363.758 66.256C365.241 66.256 366.281 66.7733 366.878 67.808C367.476 68.832 367.774 70.2613 367.774 72.096C367.774 73.9627 367.476 75.4133 366.878 76.448C366.281 77.4827 365.241 78 363.758 78C362.265 78 361.22 77.4827 360.622 76.448C360.025 75.4133 359.726 73.9627 359.726 72.096ZM366.334 72.096C366.334 71.168 366.27 70.384 366.142 69.744C366.025 69.0933 365.774 68.5707 365.39 68.176C365.017 67.7813 364.473 67.584 363.758 67.584C363.033 67.584 362.478 67.7813 362.094 68.176C361.721 68.5707 361.47 69.0933 361.342 69.744C361.225 70.384 361.166 71.168 361.166 72.096C361.166 73.056 361.225 73.8613 361.342 74.512C361.47 75.1627 361.721 75.6853 362.094 76.08C362.478 76.4747 363.033 76.672 363.758 76.672C364.473 76.672 365.017 76.4747 365.39 76.08C365.774 75.6853 366.025 75.1627 366.142 74.512C366.27 73.8613 366.334 73.056 366.334 72.096ZM370.477 78.096C370.2 78.096 369.965 78 369.773 77.808C369.581 77.616 369.485 77.3813 369.485 77.104C369.485 76.8267 369.581 76.592 369.773 76.4C369.965 76.208 370.2 76.112 370.477 76.112C370.744 76.112 370.968 76.208 371.149 76.4C371.341 76.592 371.437 76.8267 371.437 77.104C371.437 77.3813 371.341 77.616 371.149 77.808C370.968 78 370.744 78.096 370.477 78.096ZM372.749 67.76V66.432H375.757V78H374.285V67.76H372.749ZM385.378 67.568L380.93 78H379.458L383.97 67.712H377.794V66.464H385.378V67.568Z" fill="#4B5563"/>
<rect x="116.5" y="6.5" width="289" height="93" rx="15.5" stroke="#E5E9EB" shape-rendering="crispEdges"/>
</g>
<g clip-path="url(#clip1_327_10007)">
<path d="M267.5 31C263.364 31 260 34.3643 260 38.5C260 42.6357 263.364 46 267.5 46C271.636 46 275 42.6357 275 38.5C275 34.3643 271.636 31 267.5 31Z" fill="#6DDDBB"/>
<path d="M271.301 36.9108L267.239 40.9732C267.117 41.0951 266.957 41.1564 266.797 41.1564C266.637 41.1564 266.477 41.0951 266.355 40.9732L264.324 38.942C264.08 38.6977 264.08 38.3026 264.324 38.0583C264.568 37.8139 264.963 37.8139 265.208 38.0583L266.797 39.6477L270.418 36.0271C270.662 35.7826 271.057 35.7826 271.301 36.0271C271.546 36.2714 271.546 36.6664 271.301 36.9108Z" fill="#FAFAFA"/>
</g>
<g filter="url(#filter2_d_327_10007)">
<rect x="115.5" y="234.5" width="289" height="93" rx="15.5" fill="white"/>
<path d="M142.44 266.272C143.069 266.389 143.587 266.704 143.992 267.216C144.397 267.728 144.6 268.315 144.6 268.976C144.6 269.573 144.451 270.101 144.152 270.56C143.864 271.008 143.443 271.36 142.888 271.616C142.333 271.872 141.677 272 140.92 272H136.104V260.832H140.712C141.469 260.832 142.12 260.955 142.664 261.2C143.219 261.445 143.635 261.787 143.912 262.224C144.2 262.661 144.344 263.157 144.344 263.712C144.344 264.363 144.168 264.907 143.816 265.344C143.475 265.781 143.016 266.091 142.44 266.272ZM138.344 265.44H140.392C140.925 265.44 141.336 265.323 141.624 265.088C141.912 264.843 142.056 264.496 142.056 264.048C142.056 263.6 141.912 263.253 141.624 263.008C141.336 262.763 140.925 262.64 140.392 262.64H138.344V265.44ZM140.6 270.176C141.144 270.176 141.565 270.048 141.864 269.792C142.173 269.536 142.328 269.173 142.328 268.704C142.328 268.224 142.168 267.851 141.848 267.584C141.528 267.307 141.096 267.168 140.552 267.168H138.344V270.176H140.6ZM145.809 267.536C145.809 266.64 145.985 265.845 146.337 265.152C146.7 264.459 147.185 263.925 147.793 263.552C148.412 263.179 149.1 262.992 149.857 262.992C150.519 262.992 151.095 263.125 151.585 263.392C152.087 263.659 152.487 263.995 152.785 264.4V263.136H155.041V272H152.785V270.704C152.497 271.12 152.097 271.467 151.585 271.744C151.084 272.011 150.503 272.144 149.841 272.144C149.095 272.144 148.412 271.952 147.793 271.568C147.185 271.184 146.7 270.645 146.337 269.952C145.985 269.248 145.809 268.443 145.809 267.536ZM152.785 267.568C152.785 267.024 152.679 266.56 152.465 266.176C152.252 265.781 151.964 265.483 151.601 265.28C151.239 265.067 150.849 264.96 150.433 264.96C150.017 264.96 149.633 265.061 149.281 265.264C148.929 265.467 148.641 265.765 148.417 266.16C148.204 266.544 148.097 267.003 148.097 267.536C148.097 268.069 148.204 268.539 148.417 268.944C148.641 269.339 148.929 269.643 149.281 269.856C149.644 270.069 150.028 270.176 150.433 270.176C150.849 270.176 151.239 270.075 151.601 269.872C151.964 269.659 152.252 269.36 152.465 268.976C152.679 268.581 152.785 268.112 152.785 267.568ZM162.141 263.008C163.197 263.008 164.05 263.344 164.701 264.016C165.352 264.677 165.677 265.605 165.677 266.8V272H163.437V267.104C163.437 266.4 163.261 265.861 162.909 265.488C162.557 265.104 162.077 264.912 161.469 264.912C160.85 264.912 160.36 265.104 159.997 265.488C159.645 265.861 159.469 266.4 159.469 267.104V272H157.229V263.136H159.469V264.24C159.768 263.856 160.146 263.557 160.605 263.344C161.074 263.12 161.586 263.008 162.141 263.008ZM173.055 272L170.047 268.224V272H167.807V260.16H170.047V266.896L173.023 263.136H175.935L172.031 267.584L175.967 272H173.055ZM189.107 264.288C189.107 264.885 188.963 265.445 188.675 265.968C188.398 266.491 187.955 266.912 187.347 267.232C186.75 267.552 185.993 267.712 185.075 267.712H183.203V272H180.963V260.832H185.075C185.939 260.832 186.675 260.981 187.283 261.28C187.891 261.579 188.345 261.989 188.643 262.512C188.953 263.035 189.107 263.627 189.107 264.288ZM184.979 265.904C185.598 265.904 186.057 265.765 186.355 265.488C186.654 265.2 186.803 264.8 186.803 264.288C186.803 263.2 186.195 262.656 184.979 262.656H183.203V265.904H184.979ZM190.122 267.536C190.122 266.64 190.298 265.845 190.65 265.152C191.012 264.459 191.498 263.925 192.106 263.552C192.724 263.179 193.412 262.992 194.17 262.992C194.831 262.992 195.407 263.125 195.898 263.392C196.399 263.659 196.799 263.995 197.098 264.4V263.136H199.354V272H197.098V270.704C196.81 271.12 196.41 271.467 195.898 271.744C195.396 272.011 194.815 272.144 194.154 272.144C193.407 272.144 192.724 271.952 192.106 271.568C191.498 271.184 191.012 270.645 190.65 269.952C190.298 269.248 190.122 268.443 190.122 267.536ZM197.098 267.568C197.098 267.024 196.991 266.56 196.778 266.176C196.564 265.781 196.276 265.483 195.914 265.28C195.551 265.067 195.162 264.96 194.746 264.96C194.33 264.96 193.946 265.061 193.594 265.264C193.242 265.467 192.954 265.765 192.73 266.16C192.516 266.544 192.41 267.003 192.41 267.536C192.41 268.069 192.516 268.539 192.73 268.944C192.954 269.339 193.242 269.643 193.594 269.856C193.956 270.069 194.34 270.176 194.746 270.176C195.162 270.176 195.551 270.075 195.914 269.872C196.276 269.659 196.564 269.36 196.778 268.976C196.991 268.581 197.098 268.112 197.098 267.568ZM210.022 263.136L204.534 276.192H202.15L204.07 271.776L200.518 263.136H203.03L205.318 269.328L207.638 263.136H210.022ZM215.165 272.144C214.312 272.144 213.544 271.957 212.861 271.584C212.178 271.2 211.64 270.661 211.245 269.968C210.861 269.275 210.669 268.475 210.669 267.568C210.669 266.661 210.866 265.861 211.261 265.168C211.666 264.475 212.216 263.941 212.909 263.568C213.602 263.184 214.376 262.992 215.229 262.992C216.082 262.992 216.856 263.184 217.549 263.568C218.242 263.941 218.786 264.475 219.181 265.168C219.586 265.861 219.789 266.661 219.789 267.568C219.789 268.475 219.581 269.275 219.165 269.968C218.76 270.661 218.205 271.2 217.501 271.584C216.808 271.957 216.029 272.144 215.165 272.144ZM215.165 270.192C215.57 270.192 215.949 270.096 216.301 269.904C216.664 269.701 216.952 269.403 217.165 269.008C217.378 268.613 217.485 268.133 217.485 267.568C217.485 266.725 217.261 266.08 216.813 265.632C216.376 265.173 215.837 264.944 215.197 264.944C214.557 264.944 214.018 265.173 213.581 265.632C213.154 266.08 212.941 266.725 212.941 267.568C212.941 268.411 213.149 269.061 213.565 269.52C213.992 269.968 214.525 270.192 215.165 270.192ZM229.8 263.136V272H227.544V270.88C227.256 271.264 226.877 271.568 226.408 271.792C225.949 272.005 225.448 272.112 224.904 272.112C224.211 272.112 223.597 271.968 223.064 271.68C222.531 271.381 222.109 270.949 221.8 270.384C221.501 269.808 221.352 269.125 221.352 268.336V263.136H223.592V268.016C223.592 268.72 223.768 269.264 224.12 269.648C224.472 270.021 224.952 270.208 225.56 270.208C226.179 270.208 226.664 270.021 227.016 269.648C227.368 269.264 227.544 268.72 227.544 268.016V263.136H229.8ZM234.618 264.976V269.264C234.618 269.563 234.688 269.781 234.826 269.92C234.976 270.048 235.221 270.112 235.562 270.112H236.602V272H235.194C233.306 272 232.362 271.083 232.362 269.248V264.976H231.306V263.136H232.362V260.944H234.618V263.136H236.602V264.976H234.618Z" fill="#111012"/>
<path d="M142.904 303.728H138.248L137.448 306H135.544L139.528 294.864H141.64L145.624 306H143.704L142.904 303.728ZM142.392 302.24L140.584 297.072L138.76 302.24H142.392ZM146.908 300.416C146.908 299.328 147.159 298.352 147.66 297.488C148.172 296.624 148.86 295.952 149.724 295.472C150.599 294.981 151.554 294.736 152.588 294.736C153.772 294.736 154.823 295.029 155.74 295.616C156.668 296.192 157.34 297.013 157.756 298.08H155.564C155.276 297.493 154.876 297.056 154.364 296.768C153.852 296.48 153.26 296.336 152.588 296.336C151.852 296.336 151.196 296.501 150.62 296.832C150.044 297.163 149.591 297.637 149.26 298.256C148.94 298.875 148.78 299.595 148.78 300.416C148.78 301.237 148.94 301.957 149.26 302.576C149.591 303.195 150.044 303.675 150.62 304.016C151.196 304.347 151.852 304.512 152.588 304.512C153.26 304.512 153.852 304.368 154.364 304.08C154.876 303.792 155.276 303.355 155.564 302.768H157.756C157.34 303.835 156.668 304.656 155.74 305.232C154.823 305.808 153.772 306.096 152.588 306.096C151.543 306.096 150.588 305.856 149.724 305.376C148.86 304.885 148.172 304.208 147.66 303.344C147.159 302.48 146.908 301.504 146.908 300.416ZM168.931 294.88V306H167.107V301.136H161.875V306H160.051V294.88H161.875V299.648H167.107V294.88H168.931Z" fill="#111012"/>
<path d="M313.604 302.944C313.604 303.456 313.476 303.947 313.22 304.416C312.964 304.875 312.585 305.259 312.084 305.568C311.593 305.877 311.001 306.053 310.308 306.096V307.392H309.444V306.096C308.473 306.011 307.684 305.701 307.076 305.168C306.468 304.624 306.159 303.936 306.148 303.104H307.7C307.743 303.552 307.908 303.941 308.196 304.272C308.495 304.603 308.911 304.811 309.444 304.896V300.896C308.729 300.715 308.153 300.528 307.716 300.336C307.279 300.144 306.905 299.845 306.596 299.44C306.287 299.035 306.132 298.491 306.132 297.808C306.132 296.944 306.431 296.229 307.028 295.664C307.636 295.099 308.441 294.784 309.444 294.72V293.392H310.308V294.72C311.215 294.795 311.945 295.088 312.5 295.6C313.055 296.101 313.375 296.757 313.46 297.568H311.908C311.855 297.195 311.689 296.859 311.412 296.56C311.135 296.251 310.767 296.048 310.308 295.952V299.856C311.012 300.037 311.583 300.224 312.02 300.416C312.468 300.597 312.841 300.891 313.14 301.296C313.449 301.701 313.604 302.251 313.604 302.944ZM307.62 297.728C307.62 298.251 307.775 298.651 308.084 298.928C308.393 299.205 308.847 299.435 309.444 299.616V295.92C308.889 295.973 308.447 296.155 308.116 296.464C307.785 296.763 307.62 297.184 307.62 297.728ZM310.308 304.912C310.884 304.848 311.332 304.64 311.652 304.288C311.983 303.936 312.148 303.515 312.148 303.024C312.148 302.501 311.988 302.101 311.668 301.824C311.348 301.536 310.895 301.307 310.308 301.136V304.912ZM315.941 304.832C317.296 303.744 318.357 302.853 319.125 302.16C319.893 301.456 320.538 300.725 321.061 299.968C321.594 299.2 321.861 298.448 321.861 297.712C321.861 297.019 321.69 296.475 321.349 296.08C321.018 295.675 320.48 295.472 319.733 295.472C319.008 295.472 318.442 295.701 318.037 296.16C317.642 296.608 317.429 297.211 317.397 297.968H315.989C316.032 296.773 316.394 295.851 317.077 295.2C317.76 294.549 318.64 294.224 319.717 294.224C320.816 294.224 321.685 294.528 322.325 295.136C322.976 295.744 323.301 296.581 323.301 297.648C323.301 298.533 323.034 299.397 322.501 300.24C321.978 301.072 321.381 301.808 320.709 302.448C320.037 303.077 319.178 303.813 318.133 304.656H323.637V305.872H315.941V304.832ZM324.968 303.424V302.32L330.584 294.544H332.328V302.16H333.928V303.424H332.328V306H330.888V303.424H324.968ZM330.952 296.064L326.648 302.16H330.952V296.064ZM337.127 303.984L335.335 308.288H334.359L335.527 303.984H337.127ZM340.667 299.984C340.069 299.749 339.611 299.408 339.291 298.96C338.971 298.512 338.811 297.968 338.811 297.328C338.811 296.752 338.955 296.235 339.243 295.776C339.531 295.307 339.957 294.939 340.523 294.672C341.099 294.395 341.792 294.256 342.603 294.256C343.413 294.256 344.101 294.395 344.667 294.672C345.243 294.939 345.675 295.307 345.963 295.776C346.261 296.235 346.411 296.752 346.411 297.328C346.411 297.947 346.245 298.491 345.915 298.96C345.584 299.419 345.131 299.76 344.555 299.984C345.216 300.187 345.739 300.544 346.123 301.056C346.517 301.557 346.715 302.165 346.715 302.88C346.715 303.573 346.544 304.181 346.203 304.704C345.861 305.216 345.376 305.616 344.747 305.904C344.128 306.181 343.413 306.32 342.603 306.32C341.792 306.32 341.077 306.181 340.459 305.904C339.851 305.616 339.376 305.216 339.035 304.704C338.693 304.181 338.523 303.573 338.523 302.88C338.523 302.165 338.715 301.552 339.099 301.04C339.482 300.528 340.005 300.176 340.667 299.984ZM345.003 297.504C345.003 296.853 344.789 296.352 344.363 296C343.936 295.648 343.349 295.472 342.603 295.472C341.867 295.472 341.285 295.648 340.859 296C340.432 296.352 340.219 296.859 340.219 297.52C340.219 298.117 340.437 298.597 340.875 298.96C341.323 299.323 341.899 299.504 342.603 299.504C343.317 299.504 343.893 299.323 344.331 298.96C344.779 298.587 345.003 298.101 345.003 297.504ZM342.603 300.624C341.813 300.624 341.168 300.811 340.667 301.184C340.165 301.547 339.914 302.096 339.914 302.832C339.914 303.515 340.155 304.064 340.635 304.48C341.125 304.896 341.781 305.104 342.603 305.104C343.424 305.104 344.075 304.896 344.555 304.48C345.035 304.064 345.275 303.515 345.275 302.832C345.275 302.117 345.029 301.573 344.539 301.2C344.048 300.816 343.403 300.624 342.603 300.624ZM350.52 302.896C350.627 303.504 350.872 303.973 351.256 304.304C351.651 304.635 352.179 304.8 352.84 304.8C353.726 304.8 354.376 304.453 354.792 303.76C355.219 303.067 355.422 301.899 355.4 300.256C355.176 300.736 354.803 301.115 354.28 301.392C353.758 301.659 353.176 301.792 352.536 301.792C351.822 301.792 351.182 301.648 350.616 301.36C350.062 301.061 349.624 300.629 349.304 300.064C348.984 299.499 348.824 298.816 348.824 298.016C348.824 296.875 349.155 295.957 349.816 295.264C350.478 294.56 351.416 294.208 352.632 294.208C354.126 294.208 355.171 294.693 355.768 295.664C356.376 296.635 356.68 298.08 356.68 300C356.68 301.344 356.558 302.453 356.312 303.328C356.078 304.203 355.672 304.869 355.096 305.328C354.531 305.787 353.752 306.016 352.76 306.016C351.672 306.016 350.824 305.723 350.216 305.136C349.608 304.549 349.262 303.803 349.176 302.896H350.52ZM352.776 300.56C353.491 300.56 354.078 300.341 354.536 299.904C354.995 299.456 355.224 298.853 355.224 298.096C355.224 297.296 355 296.651 354.552 296.16C354.104 295.669 353.475 295.424 352.664 295.424C351.918 295.424 351.32 295.659 350.872 296.128C350.435 296.597 350.216 297.216 350.216 297.984C350.216 298.763 350.435 299.387 350.872 299.856C351.31 300.325 351.944 300.56 352.776 300.56ZM358.726 300.096C358.726 298.261 359.025 296.832 359.622 295.808C360.22 294.773 361.265 294.256 362.758 294.256C364.241 294.256 365.281 294.773 365.878 295.808C366.476 296.832 366.774 298.261 366.774 300.096C366.774 301.963 366.476 303.413 365.878 304.448C365.281 305.483 364.241 306 362.758 306C361.265 306 360.22 305.483 359.622 304.448C359.025 303.413 358.726 301.963 358.726 300.096ZM365.334 300.096C365.334 299.168 365.27 298.384 365.142 297.744C365.025 297.093 364.774 296.571 364.39 296.176C364.017 295.781 363.473 295.584 362.758 295.584C362.033 295.584 361.478 295.781 361.094 296.176C360.721 296.571 360.47 297.093 360.342 297.744C360.225 298.384 360.166 299.168 360.166 300.096C360.166 301.056 360.225 301.861 360.342 302.512C360.47 303.163 360.721 303.685 361.094 304.08C361.478 304.475 362.033 304.672 362.758 304.672C363.473 304.672 364.017 304.475 364.39 304.08C364.774 303.685 365.025 303.163 365.142 302.512C365.27 301.861 365.334 301.056 365.334 300.096ZM369.477 306.096C369.2 306.096 368.965 306 368.773 305.808C368.581 305.616 368.485 305.381 368.485 305.104C368.485 304.827 368.581 304.592 368.773 304.4C368.965 304.208 369.2 304.112 369.477 304.112C369.744 304.112 369.968 304.208 370.149 304.4C370.341 304.592 370.437 304.827 370.437 305.104C370.437 305.381 370.341 305.616 370.149 305.808C369.968 306 369.744 306.096 369.477 306.096ZM371.749 295.76V294.432H374.757V306H373.285V295.76H371.749ZM384.378 295.568L379.93 306H378.458L382.97 295.712H376.794V294.464H384.378V295.568Z" fill="#4B5563"/>
<rect x="115.5" y="234.5" width="289" height="93" rx="15.5" stroke="#E5E9EB"/>
<g clip-path="url(#clip2_327_10007)">
<path d="M257.5 259C253.364 259 250 262.364 250 266.5C250 270.636 253.364 274 257.5 274C261.636 274 265 270.636 265 266.5C265 262.364 261.636 259 257.5 259Z" fill="#6DDDBB"/>
<path d="M261.301 264.911L257.239 268.973C257.117 269.095 256.957 269.156 256.797 269.156C256.637 269.156 256.477 269.095 256.355 268.973L254.324 266.942C254.08 266.698 254.08 266.303 254.324 266.058C254.568 265.814 254.963 265.814 255.208 266.058L256.797 267.648L260.418 264.027C260.662 263.783 261.057 263.783 261.301 264.027C261.546 264.271 261.546 264.666 261.301 264.911Z" fill="#FAFAFA"/>
</g>
</g>
<path d="M114 55.5H59V168M59 168H114M59 168V279.5H114M59 168H0" stroke="#E6E6E6" stroke-dasharray="2 2"/>
<defs>
<filter id="filter0_d_327_10007" x="106" y="114" width="310" height="114" filterUnits="userSpaceOnUse" color-interpolation-filters="sRGB">
<feFlood flood-opacity="0" result="BackgroundImageFix"/>
<feColorMatrix in="SourceAlpha" type="matrix" values="0 0 0 0 0 0 0 0 0 0 0 0 0 0 0 0 0 0 127 0" result="hardAlpha"/>
<feOffset dy="4"/>
<feGaussianBlur stdDeviation="5"/>
<feComposite in2="hardAlpha" operator="out"/>
<feColorMatrix type="matrix" values="0 0 0 0 0 0 0 0 0 0 0 0 0 0 0 0 0 0 0.1 0"/>
<feBlend mode="normal" in2="BackgroundImageFix" result="effect1_dropShadow_327_10007"/>
<feBlend mode="normal" in="SourceGraphic" in2="effect1_dropShadow_327_10007" result="shape"/>
</filter>
<filter id="filter1_d_327_10007" x="106" y="0" width="310" height="114" filterUnits="userSpaceOnUse" color-interpolation-filters="sRGB">
<feFlood flood-opacity="0" result="BackgroundImageFix"/>
<feColorMatrix in="SourceAlpha" type="matrix" values="0 0 0 0 0 0 0 0 0 0 0 0 0 0 0 0 0 0 127 0" result="hardAlpha"/>
<feOffset dy="4"/>
<feGaussianBlur stdDeviation="5"/>
<feComposite in2="hardAlpha" operator="out"/>
<feColorMatrix type="matrix" values="0 0 0 0 0 0 0 0 0 0 0 0 0 0 0 0 0 0 0.1 0"/>
<feBlend mode="normal" in2="BackgroundImageFix" result="effect1_dropShadow_327_10007"/>
<feBlend mode="normal" in="SourceGraphic" in2="effect1_dropShadow_327_10007" result="shape"/>
</filter>
<filter id="filter2_d_327_10007" x="105" y="228" width="310" height="114" filterUnits="userSpaceOnUse" color-interpolation-filters="sRGB">
<feFlood flood-opacity="0" result="BackgroundImageFix"/>
<feColorMatrix in="SourceAlpha" type="matrix" values="0 0 0 0 0 0 0 0 0 0 0 0 0 0 0 0 0 0 127 0" result="hardAlpha"/>
<feOffset dy="4"/>
<feGaussianBlur stdDeviation="5"/>
<feComposite in2="hardAlpha" operator="out"/>
<feColorMatrix type="matrix" values="0 0 0 0 0 0 0 0 0 0 0 0 0 0 0 0 0 0 0.1 0"/>
<feBlend mode="normal" in2="BackgroundImageFix" result="effect1_dropShadow_327_10007"/>
<feBlend mode="normal" in="SourceGraphic" in2="effect1_dropShadow_327_10007" result="shape"/>
</filter>
<clipPath id="clip0_327_10007">
<rect width="15" height="15" fill="white" transform="translate(299 145)"/>
</clipPath>
<clipPath id="clip1_327_10007">
<rect width="15" height="15" fill="white" transform="translate(260 31)"/>
</clipPath>
<clipPath id="clip2_327_10007">
<rect width="15" height="15" fill="white" transform="translate(250 259)"/>
</clipPath>
</defs>
</svg>
