<svg width="338" height="210" viewBox="0 0 338 210" fill="none" xmlns="http://www.w3.org/2000/svg">
<g filter="url(#filter0_d_2997_16974)">
<rect x="78" y="85" width="247" height="36" rx="10" fill="white"/>
<rect x="78.5" y="85.5" width="246" height="35" rx="9.5" stroke="url(#paint0_linear_2997_16974)"/>
</g>
<path d="M135.621 100.314C135.677 99.446 136.008 98.7693 136.615 98.284C137.231 97.7987 138.015 97.556 138.967 97.556C139.62 97.556 140.185 97.6727 140.661 97.906C141.137 98.1393 141.496 98.4567 141.739 98.858C141.981 99.2593 142.103 99.712 142.103 100.216C142.103 100.795 141.949 101.289 141.641 101.7C141.333 102.111 140.964 102.386 140.535 102.526V102.582C141.085 102.75 141.515 103.058 141.823 103.506C142.131 103.945 142.285 104.509 142.285 105.2C142.285 105.751 142.159 106.241 141.907 106.67C141.655 107.099 141.281 107.44 140.787 107.692C140.292 107.935 139.699 108.056 139.009 108.056C138.001 108.056 137.17 107.799 136.517 107.286C135.873 106.763 135.527 106.017 135.481 105.046H137.021C137.058 105.541 137.249 105.947 137.595 106.264C137.94 106.572 138.407 106.726 138.995 106.726C139.564 106.726 140.003 106.572 140.311 106.264C140.619 105.947 140.773 105.541 140.773 105.046C140.773 104.393 140.563 103.931 140.143 103.66C139.732 103.38 139.097 103.24 138.239 103.24H137.875V101.924H138.253C139.009 101.915 139.583 101.789 139.975 101.546C140.376 101.303 140.577 100.921 140.577 100.398C140.577 99.95 140.432 99.5953 140.143 99.334C139.853 99.0633 139.443 98.928 138.911 98.928C138.388 98.928 137.982 99.0633 137.693 99.334C137.403 99.5953 137.231 99.922 137.175 100.314H135.621ZM147.349 98.27C148.385 98.27 149.29 98.4707 150.065 98.872C150.849 99.264 151.451 99.8333 151.871 100.58C152.3 101.317 152.515 102.181 152.515 103.17C152.515 104.159 152.3 105.018 151.871 105.746C151.451 106.474 150.849 107.034 150.065 107.426C149.29 107.809 148.385 108 147.349 108H144.171V98.27H147.349ZM147.349 106.698C148.488 106.698 149.36 106.39 149.967 105.774C150.574 105.158 150.877 104.29 150.877 103.17C150.877 102.041 150.574 101.159 149.967 100.524C149.36 99.8893 148.488 99.572 147.349 99.572H145.767V106.698H147.349Z" fill="#7D65FD"/>
<path d="M160.912 98.27C161.948 98.27 162.853 98.4707 163.628 98.872C164.412 99.264 165.014 99.8333 165.434 100.58C165.863 101.317 166.078 102.181 166.078 103.17C166.078 104.159 165.863 105.018 165.434 105.746C165.014 106.474 164.412 107.034 163.628 107.426C162.853 107.809 161.948 108 160.912 108H157.734V98.27H160.912ZM160.912 106.698C162.05 106.698 162.923 106.39 163.53 105.774C164.136 105.158 164.44 104.29 164.44 103.17C164.44 102.041 164.136 101.159 163.53 100.524C162.923 99.8893 162.05 99.572 160.912 99.572H159.33V106.698H160.912ZM174.603 100.286L169.871 111.626H168.219L169.787 107.874L166.749 100.286H168.527L170.697 106.166L172.951 100.286H174.603ZM179.7 100.16C180.306 100.16 180.848 100.286 181.324 100.538C181.809 100.79 182.187 101.163 182.458 101.658C182.728 102.153 182.864 102.75 182.864 103.45V108H181.282V103.688C181.282 102.997 181.109 102.47 180.764 102.106C180.418 101.733 179.947 101.546 179.35 101.546C178.752 101.546 178.276 101.733 177.922 102.106C177.576 102.47 177.404 102.997 177.404 103.688V108H175.808V100.286H177.404V101.168C177.665 100.851 177.996 100.603 178.398 100.426C178.808 100.249 179.242 100.16 179.7 100.16ZM184.368 104.108C184.368 103.333 184.526 102.647 184.844 102.05C185.17 101.453 185.609 100.991 186.16 100.664C186.72 100.328 187.336 100.16 188.008 100.16C188.614 100.16 189.142 100.281 189.59 100.524C190.047 100.757 190.411 101.051 190.682 101.406V100.286H192.292V108H190.682V106.852C190.411 107.216 190.042 107.519 189.576 107.762C189.109 108.005 188.577 108.126 187.98 108.126C187.317 108.126 186.71 107.958 186.16 107.622C185.609 107.277 185.17 106.801 184.844 106.194C184.526 105.578 184.368 104.883 184.368 104.108ZM190.682 104.136C190.682 103.604 190.57 103.142 190.346 102.75C190.131 102.358 189.846 102.059 189.492 101.854C189.137 101.649 188.754 101.546 188.344 101.546C187.933 101.546 187.55 101.649 187.196 101.854C186.841 102.05 186.552 102.344 186.328 102.736C186.113 103.119 186.006 103.576 186.006 104.108C186.006 104.64 186.113 105.107 186.328 105.508C186.552 105.909 186.841 106.217 187.196 106.432C187.56 106.637 187.942 106.74 188.344 106.74C188.754 106.74 189.137 106.637 189.492 106.432C189.846 106.227 190.131 105.928 190.346 105.536C190.57 105.135 190.682 104.668 190.682 104.136ZM203.726 100.16C204.333 100.16 204.874 100.286 205.35 100.538C205.835 100.79 206.213 101.163 206.484 101.658C206.764 102.153 206.904 102.75 206.904 103.45V108H205.322V103.688C205.322 102.997 205.149 102.47 204.804 102.106C204.459 101.733 203.987 101.546 203.39 101.546C202.793 101.546 202.317 101.733 201.962 102.106C201.617 102.47 201.444 102.997 201.444 103.688V108H199.862V103.688C199.862 102.997 199.689 102.47 199.344 102.106C198.999 101.733 198.527 101.546 197.93 101.546C197.333 101.546 196.857 101.733 196.502 102.106C196.157 102.47 195.984 102.997 195.984 103.688V108H194.388V100.286H195.984V101.168C196.245 100.851 196.577 100.603 196.978 100.426C197.379 100.249 197.809 100.16 198.266 100.16C198.882 100.16 199.433 100.291 199.918 100.552C200.403 100.813 200.777 101.191 201.038 101.686C201.271 101.219 201.635 100.851 202.13 100.58C202.625 100.3 203.157 100.16 203.726 100.16ZM209.747 99.264C209.457 99.264 209.215 99.166 209.019 98.97C208.823 98.774 208.725 98.5313 208.725 98.242C208.725 97.9527 208.823 97.71 209.019 97.514C209.215 97.318 209.457 97.22 209.747 97.22C210.027 97.22 210.265 97.318 210.461 97.514C210.657 97.71 210.755 97.9527 210.755 98.242C210.755 98.5313 210.657 98.774 210.461 98.97C210.265 99.166 210.027 99.264 209.747 99.264ZM210.531 100.286V108H208.935V100.286H210.531ZM212.094 104.136C212.094 103.343 212.253 102.647 212.57 102.05C212.897 101.443 213.345 100.977 213.914 100.65C214.484 100.323 215.137 100.16 215.874 100.16C216.808 100.16 217.578 100.384 218.184 100.832C218.8 101.271 219.216 101.901 219.43 102.722H217.708C217.568 102.339 217.344 102.041 217.036 101.826C216.728 101.611 216.341 101.504 215.874 101.504C215.221 101.504 214.698 101.737 214.306 102.204C213.924 102.661 213.732 103.305 213.732 104.136C213.732 104.967 213.924 105.615 214.306 106.082C214.698 106.549 215.221 106.782 215.874 106.782C216.798 106.782 217.41 106.376 217.708 105.564H219.43C219.206 106.348 218.786 106.973 218.17 107.44C217.554 107.897 216.789 108.126 215.874 108.126C215.137 108.126 214.484 107.963 213.914 107.636C213.345 107.3 212.897 106.833 212.57 106.236C212.253 105.629 212.094 104.929 212.094 104.136ZM227.863 108.098C227.21 108.098 226.622 107.986 226.099 107.762C225.577 107.529 225.166 107.202 224.867 106.782C224.569 106.362 224.419 105.872 224.419 105.312H226.127C226.165 105.732 226.328 106.077 226.617 106.348C226.916 106.619 227.331 106.754 227.863 106.754C228.414 106.754 228.843 106.623 229.151 106.362C229.459 106.091 229.613 105.746 229.613 105.326C229.613 104.999 229.515 104.733 229.319 104.528C229.133 104.323 228.895 104.164 228.605 104.052C228.325 103.94 227.933 103.819 227.429 103.688C226.795 103.52 226.277 103.352 225.875 103.184C225.483 103.007 225.147 102.736 224.867 102.372C224.587 102.008 224.447 101.523 224.447 100.916C224.447 100.356 224.587 99.866 224.867 99.446C225.147 99.026 225.539 98.704 226.043 98.48C226.547 98.256 227.131 98.144 227.793 98.144C228.736 98.144 229.506 98.382 230.103 98.858C230.71 99.3247 231.046 99.9687 231.111 100.79H229.347C229.319 100.435 229.151 100.132 228.843 99.88C228.535 99.628 228.129 99.502 227.625 99.502C227.168 99.502 226.795 99.6187 226.505 99.852C226.216 100.085 226.071 100.421 226.071 100.86C226.071 101.159 226.16 101.406 226.337 101.602C226.524 101.789 226.757 101.938 227.037 102.05C227.317 102.162 227.7 102.283 228.185 102.414C228.829 102.591 229.352 102.769 229.753 102.946C230.164 103.123 230.509 103.399 230.789 103.772C231.079 104.136 231.223 104.626 231.223 105.242C231.223 105.737 231.088 106.203 230.817 106.642C230.556 107.081 230.169 107.435 229.655 107.706C229.151 107.967 228.554 108.098 227.863 108.098ZM232.575 104.108C232.575 103.333 232.733 102.647 233.051 102.05C233.377 101.453 233.816 100.991 234.367 100.664C234.927 100.328 235.543 100.16 236.215 100.16C236.821 100.16 237.349 100.281 237.797 100.524C238.254 100.757 238.618 101.051 238.889 101.406V100.286H240.499V108H238.889V106.852C238.618 107.216 238.249 107.519 237.783 107.762C237.316 108.005 236.784 108.126 236.187 108.126C235.524 108.126 234.917 107.958 234.367 107.622C233.816 107.277 233.377 106.801 233.051 106.194C232.733 105.578 232.575 104.883 232.575 104.108ZM238.889 104.136C238.889 103.604 238.777 103.142 238.553 102.75C238.338 102.358 238.053 102.059 237.699 101.854C237.344 101.649 236.961 101.546 236.551 101.546C236.14 101.546 235.757 101.649 235.403 101.854C235.048 102.05 234.759 102.344 234.535 102.736C234.32 103.119 234.213 103.576 234.213 104.108C234.213 104.64 234.32 105.107 234.535 105.508C234.759 105.909 235.048 106.217 235.403 106.432C235.767 106.637 236.149 106.74 236.551 106.74C236.961 106.74 237.344 106.637 237.699 106.432C238.053 106.227 238.338 105.928 238.553 105.536C238.777 105.135 238.889 104.668 238.889 104.136ZM245.829 101.588H244.401V108H242.791V101.588H241.881V100.286H242.791V99.74C242.791 98.8533 243.024 98.2093 243.491 97.808C243.967 97.3973 244.709 97.192 245.717 97.192V98.522C245.232 98.522 244.891 98.6153 244.695 98.802C244.499 98.9793 244.401 99.292 244.401 99.74V100.286H245.829V101.588ZM254.313 103.954C254.313 104.243 254.295 104.505 254.257 104.738H248.363C248.41 105.354 248.639 105.849 249.049 106.222C249.46 106.595 249.964 106.782 250.561 106.782C251.42 106.782 252.027 106.423 252.381 105.704H254.103C253.87 106.413 253.445 106.997 252.829 107.454C252.223 107.902 251.467 108.126 250.561 108.126C249.824 108.126 249.161 107.963 248.573 107.636C247.995 107.3 247.537 106.833 247.201 106.236C246.875 105.629 246.711 104.929 246.711 104.136C246.711 103.343 246.87 102.647 247.187 102.05C247.514 101.443 247.967 100.977 248.545 100.65C249.133 100.323 249.805 100.16 250.561 100.16C251.289 100.16 251.938 100.319 252.507 100.636C253.077 100.953 253.52 101.401 253.837 101.98C254.155 102.549 254.313 103.207 254.313 103.954ZM252.647 103.45C252.638 102.862 252.428 102.391 252.017 102.036C251.607 101.681 251.098 101.504 250.491 101.504C249.941 101.504 249.469 101.681 249.077 102.036C248.685 102.381 248.452 102.853 248.377 103.45H252.647ZM257.746 101.588V105.858C257.746 106.147 257.811 106.357 257.942 106.488C258.082 106.609 258.315 106.67 258.642 106.67H259.622V108H258.362C257.643 108 257.093 107.832 256.71 107.496C256.327 107.16 256.136 106.614 256.136 105.858V101.588H255.226V100.286H256.136V98.368H257.746V100.286H259.622V101.588H257.746ZM268.037 100.286L263.305 111.626H261.653L263.221 107.874L260.183 100.286H261.961L264.131 106.166L266.385 100.286H268.037Z" fill="#465364"/>
<g filter="url(#filter1_d_2997_16974)">
<rect x="78" y="161" width="247" height="36" rx="10" fill="white"/>
<rect x="78.5" y="161.5" width="246" height="35" rx="9.5" stroke="url(#paint1_linear_2997_16974)"/>
</g>
<path d="M124.546 174.27V184H122.95V177.336L119.982 184H118.876L115.894 177.336V184H114.298V174.27H116.02L119.436 181.9L122.838 174.27H124.546ZM128.24 182.712H131.53V184H126.644V174.27H128.24V182.712Z" fill="#7D65FD"/>
<path d="M135.969 179.114C135.969 178.162 136.189 177.308 136.627 176.552C137.075 175.796 137.677 175.208 138.433 174.788C139.199 174.359 140.034 174.144 140.939 174.144C141.975 174.144 142.895 174.401 143.697 174.914C144.509 175.418 145.097 176.137 145.461 177.07H143.543C143.291 176.557 142.941 176.174 142.493 175.922C142.045 175.67 141.527 175.544 140.939 175.544C140.295 175.544 139.721 175.689 139.217 175.978C138.713 176.267 138.317 176.683 138.027 177.224C137.747 177.765 137.607 178.395 137.607 179.114C137.607 179.833 137.747 180.463 138.027 181.004C138.317 181.545 138.713 181.965 139.217 182.264C139.721 182.553 140.295 182.698 140.939 182.698C141.527 182.698 142.045 182.572 142.493 182.32C142.941 182.068 143.291 181.685 143.543 181.172H145.461C145.097 182.105 144.509 182.824 143.697 183.328C142.895 183.832 141.975 184.084 140.939 184.084C140.025 184.084 139.189 183.874 138.433 183.454C137.677 183.025 137.075 182.432 136.627 181.676C136.189 180.92 135.969 180.066 135.969 179.114ZM154.315 176.286V184H152.719V183.09C152.467 183.407 152.136 183.659 151.725 183.846C151.324 184.023 150.895 184.112 150.437 184.112C149.831 184.112 149.285 183.986 148.799 183.734C148.323 183.482 147.945 183.109 147.665 182.614C147.395 182.119 147.259 181.522 147.259 180.822V176.286H148.841V180.584C148.841 181.275 149.014 181.807 149.359 182.18C149.705 182.544 150.176 182.726 150.773 182.726C151.371 182.726 151.842 182.544 152.187 182.18C152.542 181.807 152.719 181.275 152.719 180.584V176.286H154.315ZM159.221 184.126C158.614 184.126 158.068 184.019 157.583 183.804C157.107 183.58 156.729 183.281 156.449 182.908C156.169 182.525 156.02 182.101 156.001 181.634H157.653C157.681 181.961 157.835 182.236 158.115 182.46C158.404 182.675 158.764 182.782 159.193 182.782C159.641 182.782 159.986 182.698 160.229 182.53C160.481 182.353 160.607 182.129 160.607 181.858C160.607 181.569 160.467 181.354 160.187 181.214C159.916 181.074 159.482 180.92 158.885 180.752C158.306 180.593 157.835 180.439 157.471 180.29C157.107 180.141 156.79 179.912 156.519 179.604C156.258 179.296 156.127 178.89 156.127 178.386C156.127 177.975 156.248 177.602 156.491 177.266C156.734 176.921 157.079 176.65 157.527 176.454C157.984 176.258 158.507 176.16 159.095 176.16C159.972 176.16 160.677 176.384 161.209 176.832C161.75 177.271 162.04 177.873 162.077 178.638H160.481C160.453 178.293 160.313 178.017 160.061 177.812C159.809 177.607 159.468 177.504 159.039 177.504C158.619 177.504 158.297 177.583 158.073 177.742C157.849 177.901 157.737 178.111 157.737 178.372C157.737 178.577 157.812 178.75 157.961 178.89C158.11 179.03 158.292 179.142 158.507 179.226C158.722 179.301 159.039 179.399 159.459 179.52C160.019 179.669 160.476 179.823 160.831 179.982C161.195 180.131 161.508 180.355 161.769 180.654C162.03 180.953 162.166 181.349 162.175 181.844C162.175 182.283 162.054 182.675 161.811 183.02C161.568 183.365 161.223 183.636 160.775 183.832C160.336 184.028 159.818 184.126 159.221 184.126ZM165.762 177.588V181.858C165.762 182.147 165.827 182.357 165.958 182.488C166.098 182.609 166.331 182.67 166.658 182.67H167.638V184H166.378C165.659 184 165.108 183.832 164.726 183.496C164.343 183.16 164.152 182.614 164.152 181.858V177.588H163.242V176.286H164.152V174.368H165.762V176.286H167.638V177.588H165.762ZM172.455 184.126C171.727 184.126 171.069 183.963 170.481 183.636C169.893 183.3 169.431 182.833 169.095 182.236C168.759 181.629 168.591 180.929 168.591 180.136C168.591 179.352 168.763 178.657 169.109 178.05C169.454 177.443 169.925 176.977 170.523 176.65C171.12 176.323 171.787 176.16 172.525 176.16C173.262 176.16 173.929 176.323 174.527 176.65C175.124 176.977 175.595 177.443 175.941 178.05C176.286 178.657 176.459 179.352 176.459 180.136C176.459 180.92 176.281 181.615 175.927 182.222C175.572 182.829 175.087 183.3 174.471 183.636C173.864 183.963 173.192 184.126 172.455 184.126ZM172.455 182.74C172.865 182.74 173.248 182.642 173.603 182.446C173.967 182.25 174.261 181.956 174.485 181.564C174.709 181.172 174.821 180.696 174.821 180.136C174.821 179.576 174.713 179.105 174.499 178.722C174.284 178.33 173.999 178.036 173.645 177.84C173.29 177.644 172.907 177.546 172.497 177.546C172.086 177.546 171.703 177.644 171.349 177.84C171.003 178.036 170.728 178.33 170.523 178.722C170.317 179.105 170.215 179.576 170.215 180.136C170.215 180.967 170.425 181.611 170.845 182.068C171.274 182.516 171.811 182.74 172.455 182.74ZM187.374 176.16C187.981 176.16 188.522 176.286 188.998 176.538C189.484 176.79 189.862 177.163 190.132 177.658C190.412 178.153 190.552 178.75 190.552 179.45V184H188.97V179.688C188.97 178.997 188.798 178.47 188.452 178.106C188.107 177.733 187.636 177.546 187.038 177.546C186.441 177.546 185.965 177.733 185.61 178.106C185.265 178.47 185.092 178.997 185.092 179.688V184H183.51V179.688C183.51 178.997 183.338 178.47 182.992 178.106C182.647 177.733 182.176 177.546 181.578 177.546C180.981 177.546 180.505 177.733 180.15 178.106C179.805 178.47 179.632 178.997 179.632 179.688V184H178.036V176.286H179.632V177.168C179.894 176.851 180.225 176.603 180.626 176.426C181.028 176.249 181.457 176.16 181.914 176.16C182.53 176.16 183.081 176.291 183.566 176.552C184.052 176.813 184.425 177.191 184.686 177.686C184.92 177.219 185.284 176.851 185.778 176.58C186.273 176.3 186.805 176.16 187.374 176.16ZM199.653 179.954C199.653 180.243 199.635 180.505 199.597 180.738H193.703C193.75 181.354 193.979 181.849 194.389 182.222C194.8 182.595 195.304 182.782 195.901 182.782C196.76 182.782 197.367 182.423 197.721 181.704H199.443C199.21 182.413 198.785 182.997 198.169 183.454C197.563 183.902 196.807 184.126 195.901 184.126C195.164 184.126 194.501 183.963 193.913 183.636C193.335 183.3 192.877 182.833 192.541 182.236C192.215 181.629 192.051 180.929 192.051 180.136C192.051 179.343 192.21 178.647 192.527 178.05C192.854 177.443 193.307 176.977 193.885 176.65C194.473 176.323 195.145 176.16 195.901 176.16C196.629 176.16 197.278 176.319 197.847 176.636C198.417 176.953 198.86 177.401 199.177 177.98C199.495 178.549 199.653 179.207 199.653 179.954ZM197.987 179.45C197.978 178.862 197.768 178.391 197.357 178.036C196.947 177.681 196.438 177.504 195.831 177.504C195.281 177.504 194.809 177.681 194.417 178.036C194.025 178.381 193.792 178.853 193.717 179.45H197.987ZM202.82 177.406C203.053 177.014 203.361 176.711 203.744 176.496C204.136 176.272 204.598 176.16 205.13 176.16V177.812H204.724C204.098 177.812 203.622 177.971 203.296 178.288C202.978 178.605 202.82 179.156 202.82 179.94V184H201.224V176.286H202.82V177.406ZM218.62 174.27L214.966 184H213.118L209.45 174.27H211.158L214.042 182.362L216.94 174.27H218.62ZM227.024 179.954C227.024 180.243 227.006 180.505 226.968 180.738H221.074C221.121 181.354 221.35 181.849 221.76 182.222C222.171 182.595 222.675 182.782 223.272 182.782C224.131 182.782 224.738 182.423 225.092 181.704H226.814C226.581 182.413 226.156 182.997 225.54 183.454C224.934 183.902 224.178 184.126 223.272 184.126C222.535 184.126 221.872 183.963 221.284 183.636C220.706 183.3 220.248 182.833 219.912 182.236C219.586 181.629 219.422 180.929 219.422 180.136C219.422 179.343 219.581 178.647 219.898 178.05C220.225 177.443 220.678 176.977 221.256 176.65C221.844 176.323 222.516 176.16 223.272 176.16C224 176.16 224.649 176.319 225.218 176.636C225.788 176.953 226.231 177.401 226.548 177.98C226.866 178.549 227.024 179.207 227.024 179.954ZM225.358 179.45C225.349 178.862 225.139 178.391 224.728 178.036C224.318 177.681 223.809 177.504 223.202 177.504C222.652 177.504 222.18 177.681 221.788 178.036C221.396 178.381 221.163 178.853 221.088 179.45H225.358ZM230.191 177.406C230.424 177.014 230.732 176.711 231.115 176.496C231.507 176.272 231.969 176.16 232.501 176.16V177.812H232.095C231.47 177.812 230.994 177.971 230.667 178.288C230.35 178.605 230.191 179.156 230.191 179.94V184H228.595V176.286H230.191V177.406ZM234.78 175.264C234.491 175.264 234.248 175.166 234.052 174.97C233.856 174.774 233.758 174.531 233.758 174.242C233.758 173.953 233.856 173.71 234.052 173.514C234.248 173.318 234.491 173.22 234.78 173.22C235.06 173.22 235.298 173.318 235.494 173.514C235.69 173.71 235.788 173.953 235.788 174.242C235.788 174.531 235.69 174.774 235.494 174.97C235.298 175.166 235.06 175.264 234.78 175.264ZM235.564 176.286V184H233.968V176.286H235.564ZM240.893 177.588H239.465V184H237.855V177.588H236.945V176.286H237.855V175.74C237.855 174.853 238.089 174.209 238.555 173.808C239.031 173.397 239.773 173.192 240.781 173.192V174.522C240.296 174.522 239.955 174.615 239.759 174.802C239.563 174.979 239.465 175.292 239.465 175.74V176.286H240.893V177.588ZM243.12 175.264C242.83 175.264 242.588 175.166 242.392 174.97C242.196 174.774 242.098 174.531 242.098 174.242C242.098 173.953 242.196 173.71 242.392 173.514C242.588 173.318 242.83 173.22 243.12 173.22C243.4 173.22 243.638 173.318 243.834 173.514C244.03 173.71 244.128 173.953 244.128 174.242C244.128 174.531 244.03 174.774 243.834 174.97C243.638 175.166 243.4 175.264 243.12 175.264ZM243.904 176.286V184H242.308V176.286H243.904ZM245.467 180.136C245.467 179.343 245.626 178.647 245.943 178.05C246.27 177.443 246.718 176.977 247.287 176.65C247.857 176.323 248.51 176.16 249.247 176.16C250.181 176.16 250.951 176.384 251.557 176.832C252.173 177.271 252.589 177.901 252.803 178.722H251.081C250.941 178.339 250.717 178.041 250.409 177.826C250.101 177.611 249.714 177.504 249.247 177.504C248.594 177.504 248.071 177.737 247.679 178.204C247.297 178.661 247.105 179.305 247.105 180.136C247.105 180.967 247.297 181.615 247.679 182.082C248.071 182.549 248.594 182.782 249.247 182.782C250.171 182.782 250.783 182.376 251.081 181.564H252.803C252.579 182.348 252.159 182.973 251.543 183.44C250.927 183.897 250.162 184.126 249.247 184.126C248.51 184.126 247.857 183.963 247.287 183.636C246.718 183.3 246.27 182.833 245.943 182.236C245.626 181.629 245.467 180.929 245.467 180.136ZM253.862 180.108C253.862 179.333 254.02 178.647 254.338 178.05C254.664 177.453 255.103 176.991 255.654 176.664C256.214 176.328 256.83 176.16 257.502 176.16C258.108 176.16 258.636 176.281 259.084 176.524C259.541 176.757 259.905 177.051 260.176 177.406V176.286H261.786V184H260.176V182.852C259.905 183.216 259.536 183.519 259.07 183.762C258.603 184.005 258.071 184.126 257.474 184.126C256.811 184.126 256.204 183.958 255.654 183.622C255.103 183.277 254.664 182.801 254.338 182.194C254.02 181.578 253.862 180.883 253.862 180.108ZM260.176 180.136C260.176 179.604 260.064 179.142 259.84 178.75C259.625 178.358 259.34 178.059 258.986 177.854C258.631 177.649 258.248 177.546 257.838 177.546C257.427 177.546 257.044 177.649 256.69 177.854C256.335 178.05 256.046 178.344 255.822 178.736C255.607 179.119 255.5 179.576 255.5 180.108C255.5 180.64 255.607 181.107 255.822 181.508C256.046 181.909 256.335 182.217 256.69 182.432C257.054 182.637 257.436 182.74 257.838 182.74C258.248 182.74 258.631 182.637 258.986 182.432C259.34 182.227 259.625 181.928 259.84 181.536C260.064 181.135 260.176 180.668 260.176 180.136ZM265.744 177.588V181.858C265.744 182.147 265.809 182.357 265.94 182.488C266.08 182.609 266.313 182.67 266.64 182.67H267.62V184H266.36C265.641 184 265.091 183.832 264.708 183.496C264.325 183.16 264.134 182.614 264.134 181.858V177.588H263.224V176.286H264.134V174.368H265.744V176.286H267.62V177.588H265.744ZM269.903 175.264C269.614 175.264 269.371 175.166 269.175 174.97C268.979 174.774 268.881 174.531 268.881 174.242C268.881 173.953 268.979 173.71 269.175 173.514C269.371 173.318 269.614 173.22 269.903 173.22C270.183 173.22 270.421 173.318 270.617 173.514C270.813 173.71 270.911 173.953 270.911 174.242C270.911 174.531 270.813 174.774 270.617 174.97C270.421 175.166 270.183 175.264 269.903 175.264ZM270.687 176.286V184H269.091V176.286H270.687ZM276.128 184.126C275.4 184.126 274.742 183.963 274.154 183.636C273.566 183.3 273.104 182.833 272.768 182.236C272.432 181.629 272.264 180.929 272.264 180.136C272.264 179.352 272.437 178.657 272.782 178.05C273.128 177.443 273.599 176.977 274.196 176.65C274.794 176.323 275.461 176.16 276.198 176.16C276.936 176.16 277.603 176.323 278.2 176.65C278.798 176.977 279.269 177.443 279.614 178.05C279.96 178.657 280.132 179.352 280.132 180.136C280.132 180.92 279.955 181.615 279.6 182.222C279.246 182.829 278.76 183.3 278.144 183.636C277.538 183.963 276.866 184.126 276.128 184.126ZM276.128 182.74C276.539 182.74 276.922 182.642 277.276 182.446C277.64 182.25 277.934 181.956 278.158 181.564C278.382 181.172 278.494 180.696 278.494 180.136C278.494 179.576 278.387 179.105 278.172 178.722C277.958 178.33 277.673 178.036 277.318 177.84C276.964 177.644 276.581 177.546 276.17 177.546C275.76 177.546 275.377 177.644 275.022 177.84C274.677 178.036 274.402 178.33 274.196 178.722C273.991 179.105 273.888 179.576 273.888 180.136C273.888 180.967 274.098 181.611 274.518 182.068C274.948 182.516 275.484 182.74 276.128 182.74ZM285.602 176.16C286.209 176.16 286.75 176.286 287.226 176.538C287.711 176.79 288.089 177.163 288.36 177.658C288.631 178.153 288.766 178.75 288.766 179.45V184H287.184V179.688C287.184 178.997 287.011 178.47 286.666 178.106C286.321 177.733 285.849 177.546 285.252 177.546C284.655 177.546 284.179 177.733 283.824 178.106C283.479 178.47 283.306 178.997 283.306 179.688V184H281.71V176.286H283.306V177.168C283.567 176.851 283.899 176.603 284.3 176.426C284.711 176.249 285.145 176.16 285.602 176.16Z" fill="#465364"/>
<g filter="url(#filter2_d_2997_16974)">
<rect x="78" y="7" width="247" height="36" rx="10" fill="white"/>
<rect x="78.5" y="7.5" width="246" height="35" rx="9.5" stroke="url(#paint2_linear_2997_16974)"/>
</g>
<path d="M110.91 30L107.144 25.646V30H105.548V20.27H107.144V24.708L110.924 20.27H112.926L108.698 25.142L112.996 30H110.91ZM121.617 20.27L118.397 26.472V30H116.801V26.472L113.567 20.27H115.345L117.599 25.044L119.853 20.27H121.617ZM122.352 25.114C122.352 24.162 122.571 23.308 123.01 22.552C123.458 21.796 124.06 21.208 124.816 20.788C125.581 20.3587 126.417 20.144 127.322 20.144C128.358 20.144 129.277 20.4007 130.08 20.914C130.892 21.418 131.48 22.1367 131.844 23.07H129.926C129.674 22.5567 129.324 22.174 128.876 21.922C128.428 21.67 127.91 21.544 127.322 21.544C126.678 21.544 126.104 21.6887 125.6 21.978C125.096 22.2673 124.699 22.6827 124.41 23.224C124.13 23.7653 123.99 24.3953 123.99 25.114C123.99 25.8327 124.13 26.4627 124.41 27.004C124.699 27.5453 125.096 27.9653 125.6 28.264C126.104 28.5533 126.678 28.698 127.322 28.698C127.91 28.698 128.428 28.572 128.876 28.32C129.324 28.068 129.674 27.6853 129.926 27.172H131.844C131.48 28.1053 130.892 28.824 130.08 29.328C129.277 29.832 128.358 30.084 127.322 30.084C126.407 30.084 125.572 29.874 124.816 29.454C124.06 29.0247 123.458 28.432 123.01 27.676C122.571 26.92 122.352 26.066 122.352 25.114ZM138.892 16.784L135.084 32.45H133.516L137.31 16.784H138.892ZM146.77 28.012H142.696L141.996 30H140.33L143.816 20.256H145.664L149.15 30H147.47L146.77 28.012ZM146.322 26.71L144.74 22.188L143.144 26.71H146.322ZM160.913 20.27V30H159.317V23.336L156.349 30H155.243L152.261 23.336V30H150.665V20.27H152.387L155.803 27.9L159.205 20.27H160.913ZM164.607 28.712H167.897V30H163.011V20.27H164.607V28.712Z" fill="#7D65FD"/>
<path d="M176.074 30.098C175.421 30.098 174.833 29.986 174.31 29.762C173.788 29.5287 173.377 29.202 173.078 28.782C172.78 28.362 172.63 27.872 172.63 27.312H174.338C174.376 27.732 174.539 28.0773 174.828 28.348C175.127 28.6187 175.542 28.754 176.074 28.754C176.625 28.754 177.054 28.6233 177.362 28.362C177.67 28.0913 177.824 27.746 177.824 27.326C177.824 26.9993 177.726 26.7333 177.53 26.528C177.344 26.3227 177.106 26.164 176.816 26.052C176.536 25.94 176.144 25.8187 175.64 25.688C175.006 25.52 174.488 25.352 174.086 25.184C173.694 25.0067 173.358 24.736 173.078 24.372C172.798 24.008 172.658 23.5227 172.658 22.916C172.658 22.356 172.798 21.866 173.078 21.446C173.358 21.026 173.75 20.704 174.254 20.48C174.758 20.256 175.342 20.144 176.004 20.144C176.947 20.144 177.717 20.382 178.314 20.858C178.921 21.3247 179.257 21.9687 179.322 22.79H177.558C177.53 22.4353 177.362 22.132 177.054 21.88C176.746 21.628 176.34 21.502 175.836 21.502C175.379 21.502 175.006 21.6187 174.716 21.852C174.427 22.0853 174.282 22.4213 174.282 22.86C174.282 23.1587 174.371 23.406 174.548 23.602C174.735 23.7887 174.968 23.938 175.248 24.05C175.528 24.162 175.911 24.2833 176.396 24.414C177.04 24.5913 177.563 24.7687 177.964 24.946C178.375 25.1233 178.72 25.3987 179 25.772C179.29 26.136 179.434 26.626 179.434 27.242C179.434 27.7367 179.299 28.2033 179.028 28.642C178.767 29.0807 178.38 29.4353 177.866 29.706C177.362 29.9673 176.765 30.098 176.074 30.098ZM188.388 25.954C188.388 26.2433 188.369 26.5047 188.332 26.738H182.438C182.484 27.354 182.713 27.8487 183.124 28.222C183.534 28.5953 184.038 28.782 184.636 28.782C185.494 28.782 186.101 28.4227 186.456 27.704H188.178C187.944 28.4133 187.52 28.9967 186.904 29.454C186.297 29.902 185.541 30.126 184.636 30.126C183.898 30.126 183.236 29.9627 182.648 29.636C182.069 29.3 181.612 28.8333 181.276 28.236C180.949 27.6293 180.786 26.9293 180.786 26.136C180.786 25.3427 180.944 24.6473 181.262 24.05C181.588 23.4433 182.041 22.9767 182.62 22.65C183.208 22.3233 183.88 22.16 184.636 22.16C185.364 22.16 186.012 22.3187 186.582 22.636C187.151 22.9533 187.594 23.4013 187.912 23.98C188.229 24.5493 188.388 25.2073 188.388 25.954ZM186.722 25.45C186.712 24.862 186.502 24.3907 186.092 24.036C185.681 23.6813 185.172 23.504 184.566 23.504C184.015 23.504 183.544 23.6813 183.152 24.036C182.76 24.3813 182.526 24.8527 182.452 25.45H186.722ZM191.554 23.406C191.788 23.014 192.096 22.7107 192.478 22.496C192.87 22.272 193.332 22.16 193.864 22.16V23.812H193.458C192.833 23.812 192.357 23.9707 192.03 24.288C191.713 24.6053 191.554 25.156 191.554 25.94V30H189.958V22.286H191.554V23.406ZM198.313 28.572L200.497 22.286H202.191L199.251 30H197.347L194.421 22.286H196.129L198.313 28.572ZM204.21 21.264C203.92 21.264 203.678 21.166 203.482 20.97C203.286 20.774 203.188 20.5313 203.188 20.242C203.188 19.9527 203.286 19.71 203.482 19.514C203.678 19.318 203.92 19.22 204.21 19.22C204.49 19.22 204.728 19.318 204.924 19.514C205.12 19.71 205.218 19.9527 205.218 20.242C205.218 20.5313 205.12 20.774 204.924 20.97C204.728 21.166 204.49 21.264 204.21 21.264ZM204.994 22.286V30H203.398V22.286H204.994ZM206.557 26.136C206.557 25.3427 206.716 24.6473 207.033 24.05C207.36 23.4433 207.808 22.9767 208.377 22.65C208.946 22.3233 209.6 22.16 210.337 22.16C211.27 22.16 212.04 22.384 212.647 22.832C213.263 23.2707 213.678 23.9007 213.893 24.722H212.171C212.031 24.3393 211.807 24.0407 211.499 23.826C211.191 23.6113 210.804 23.504 210.337 23.504C209.684 23.504 209.161 23.7373 208.769 24.204C208.386 24.6613 208.195 25.3053 208.195 26.136C208.195 26.9667 208.386 27.6153 208.769 28.082C209.161 28.5487 209.684 28.782 210.337 28.782C211.261 28.782 211.872 28.376 212.171 27.564H213.893C213.669 28.348 213.249 28.9733 212.633 29.44C212.017 29.8973 211.252 30.126 210.337 30.126C209.6 30.126 208.946 29.9627 208.377 29.636C207.808 29.3 207.36 28.8333 207.033 28.236C206.716 27.6293 206.557 26.9293 206.557 26.136ZM222.554 25.954C222.554 26.2433 222.535 26.5047 222.498 26.738H216.604C216.65 27.354 216.879 27.8487 217.29 28.222C217.7 28.5953 218.204 28.782 218.802 28.782C219.66 28.782 220.267 28.4227 220.622 27.704H222.344C222.11 28.4133 221.686 28.9967 221.07 29.454C220.463 29.902 219.707 30.126 218.802 30.126C218.064 30.126 217.402 29.9627 216.814 29.636C216.235 29.3 215.778 28.8333 215.442 28.236C215.115 27.6293 214.952 26.9293 214.952 26.136C214.952 25.3427 215.11 24.6473 215.428 24.05C215.754 23.4433 216.207 22.9767 216.786 22.65C217.374 22.3233 218.046 22.16 218.802 22.16C219.53 22.16 220.178 22.3187 220.748 22.636C221.317 22.9533 221.76 23.4013 222.078 23.98C222.395 24.5493 222.554 25.2073 222.554 25.954ZM220.888 25.45C220.878 24.862 220.668 24.3907 220.258 24.036C219.847 23.6813 219.338 23.504 218.732 23.504C218.181 23.504 217.71 23.6813 217.318 24.036C216.926 24.3813 216.692 24.8527 216.618 25.45H220.888ZM234.565 23.168C234.565 23.6627 234.448 24.1293 234.215 24.568C233.982 25.0067 233.608 25.366 233.095 25.646C232.582 25.9167 231.924 26.052 231.121 26.052H229.357V30H227.761V20.27H231.121C231.868 20.27 232.498 20.4007 233.011 20.662C233.534 20.914 233.921 21.2593 234.173 21.698C234.434 22.1367 234.565 22.6267 234.565 23.168ZM231.121 24.75C231.728 24.75 232.18 24.6147 232.479 24.344C232.778 24.064 232.927 23.672 232.927 23.168C232.927 22.104 232.325 21.572 231.121 21.572H229.357V24.75H231.121ZM237.683 23.406C237.916 23.014 238.224 22.7107 238.607 22.496C238.999 22.272 239.461 22.16 239.993 22.16V23.812H239.587C238.962 23.812 238.486 23.9707 238.159 24.288C237.842 24.6053 237.683 25.156 237.683 25.94V30H236.087V22.286H237.683V23.406ZM244.806 30.126C244.078 30.126 243.42 29.9627 242.832 29.636C242.244 29.3 241.782 28.8333 241.446 28.236C241.11 27.6293 240.942 26.9293 240.942 26.136C240.942 25.352 241.115 24.6567 241.46 24.05C241.805 23.4433 242.277 22.9767 242.874 22.65C243.471 22.3233 244.139 22.16 244.876 22.16C245.613 22.16 246.281 22.3233 246.878 22.65C247.475 22.9767 247.947 23.4433 248.292 24.05C248.637 24.6567 248.81 25.352 248.81 26.136C248.81 26.92 248.633 27.6153 248.278 28.222C247.923 28.8287 247.438 29.3 246.822 29.636C246.215 29.9627 245.543 30.126 244.806 30.126ZM244.806 28.74C245.217 28.74 245.599 28.642 245.954 28.446C246.318 28.25 246.612 27.956 246.836 27.564C247.06 27.172 247.172 26.696 247.172 26.136C247.172 25.576 247.065 25.1047 246.85 24.722C246.635 24.33 246.351 24.036 245.996 23.84C245.641 23.644 245.259 23.546 244.848 23.546C244.437 23.546 244.055 23.644 243.7 23.84C243.355 24.036 243.079 24.33 242.874 24.722C242.669 25.1047 242.566 25.576 242.566 26.136C242.566 26.9667 242.776 27.6107 243.196 28.068C243.625 28.516 244.162 28.74 244.806 28.74ZM252.25 23.588V27.858C252.25 28.1473 252.315 28.3573 252.446 28.488C252.586 28.6093 252.819 28.67 253.146 28.67H254.126V30H252.866C252.147 30 251.597 29.832 251.214 29.496C250.831 29.16 250.64 28.614 250.64 27.858V23.588H249.73V22.286H250.64V20.368H252.25V22.286H254.126V23.588H252.25ZM262.667 25.954C262.667 26.2433 262.648 26.5047 262.611 26.738H256.717C256.764 27.354 256.992 27.8487 257.403 28.222C257.814 28.5953 258.318 28.782 258.915 28.782C259.774 28.782 260.38 28.4227 260.735 27.704H262.457C262.224 28.4133 261.799 28.9967 261.183 29.454C260.576 29.902 259.82 30.126 258.915 30.126C258.178 30.126 257.515 29.9627 256.927 29.636C256.348 29.3 255.891 28.8333 255.555 28.236C255.228 27.6293 255.065 26.9293 255.065 26.136C255.065 25.3427 255.224 24.6473 255.541 24.05C255.868 23.4433 256.32 22.9767 256.899 22.65C257.487 22.3233 258.159 22.16 258.915 22.16C259.643 22.16 260.292 22.3187 260.861 22.636C261.43 22.9533 261.874 23.4013 262.191 23.98C262.508 24.5493 262.667 25.2073 262.667 25.954ZM261.001 25.45C260.992 24.862 260.782 24.3907 260.371 24.036C259.96 23.6813 259.452 23.504 258.845 23.504C258.294 23.504 257.823 23.6813 257.431 24.036C257.039 24.3813 256.806 24.8527 256.731 25.45H261.001ZM263.706 26.136C263.706 25.3427 263.864 24.6473 264.182 24.05C264.508 23.4433 264.956 22.9767 265.526 22.65C266.095 22.3233 266.748 22.16 267.486 22.16C268.419 22.16 269.189 22.384 269.796 22.832C270.412 23.2707 270.827 23.9007 271.042 24.722H269.32C269.18 24.3393 268.956 24.0407 268.648 23.826C268.34 23.6113 267.952 23.504 267.486 23.504C266.832 23.504 266.31 23.7373 265.918 24.204C265.535 24.6613 265.344 25.3053 265.344 26.136C265.344 26.9667 265.535 27.6153 265.918 28.082C266.31 28.5487 266.832 28.782 267.486 28.782C268.41 28.782 269.021 28.376 269.32 27.564H271.042C270.818 28.348 270.398 28.9733 269.782 29.44C269.166 29.8973 268.4 30.126 267.486 30.126C266.748 30.126 266.095 29.9627 265.526 29.636C264.956 29.3 264.508 28.8333 264.182 28.236C263.864 27.6293 263.706 26.9293 263.706 26.136ZM274.494 23.588V27.858C274.494 28.1473 274.559 28.3573 274.69 28.488C274.83 28.6093 275.063 28.67 275.39 28.67H276.37V30H275.11C274.391 30 273.841 29.832 273.458 29.496C273.075 29.16 272.884 28.614 272.884 27.858V23.588H271.974V22.286H272.884V20.368H274.494V22.286H276.37V23.588H274.494ZM278.653 21.264C278.364 21.264 278.121 21.166 277.925 20.97C277.729 20.774 277.631 20.5313 277.631 20.242C277.631 19.9527 277.729 19.71 277.925 19.514C278.121 19.318 278.364 19.22 278.653 19.22C278.933 19.22 279.171 19.318 279.367 19.514C279.563 19.71 279.661 19.9527 279.661 20.242C279.661 20.5313 279.563 20.774 279.367 20.97C279.171 21.166 278.933 21.264 278.653 21.264ZM279.437 22.286V30H277.841V22.286H279.437ZM284.878 30.126C284.15 30.126 283.492 29.9627 282.904 29.636C282.316 29.3 281.854 28.8333 281.518 28.236C281.182 27.6293 281.014 26.9293 281.014 26.136C281.014 25.352 281.187 24.6567 281.532 24.05C281.878 23.4433 282.349 22.9767 282.946 22.65C283.544 22.3233 284.211 22.16 284.948 22.16C285.686 22.16 286.353 22.3233 286.95 22.65C287.548 22.9767 288.019 23.4433 288.364 24.05C288.71 24.6567 288.882 25.352 288.882 26.136C288.882 26.92 288.705 27.6153 288.35 28.222C287.996 28.8287 287.51 29.3 286.894 29.636C286.288 29.9627 285.616 30.126 284.878 30.126ZM284.878 28.74C285.289 28.74 285.672 28.642 286.026 28.446C286.39 28.25 286.684 27.956 286.908 27.564C287.132 27.172 287.244 26.696 287.244 26.136C287.244 25.576 287.137 25.1047 286.922 24.722C286.708 24.33 286.423 24.036 286.068 23.84C285.714 23.644 285.331 23.546 284.92 23.546C284.51 23.546 284.127 23.644 283.772 23.84C283.427 24.036 283.152 24.33 282.946 24.722C282.741 25.1047 282.638 25.576 282.638 26.136C282.638 26.9667 282.848 27.6107 283.268 28.068C283.698 28.516 284.234 28.74 284.878 28.74ZM294.352 22.16C294.959 22.16 295.5 22.286 295.976 22.538C296.461 22.79 296.839 23.1633 297.11 23.658C297.381 24.1527 297.516 24.75 297.516 25.45V30H295.934V25.688C295.934 24.9973 295.761 24.47 295.416 24.106C295.071 23.7327 294.599 23.546 294.002 23.546C293.405 23.546 292.929 23.7327 292.574 24.106C292.229 24.47 292.056 24.9973 292.056 25.688V30H290.46V22.286H292.056V23.168C292.317 22.8507 292.649 22.6033 293.05 22.426C293.461 22.2487 293.895 22.16 294.352 22.16Z" fill="#465364"/>
<path d="M78 25H40.3684V102.344M40.3684 102.344H78M40.3684 102.344V179H78M40.3684 102.344H0" stroke="#4341B4" stroke-dasharray="2 2"/>
<defs>
<filter id="filter0_d_2997_16974" x="71" y="78" width="267" height="56" filterUnits="userSpaceOnUse" color-interpolation-filters="sRGB">
<feFlood flood-opacity="0" result="BackgroundImageFix"/>
<feColorMatrix in="SourceAlpha" type="matrix" values="0 0 0 0 0 0 0 0 0 0 0 0 0 0 0 0 0 0 127 0" result="hardAlpha"/>
<feOffset dx="3" dy="3"/>
<feGaussianBlur stdDeviation="5"/>
<feComposite in2="hardAlpha" operator="out"/>
<feColorMatrix type="matrix" values="0 0 0 0 0 0 0 0 0 0 0 0 0 0 0 0 0 0 0.15 0"/>
<feBlend mode="normal" in2="BackgroundImageFix" result="effect1_dropShadow_2997_16974"/>
<feBlend mode="normal" in="SourceGraphic" in2="effect1_dropShadow_2997_16974" result="shape"/>
</filter>
<filter id="filter1_d_2997_16974" x="71" y="154" width="267" height="56" filterUnits="userSpaceOnUse" color-interpolation-filters="sRGB">
<feFlood flood-opacity="0" result="BackgroundImageFix"/>
<feColorMatrix in="SourceAlpha" type="matrix" values="0 0 0 0 0 0 0 0 0 0 0 0 0 0 0 0 0 0 127 0" result="hardAlpha"/>
<feOffset dx="3" dy="3"/>
<feGaussianBlur stdDeviation="5"/>
<feComposite in2="hardAlpha" operator="out"/>
<feColorMatrix type="matrix" values="0 0 0 0 0 0 0 0 0 0 0 0 0 0 0 0 0 0 0.15 0"/>
<feBlend mode="normal" in2="BackgroundImageFix" result="effect1_dropShadow_2997_16974"/>
<feBlend mode="normal" in="SourceGraphic" in2="effect1_dropShadow_2997_16974" result="shape"/>
</filter>
<filter id="filter2_d_2997_16974" x="71" y="0" width="267" height="56" filterUnits="userSpaceOnUse" color-interpolation-filters="sRGB">
<feFlood flood-opacity="0" result="BackgroundImageFix"/>
<feColorMatrix in="SourceAlpha" type="matrix" values="0 0 0 0 0 0 0 0 0 0 0 0 0 0 0 0 0 0 127 0" result="hardAlpha"/>
<feOffset dx="3" dy="3"/>
<feGaussianBlur stdDeviation="5"/>
<feComposite in2="hardAlpha" operator="out"/>
<feColorMatrix type="matrix" values="0 0 0 0 0 0 0 0 0 0 0 0 0 0 0 0 0 0 0.15 0"/>
<feBlend mode="normal" in2="BackgroundImageFix" result="effect1_dropShadow_2997_16974"/>
<feBlend mode="normal" in="SourceGraphic" in2="effect1_dropShadow_2997_16974" result="shape"/>
</filter>
<linearGradient id="paint0_linear_2997_16974" x1="106.102" y1="85" x2="299.856" y2="85" gradientUnits="userSpaceOnUse">
<stop stop-color="#5E5BFF"/>
<stop offset="1" stop-color="#02D0BC"/>
</linearGradient>
<linearGradient id="paint1_linear_2997_16974" x1="106.102" y1="161" x2="299.856" y2="161" gradientUnits="userSpaceOnUse">
<stop stop-color="#5E5BFF"/>
<stop offset="1" stop-color="#02D0BC"/>
</linearGradient>
<linearGradient id="paint2_linear_2997_16974" x1="106.102" y1="7" x2="299.856" y2="7" gradientUnits="userSpaceOnUse">
<stop stop-color="#5E5BFF"/>
<stop offset="1" stop-color="#02D0BC"/>
</linearGradient>
</defs>
</svg>
