<svg width="1309" height="1309" viewBox="0 0 1309 1309" fill="none" xmlns="http://www.w3.org/2000/svg">
<path d="M543.361 384.649C685.049 325.96 825.83 303.047 938.899 313.438C1051.98 323.829 1137.28 367.52 1168.12 441.976C1198.96 516.433 1169.54 607.646 1096.93 694.953C1024.32 782.251 908.574 865.597 766.885 924.286C625.197 982.975 484.416 1005.89 371.347 995.498C258.268 985.107 172.964 941.416 142.123 866.959C111.282 792.503 140.707 701.29 213.318 613.983C285.923 526.684 401.672 443.339 543.361 384.649Z" stroke="url(#paint0_linear_307_9190)" stroke-width="0.4"/>
<path d="M667.815 945.093C514.598 951.782 374.47 925.163 271.774 876.728C169.068 828.288 103.852 758.056 100.337 677.542C96.8214 597.027 155.668 521.379 253.761 464.172C351.845 406.97 489.12 368.24 642.337 361.55C795.553 354.86 935.681 381.48 1038.38 429.915C1141.08 478.355 1206.3 548.586 1209.81 629.101C1213.33 709.615 1154.48 785.264 1056.39 842.471C958.306 899.672 821.031 938.403 667.815 945.093Z" stroke="url(#paint1_linear_307_9190)" stroke-width="0.4"/>
<path d="M531.723 389.777C670.717 324.963 810.365 295.931 923.779 301.38C1037.2 306.829 1124.33 346.757 1158.39 419.797C1192.45 492.838 1167.03 585.248 1098.3 675.639C1029.57 766.021 917.568 854.336 778.574 919.15C639.581 983.964 499.933 1013 386.518 1007.55C273.094 1002.1 185.965 962.17 151.906 889.13C117.846 816.089 143.265 723.679 211.999 633.289C280.726 542.906 392.73 454.591 531.723 389.777Z" stroke="url(#paint2_linear_307_9190)" stroke-width="0.4"/>
<path d="M680.505 944.257C527.727 957.623 386.571 937.142 281.86 893.232C177.139 849.318 108.921 781.998 101.897 701.714C94.8733 621.429 150.365 543.286 245.869 481.855C341.364 420.429 476.819 375.747 629.598 362.381C782.377 349.015 923.532 369.496 1028.24 413.406C1132.96 457.319 1201.18 524.64 1208.21 604.924C1215.23 685.209 1159.74 763.352 1064.23 824.783C968.739 886.209 833.284 930.89 680.505 944.257Z" stroke="url(#paint3_linear_307_9190)" stroke-width="0.4"/>
<path d="M520.32 395.403C656.355 324.588 794.603 289.492 908.147 289.988C1021.7 290.484 1110.49 326.574 1147.7 398.06C1184.91 469.545 1163.55 562.975 1098.83 656.278C1034.11 749.573 926.061 842.69 790.027 913.504C653.993 984.319 515.744 1019.41 402.2 1018.92C288.646 1018.42 199.859 982.333 162.646 910.847C125.433 839.362 146.796 745.931 211.522 652.628C276.242 559.334 384.286 466.217 520.32 395.403Z" stroke="url(#paint4_linear_307_9190)" stroke-width="0.4"/>
<path d="M693.144 942.869C541.094 962.887 399.179 948.582 292.652 909.282C186.116 869.978 115.026 805.697 104.507 725.795C93.988 645.894 146.018 565.404 238.752 499.866C331.477 434.333 464.854 383.786 616.904 363.768C768.954 343.75 910.869 358.055 1017.4 397.355C1123.93 436.659 1195.02 500.94 1205.54 580.842C1216.06 660.743 1164.03 741.233 1071.3 806.771C978.571 872.304 845.194 922.852 693.144 942.869Z" stroke="url(#paint5_linear_307_9190)" stroke-width="0.4"/>
<path d="M509.172 401.522C641.988 324.841 778.574 283.749 892.032 279.292C1005.5 274.834 1095.78 307.017 1136.07 376.811C1176.37 446.605 1159.1 540.878 1098.51 636.916C1037.92 732.944 934.037 830.685 801.221 907.367C668.406 984.048 531.819 1025.14 418.362 1029.6C304.894 1034.05 214.617 1001.87 174.321 932.078C134.025 862.284 151.293 768.011 211.887 671.973C272.476 575.945 376.356 478.203 509.172 401.522Z" stroke="url(#paint6_linear_307_9190)" stroke-width="0.4"/>
<path d="M705.714 940.928C554.682 967.56 412.278 959.459 304.138 924.842C195.989 890.223 122.163 829.104 108.169 749.737C94.1743 670.37 142.644 587.688 232.431 518.167C322.209 448.652 453.254 392.335 604.287 365.704C755.319 339.073 897.723 347.174 1005.86 381.79C1114.01 416.41 1187.84 477.528 1201.83 556.895C1215.83 636.262 1167.36 718.944 1077.57 788.465C987.792 857.98 856.747 914.297 705.714 940.928Z" stroke="url(#paint7_linear_307_9190)" stroke-width="0.4"/>
<path d="M498.302 408.126C627.647 325.725 762.311 278.714 875.466 269.312C988.632 259.909 1080.23 288.123 1123.53 356.093C1166.83 424.063 1153.69 519 1097.34 617.589C1041 716.169 941.483 818.349 812.138 900.75C682.794 983.152 548.13 1030.16 434.975 1039.56C321.809 1048.97 230.214 1020.75 186.913 952.783C143.611 884.813 156.75 789.876 213.098 691.287C269.44 592.707 368.958 490.528 498.302 408.126Z" stroke="url(#paint8_linear_307_9190)" stroke-width="0.4"/>
<path d="M718.186 938.443C568.459 971.637 425.837 969.755 316.291 939.889C206.734 910.019 130.313 852.179 112.869 773.498C95.4263 694.817 140.243 610.1 226.912 536.728C313.573 463.363 442.037 401.384 591.764 368.19C741.491 334.996 884.112 336.878 993.659 366.744C1103.22 396.614 1179.64 454.454 1197.08 533.135C1214.52 611.816 1169.71 696.533 1083.04 769.905C996.376 843.27 867.913 905.249 718.186 938.443Z" stroke="url(#paint9_linear_307_9190)" stroke-width="0.4"/>
<path d="M487.731 415.193C613.358 327.228 745.843 274.388 858.48 260.059C971.128 245.729 1063.87 269.921 1110.09 335.938C1156.32 401.954 1147.33 497.374 1095.34 598.327C1043.35 699.271 948.383 805.694 822.756 893.659C697.129 981.624 564.644 1034.46 452.006 1048.79C339.358 1063.12 246.62 1038.93 200.395 972.914C154.17 906.898 163.155 811.478 215.148 710.525C267.137 609.581 362.104 503.158 487.731 415.193Z" stroke="url(#paint10_linear_307_9190)" stroke-width="0.4"/>
<path d="M730.537 935.416C582.401 975.109 439.833 979.451 329.088 954.391C218.332 929.329 139.461 874.877 118.602 797.032C97.7438 719.187 138.823 632.595 222.209 555.513C305.587 478.438 431.225 410.914 579.361 371.22C727.498 331.527 870.066 327.186 980.811 352.246C1091.57 377.308 1170.44 431.76 1191.3 509.605C1212.15 587.45 1171.08 674.042 1087.69 751.124C1004.31 828.199 878.674 895.723 730.537 935.416Z" stroke="url(#paint11_linear_307_9190)" stroke-width="0.4"/>
<path d="M477.478 422.716C599.149 329.355 729.203 270.785 841.108 251.557C953.024 232.327 1046.73 252.451 1095.79 316.389C1144.85 380.326 1140.04 476.047 1092.5 579.172C1044.96 682.287 954.726 792.751 833.055 886.112C711.385 979.473 581.33 1038.04 469.425 1057.27C357.51 1076.5 263.804 1056.38 214.744 992.439C165.683 928.502 170.497 832.781 218.038 729.656C265.574 626.541 355.808 516.077 477.478 422.716Z" stroke="url(#paint12_linear_307_9190)" stroke-width="0.4"/>
<path d="M742.743 931.85C596.479 977.967 454.236 988.523 342.503 968.318C230.76 948.111 149.589 897.151 125.354 820.29C101.12 743.429 138.383 655.127 218.327 574.481C298.264 493.843 420.837 420.902 567.101 374.785C713.365 328.669 855.608 318.113 967.341 338.318C1079.08 358.525 1160.26 409.485 1184.49 486.346C1208.72 563.207 1171.46 651.509 1091.52 732.154C1011.58 812.793 889.007 885.733 742.743 931.85Z" stroke="url(#paint13_linear_307_9190)" stroke-width="0.4"/>
<path d="M754.785 927.761C610.671 980.214 469.024 996.964 356.516 981.652C243.998 966.338 160.681 918.968 133.117 843.237C105.553 767.506 138.929 677.663 215.279 593.607C291.623 509.558 410.898 431.341 555.011 378.888C699.124 326.435 840.771 309.684 953.279 324.997C1065.8 340.31 1149.11 387.681 1176.68 463.412C1204.24 539.143 1170.87 628.986 1094.52 713.042C1018.17 797.09 898.898 875.308 754.785 927.761Z" stroke="url(#paint14_linear_307_9190)" stroke-width="0.4"/>
<path d="M654.79 945.763C501.428 945.763 362.594 913.057 262.108 860.189C161.613 807.315 99.5226 734.305 99.5226 653.714C99.5226 573.123 161.613 500.113 262.108 447.24C362.594 394.371 501.428 361.665 654.79 361.665C808.152 361.665 946.986 394.371 1047.47 447.24C1147.97 500.113 1210.06 573.123 1210.06 653.714C1210.06 734.305 1147.97 807.315 1047.47 860.189C946.986 913.057 808.152 945.763 654.79 945.763Z" stroke="url(#paint15_linear_307_9190)" stroke-width="0.4"/>
<path d="M766.297 385.247C907.985 443.936 1023.73 527.281 1096.34 614.58C1168.95 701.887 1198.38 793.1 1167.53 867.556C1136.69 942.013 1051.39 985.704 938.311 996.095C825.242 1006.49 684.46 983.572 542.772 924.883C401.084 866.194 285.334 782.848 212.73 695.55C140.118 608.243 110.694 517.03 141.534 442.573C172.375 368.117 257.679 324.426 370.758 314.035C483.827 303.645 624.609 326.557 766.297 385.247Z" stroke="url(#paint16_linear_307_9190)" stroke-width="0.4"/>
<path d="M754.456 380.635C898.569 433.088 1017.84 511.305 1094.19 595.354C1170.54 679.41 1203.91 769.253 1176.35 844.984C1148.79 920.715 1065.47 968.085 952.951 983.399C840.443 998.711 698.796 981.961 554.682 929.508C410.569 877.055 291.294 798.837 214.951 714.789C138.6 630.733 105.225 540.89 132.789 465.159C160.352 389.428 243.669 342.057 356.188 326.744C468.696 311.431 610.343 328.182 754.456 380.635Z" stroke="url(#paint17_linear_307_9190)" stroke-width="0.4"/>
<path d="M842.043 431.085C959.525 529.665 1044.85 643.96 1087.85 749.05C1130.84 854.151 1131.48 949.991 1079.68 1011.73C1027.87 1073.46 933.379 1089.48 822.409 1065.39C711.449 1041.3 584.073 977.11 466.591 878.531C349.109 779.952 263.779 665.657 220.786 560.566C177.789 455.466 177.154 359.626 228.957 297.889C280.76 236.153 375.254 220.135 486.225 244.229C597.184 268.32 724.56 332.506 842.043 431.085Z" stroke="url(#paint18_linear_307_9190)" stroke-width="0.4"/>
<path d="M742.424 376.542C888.689 422.659 1011.26 495.6 1091.2 576.238C1171.14 656.884 1208.41 745.186 1184.17 822.047C1159.94 898.908 1078.77 949.867 967.022 970.075C855.29 990.28 713.047 979.724 566.783 933.607C420.518 887.49 297.945 814.55 218.008 733.911C138.064 653.265 100.801 564.964 125.036 488.103C149.27 411.241 230.441 360.282 342.184 340.075C453.917 319.87 596.16 330.425 742.424 376.542Z" stroke="url(#paint19_linear_307_9190)" stroke-width="0.4"/>
<path d="M832.127 423.123C953.798 516.484 1044.03 626.948 1091.57 730.063C1139.11 833.188 1143.92 928.909 1094.86 992.847C1045.8 1056.78 952.096 1076.91 840.181 1057.68C728.275 1038.45 598.221 979.881 476.551 886.52C354.88 793.159 264.646 682.695 217.11 579.579C169.57 476.454 164.755 380.733 213.816 316.796C262.877 252.859 356.582 232.735 468.497 251.965C580.403 271.193 710.457 329.762 832.127 423.123Z" stroke="url(#paint20_linear_307_9190)" stroke-width="0.4"/>
<path d="M730.226 372.978C878.362 412.671 1004 480.195 1087.38 557.27C1170.76 634.352 1211.84 720.945 1190.98 798.79C1170.13 876.635 1091.25 931.086 980.5 956.148C869.754 981.208 727.186 976.867 579.05 937.174C430.913 897.481 305.275 829.956 221.897 752.881C138.511 675.799 97.4322 589.207 118.291 511.362C139.149 433.517 218.021 379.065 328.776 354.003C439.521 328.944 582.089 333.285 730.226 372.978Z" stroke="url(#paint21_linear_307_9190)" stroke-width="0.4"/>
<path d="M821.878 415.602C947.505 503.567 1042.47 609.99 1094.46 710.934C1146.45 811.887 1155.44 907.307 1109.21 973.323C1062.99 1039.34 970.25 1063.53 857.602 1049.2C744.965 1034.87 612.48 982.033 486.852 894.068C361.225 806.103 266.259 699.68 214.27 598.736C162.277 497.783 153.292 402.363 199.517 336.347C245.742 270.331 338.48 246.138 451.128 260.468C563.765 274.797 696.251 327.637 821.878 415.602Z" stroke="url(#paint22_linear_307_9190)" stroke-width="0.4"/>
<path d="M717.884 369.949C867.611 403.142 996.075 465.122 1082.74 538.487C1169.4 611.858 1214.22 696.576 1196.78 775.257C1179.34 853.938 1102.91 911.778 993.357 941.647C883.811 971.514 741.189 973.395 591.462 940.202C441.735 907.008 313.271 845.028 226.61 771.664C139.942 698.292 95.1247 613.574 112.568 534.893C130.011 456.212 206.432 398.372 315.989 368.503C425.536 338.637 568.157 336.755 717.884 369.949Z" stroke="url(#paint23_linear_307_9190)" stroke-width="0.4"/>
<path d="M811.305 408.539C940.649 490.94 1040.17 593.12 1096.51 691.7C1152.86 790.289 1166 885.226 1122.69 953.196C1079.39 1021.17 987.798 1049.38 874.632 1039.98C761.477 1030.58 626.813 983.564 497.469 901.163C368.124 818.761 268.606 716.582 212.264 618.002C155.916 519.413 142.777 424.476 186.079 356.506C229.381 288.536 320.975 260.321 434.141 269.724C547.296 279.126 681.96 326.137 811.305 408.539Z" stroke="url(#paint24_linear_307_9190)" stroke-width="0.4"/>
<path d="M705.422 367.464C856.454 394.095 987.499 450.412 1077.28 519.927C1167.06 589.448 1215.53 672.13 1201.54 751.497C1187.54 830.864 1113.72 891.983 1005.57 926.602C897.43 961.219 755.026 969.32 603.994 942.689C452.962 916.058 321.917 859.74 232.138 790.225C142.351 720.704 93.8818 638.022 107.876 558.655C121.871 479.288 195.696 418.17 303.846 383.55C411.986 348.934 554.389 340.833 705.422 367.464Z" stroke="url(#paint25_linear_307_9190)" stroke-width="0.4"/>
<path d="M800.438 401.939C933.253 478.62 1037.13 576.361 1097.72 672.39C1158.32 768.427 1175.58 862.701 1135.29 932.495C1094.99 1002.29 1004.72 1034.47 891.248 1030.01C777.79 1025.56 641.204 984.464 508.388 907.783C375.573 831.102 271.692 733.361 211.103 637.332C150.509 541.295 133.242 447.021 173.537 377.227C213.833 307.433 304.11 275.25 417.578 279.708C531.035 284.165 667.622 325.258 800.438 401.939Z" stroke="url(#paint26_linear_307_9190)" stroke-width="0.4"/>
<path d="M692.861 365.523C844.912 385.541 978.288 436.089 1071.01 501.621C1163.75 567.16 1215.78 647.649 1205.26 727.551C1194.74 807.453 1123.65 871.733 1017.11 911.038C910.586 950.338 768.671 964.643 616.621 944.625C464.571 924.607 331.194 874.06 238.469 808.527C145.735 742.989 93.7051 662.499 104.224 582.597C114.744 502.696 185.833 438.415 292.369 399.111C398.896 359.81 540.811 345.506 692.861 365.523Z" stroke="url(#paint27_linear_307_9190)" stroke-width="0.4"/>
<path d="M789.291 395.824C925.325 466.639 1033.37 559.756 1098.09 653.05C1162.82 746.353 1184.18 839.784 1146.97 911.269C1109.75 982.754 1020.97 1018.84 907.411 1019.34C793.867 1019.84 655.618 984.741 519.584 913.926C383.55 843.111 275.505 749.994 210.785 656.7C146.059 563.397 124.696 469.966 161.909 398.481C199.122 326.996 287.909 290.906 401.464 290.41C515.008 289.914 653.257 325.009 789.291 395.824Z" stroke="url(#paint28_linear_307_9190)" stroke-width="0.4"/>
<path d="M680.229 364.134C833.007 377.5 968.462 422.182 1063.96 483.607C1159.46 545.039 1214.95 623.182 1207.93 703.467C1200.91 783.751 1132.69 851.071 1027.97 894.985C923.256 938.895 782.1 959.376 629.321 946.01C476.542 932.643 341.088 887.962 245.592 826.536C150.088 765.105 94.5965 686.962 101.621 606.677C108.644 526.393 176.862 459.072 281.583 415.159C386.294 371.249 527.45 350.767 680.229 364.134Z" stroke="url(#paint29_linear_307_9190)" stroke-width="0.4"/>
<path d="M777.886 390.196C916.879 455.01 1028.88 543.325 1097.61 633.708C1166.34 724.099 1191.76 816.509 1157.7 889.549C1123.64 962.589 1036.52 1002.52 923.091 1007.97C809.677 1013.41 670.029 984.383 531.035 919.569C392.042 854.756 280.038 766.44 211.31 676.058C142.576 585.667 117.158 493.257 151.218 420.217C185.277 347.176 272.405 307.248 385.83 301.799C499.244 296.351 638.893 325.383 777.886 390.196Z" stroke="url(#paint30_linear_307_9190)" stroke-width="0.4"/>
<path d="M667.548 363.295C820.765 369.985 958.04 408.716 1056.12 465.917C1154.22 523.124 1213.06 598.772 1209.55 679.287C1206.03 759.801 1140.82 830.033 1038.11 878.473C935.415 926.908 795.287 953.527 642.07 946.838C488.854 940.148 351.579 901.418 253.495 844.216C155.402 787.009 96.5553 711.361 100.071 630.846C103.586 550.332 168.802 480.1 271.508 431.66C374.204 383.225 514.332 356.606 667.548 363.295Z" stroke="url(#paint31_linear_307_9190)" stroke-width="0.4"/>
<defs>
<linearGradient id="paint0_linear_307_9190" x1="141.938" y1="867.036" x2="1168.31" y2="441.9" gradientUnits="userSpaceOnUse">
<stop stop-color="#A246FF"/>
<stop offset="1" stop-color="#5E5BFF"/>
</linearGradient>
<linearGradient id="paint1_linear_307_9190" x1="1210.01" y1="629.092" x2="100.137" y2="677.551" gradientUnits="userSpaceOnUse">
<stop stop-color="#A246FF"/>
<stop offset="1" stop-color="#5E5BFF"/>
</linearGradient>
<linearGradient id="paint2_linear_307_9190" x1="151.724" y1="889.214" x2="1158.57" y2="419.713" gradientUnits="userSpaceOnUse">
<stop stop-color="#A246FF"/>
<stop offset="1" stop-color="#5E5BFF"/>
</linearGradient>
<linearGradient id="paint3_linear_307_9190" x1="1208.41" y1="604.907" x2="101.698" y2="701.731" gradientUnits="userSpaceOnUse">
<stop stop-color="#A246FF"/>
<stop offset="1" stop-color="#5E5BFF"/>
</linearGradient>
<linearGradient id="paint4_linear_307_9190" x1="162.468" y1="910.94" x2="1147.88" y2="397.967" gradientUnits="userSpaceOnUse">
<stop stop-color="#A246FF"/>
<stop offset="1" stop-color="#5E5BFF"/>
</linearGradient>
<linearGradient id="paint5_linear_307_9190" x1="1205.74" y1="580.815" x2="104.309" y2="725.822" gradientUnits="userSpaceOnUse">
<stop stop-color="#A246FF"/>
<stop offset="1" stop-color="#5E5BFF"/>
</linearGradient>
<linearGradient id="paint6_linear_307_9190" x1="174.148" y1="932.178" x2="1136.25" y2="376.711" gradientUnits="userSpaceOnUse">
<stop stop-color="#A246FF"/>
<stop offset="1" stop-color="#5E5BFF"/>
</linearGradient>
<linearGradient id="paint7_linear_307_9190" x1="1202.03" y1="556.86" x2="107.972" y2="749.772" gradientUnits="userSpaceOnUse">
<stop stop-color="#A246FF"/>
<stop offset="1" stop-color="#5E5BFF"/>
</linearGradient>
<linearGradient id="paint8_linear_307_9190" x1="186.744" y1="952.891" x2="1123.7" y2="355.986" gradientUnits="userSpaceOnUse">
<stop stop-color="#A246FF"/>
<stop offset="1" stop-color="#5E5BFF"/>
</linearGradient>
<linearGradient id="paint9_linear_307_9190" x1="1197.28" y1="533.091" x2="112.674" y2="773.542" gradientUnits="userSpaceOnUse">
<stop stop-color="#A246FF"/>
<stop offset="1" stop-color="#5E5BFF"/>
</linearGradient>
<linearGradient id="paint10_linear_307_9190" x1="200.231" y1="973.029" x2="1110.26" y2="335.823" gradientUnits="userSpaceOnUse">
<stop stop-color="#A246FF"/>
<stop offset="1" stop-color="#5E5BFF"/>
</linearGradient>
<linearGradient id="paint11_linear_307_9190" x1="1191.49" y1="509.553" x2="118.409" y2="797.084" gradientUnits="userSpaceOnUse">
<stop stop-color="#A246FF"/>
<stop offset="1" stop-color="#5E5BFF"/>
</linearGradient>
<linearGradient id="paint12_linear_307_9190" x1="214.585" y1="992.561" x2="1095.95" y2="316.267" gradientUnits="userSpaceOnUse">
<stop stop-color="#A246FF"/>
<stop offset="1" stop-color="#5E5BFF"/>
</linearGradient>
<linearGradient id="paint13_linear_307_9190" x1="1184.68" y1="486.286" x2="125.164" y2="820.35" gradientUnits="userSpaceOnUse">
<stop stop-color="#A246FF"/>
<stop offset="1" stop-color="#5E5BFF"/>
</linearGradient>
<linearGradient id="paint14_linear_307_9190" x1="1176.87" y1="463.343" x2="132.929" y2="843.305" gradientUnits="userSpaceOnUse">
<stop stop-color="#A246FF"/>
<stop offset="1" stop-color="#5E5BFF"/>
</linearGradient>
<linearGradient id="paint15_linear_307_9190" x1="108.396" y1="714.022" x2="1189.9" y2="487.022" gradientUnits="userSpaceOnUse">
<stop stop-color="#FF5959"/>
<stop offset="1" stop-color="#AF48FF"/>
</linearGradient>
<linearGradient id="paint16_linear_307_9190" x1="141.35" y1="442.497" x2="1167.72" y2="867.633" gradientUnits="userSpaceOnUse">
<stop stop-color="#FF5959"/>
<stop offset="1" stop-color="#AF48FF"/>
</linearGradient>
<linearGradient id="paint17_linear_307_9190" x1="132.601" y1="465.09" x2="1176.54" y2="845.052" gradientUnits="userSpaceOnUse">
<stop stop-color="#FF5959"/>
<stop offset="1" stop-color="#AF48FF"/>
</linearGradient>
<linearGradient id="paint18_linear_307_9190" x1="228.804" y1="297.761" x2="1079.83" y2="1011.86" gradientUnits="userSpaceOnUse">
<stop stop-color="#FF5959"/>
<stop offset="1" stop-color="#AF48FF"/>
</linearGradient>
<linearGradient id="paint19_linear_307_9190" x1="124.845" y1="488.042" x2="1184.36" y2="822.107" gradientUnits="userSpaceOnUse">
<stop stop-color="#FF5959"/>
<stop offset="1" stop-color="#AF48FF"/>
</linearGradient>
<linearGradient id="paint20_linear_307_9190" x1="213.657" y1="316.674" x2="1095.02" y2="992.968" gradientUnits="userSpaceOnUse">
<stop stop-color="#FF5959"/>
<stop offset="1" stop-color="#AF48FF"/>
</linearGradient>
<linearGradient id="paint21_linear_307_9190" x1="118.098" y1="511.31" x2="1191.18" y2="798.841" gradientUnits="userSpaceOnUse">
<stop stop-color="#FF5959"/>
<stop offset="1" stop-color="#AF48FF"/>
</linearGradient>
<linearGradient id="paint22_linear_307_9190" x1="199.353" y1="336.232" x2="1109.38" y2="973.438" gradientUnits="userSpaceOnUse">
<stop stop-color="#FF5959"/>
<stop offset="1" stop-color="#AF48FF"/>
</linearGradient>
<linearGradient id="paint23_linear_307_9190" x1="112.373" y1="534.85" x2="1196.97" y2="775.3" gradientUnits="userSpaceOnUse">
<stop stop-color="#FF5959"/>
<stop offset="1" stop-color="#AF48FF"/>
</linearGradient>
<linearGradient id="paint24_linear_307_9190" x1="185.91" y1="356.398" x2="1122.86" y2="953.303" gradientUnits="userSpaceOnUse">
<stop stop-color="#FF5959"/>
<stop offset="1" stop-color="#AF48FF"/>
</linearGradient>
<linearGradient id="paint25_linear_307_9190" x1="107.679" y1="558.62" x2="1201.74" y2="751.532" gradientUnits="userSpaceOnUse">
<stop stop-color="#FF5959"/>
<stop offset="1" stop-color="#AF48FF"/>
</linearGradient>
<linearGradient id="paint26_linear_307_9190" x1="173.364" y1="377.127" x2="1135.46" y2="932.595" gradientUnits="userSpaceOnUse">
<stop stop-color="#FF5959"/>
<stop offset="1" stop-color="#AF48FF"/>
</linearGradient>
<linearGradient id="paint27_linear_307_9190" x1="104.026" y1="582.571" x2="1205.46" y2="727.577" gradientUnits="userSpaceOnUse">
<stop stop-color="#FF5959"/>
<stop offset="1" stop-color="#AF48FF"/>
</linearGradient>
<linearGradient id="paint28_linear_307_9190" x1="161.732" y1="398.389" x2="1147.14" y2="911.361" gradientUnits="userSpaceOnUse">
<stop stop-color="#FF5959"/>
<stop offset="1" stop-color="#AF48FF"/>
</linearGradient>
<linearGradient id="paint29_linear_307_9190" x1="101.421" y1="606.66" x2="1208.13" y2="703.484" gradientUnits="userSpaceOnUse">
<stop stop-color="#FF5959"/>
<stop offset="1" stop-color="#AF48FF"/>
</linearGradient>
<linearGradient id="paint30_linear_307_9190" x1="151.036" y1="420.132" x2="1157.88" y2="889.633" gradientUnits="userSpaceOnUse">
<stop stop-color="#FF5959"/>
<stop offset="1" stop-color="#AF48FF"/>
</linearGradient>
<linearGradient id="paint31_linear_307_9190" x1="99.8708" y1="630.837" x2="1209.75" y2="679.296" gradientUnits="userSpaceOnUse">
<stop stop-color="#FF5959"/>
<stop offset="1" stop-color="#AF48FF"/>
</linearGradient>
</defs>
</svg>
