<svg width="1441" height="1439" viewBox="0 0 1441 1439" fill="none" xmlns="http://www.w3.org/2000/svg">
<path d="M887.836 732.955C896.167 645.007 884.929 563.881 860.036 503.815C835.138 443.74 796.605 404.784 750.373 401.056C704.142 397.327 658.869 429.525 623.054 484.703C587.244 539.873 560.924 617.971 552.593 705.918C544.263 793.866 555.5 874.992 580.394 935.058C605.292 995.133 643.825 1034.09 690.056 1037.82C736.288 1041.55 781.561 1009.35 817.376 954.17C853.185 899 879.506 820.903 887.836 732.955Z" stroke="url(#paint0_linear_389_6517)" stroke-width="0.4"/>
<path d="M869.113 795.839C910.507 717.304 931.308 637.635 931.484 572.321C931.661 506.997 911.209 456.09 870.171 434.975C829.132 413.86 775.191 426.491 721.122 464.086C667.06 501.675 612.92 564.19 571.526 642.726C530.132 721.261 509.331 800.93 509.155 866.244C508.978 931.568 529.43 982.475 570.468 1003.59C611.507 1024.71 665.448 1012.07 719.517 974.479C773.578 936.89 827.719 874.375 869.113 795.839Z" stroke="url(#paint1_linear_389_6517)" stroke-width="0.4"/>
<path d="M886.984 740.233C899.148 652.679 891.475 571.092 869.247 509.964C847.015 448.827 810.245 408.207 764.248 402.468C718.251 396.729 671.641 426.945 633.468 480.546C595.302 534.138 565.608 611.063 553.444 698.617C541.28 786.171 548.953 867.758 571.181 928.886C593.413 990.023 630.183 1030.64 676.18 1036.38C722.177 1042.12 768.787 1011.9 806.96 958.304C845.126 904.712 874.82 827.787 886.984 740.233Z" stroke="url(#paint2_linear_389_6517)" stroke-width="0.4"/>
<path d="M865.54 802.28C910.304 725.573 934.557 646.838 937.589 581.555C940.622 516.261 922.428 464.482 882.377 441.588C842.325 418.695 787.916 428.974 732.286 464.203C676.665 499.426 619.875 559.563 575.111 636.27C530.346 712.976 506.094 791.712 503.062 856.995C500.029 922.288 518.222 974.068 558.274 996.961C598.325 1019.85 652.735 1009.58 708.365 974.346C763.986 939.123 820.776 878.986 865.54 802.28Z" stroke="url(#paint3_linear_389_6517)" stroke-width="0.4"/>
<path d="M885.815 747.471C901.789 660.477 897.696 578.585 878.175 516.511C858.651 454.428 823.715 412.223 778.04 404.484C732.365 396.745 684.506 424.922 644.049 476.843C603.598 528.755 570.586 604.361 554.612 691.355C538.639 778.349 542.732 860.241 562.253 922.314C581.777 984.398 616.713 1026.6 662.387 1034.34C708.062 1042.08 755.921 1013.9 796.378 961.983C836.829 910.07 869.842 834.465 885.815 747.471Z" stroke="url(#paint4_linear_389_6517)" stroke-width="0.4"/>
<path d="M861.691 808.563C909.74 733.831 937.398 656.179 943.28 591.051C949.163 525.912 933.263 473.359 894.274 448.731C855.286 424.103 800.512 432.011 743.428 464.806C686.353 497.597 627.021 555.241 578.972 629.973C530.923 704.704 503.265 782.356 497.382 847.484C491.499 912.623 507.4 965.176 546.388 989.804C585.377 1014.43 640.151 1006.52 697.235 973.729C754.31 940.939 813.642 883.294 861.691 808.563Z" stroke="url(#paint5_linear_389_6517)" stroke-width="0.4"/>
<path d="M884.331 754.655C904.084 668.387 903.579 586.345 886.802 523.444C870.023 460.533 836.987 416.823 791.722 407.099C746.457 397.375 697.439 423.46 654.774 473.601C612.116 523.735 575.849 597.877 556.096 684.146C536.343 770.414 536.848 852.455 553.625 915.357C570.404 978.268 603.44 1021.98 648.705 1031.7C693.97 1041.43 742.988 1015.34 785.653 965.2C828.311 915.066 864.578 840.924 884.331 754.655Z" stroke="url(#paint6_linear_389_6517)" stroke-width="0.4"/>
<path d="M882.539 761.774C906.033 676.395 909.116 594.36 895.117 530.751C881.115 467.132 850.042 421.999 805.272 410.309C760.502 398.619 710.42 422.561 665.629 470.829C620.844 519.088 581.391 591.626 557.896 677.005C534.401 762.383 531.318 844.418 545.318 908.027C559.32 971.646 590.393 1016.78 635.163 1028.47C679.933 1040.16 730.015 1016.22 774.806 967.95C819.59 919.69 859.044 847.152 882.539 761.774Z" stroke="url(#paint7_linear_389_6517)" stroke-width="0.4"/>
<path d="M880.433 768.808C907.625 684.482 914.29 602.611 903.094 538.415C891.896 474.209 862.844 427.739 818.655 414.105C774.466 400.471 723.415 422.225 676.582 468.526C629.757 514.82 587.193 585.616 560.001 669.942C532.809 754.268 526.143 836.139 537.34 900.335C548.538 964.541 577.589 1011.01 621.778 1024.64C665.968 1038.28 717.019 1016.52 763.851 970.224C810.677 923.93 853.241 853.134 880.433 768.808Z" stroke="url(#paint8_linear_389_6517)" stroke-width="0.4"/>
<path d="M878.025 775.751C908.862 692.638 919.098 611.085 910.726 546.425C902.353 481.754 875.379 434.037 831.854 418.484C788.33 402.932 736.407 422.457 687.622 466.704C638.845 510.944 593.251 579.862 562.414 662.975C531.576 746.088 521.341 827.64 529.713 892.301C538.086 956.972 565.06 1004.69 608.584 1020.24C652.109 1035.79 704.032 1016.27 752.817 972.022C801.594 927.782 847.187 858.864 878.025 775.751Z" stroke="url(#paint9_linear_389_6517)" stroke-width="0.4"/>
<path d="M875.315 782.586C909.739 700.844 923.525 619.766 917.994 554.764C912.462 489.751 887.616 440.877 844.839 423.436C802.063 405.995 749.366 423.253 698.722 465.361C648.086 507.463 599.55 574.373 565.125 656.115C530.701 737.857 516.916 818.935 522.447 883.938C527.979 948.95 552.825 997.824 595.601 1015.27C638.378 1032.71 691.074 1015.45 741.718 973.34C792.354 931.238 840.891 864.328 875.315 782.586Z" stroke="url(#paint10_linear_389_6517)" stroke-width="0.4"/>
<path d="M552.47 720.47C551.845 808.702 570.142 888.445 600.219 946.045C630.302 1003.65 672.138 1039.07 718.575 1038.76C765.012 1038.45 807.353 1002.47 838.254 944.456C869.149 886.448 888.577 806.453 889.202 718.221C889.826 629.989 871.529 550.245 841.452 492.645C811.37 435.036 769.534 399.625 723.097 399.935C676.66 400.245 634.318 436.218 603.418 494.235C572.522 552.242 553.094 632.238 552.47 720.47Z" stroke="url(#paint11_linear_389_6517)" stroke-width="0.4"/>
<path d="M872.312 789.302C910.257 709.087 927.567 628.637 924.887 563.416C922.207 498.186 899.537 448.248 857.589 428.951C815.642 409.655 762.272 424.614 709.866 464.504C657.467 504.387 606.08 569.161 568.135 649.376C530.189 729.591 512.88 810.041 515.559 875.261C518.24 940.492 540.91 990.43 582.858 1009.73C624.805 1029.02 678.174 1014.06 730.581 974.174C782.98 934.291 834.367 869.517 872.312 789.302Z" stroke="url(#paint12_linear_389_6517)" stroke-width="0.4"/>
<path d="M552.683 713.159C548.201 801.333 562.983 881.844 590.494 940.733C618.01 999.631 658.233 1036.85 704.612 1038.56C750.99 1040.27 794.839 1006.15 828.229 949.503C861.613 892.86 884.509 813.738 888.991 725.565C893.473 637.391 878.691 556.879 851.179 497.99C823.663 439.092 783.441 401.873 737.062 400.162C690.683 398.452 646.835 432.569 613.445 489.221C580.061 545.863 557.165 624.985 552.683 713.159Z" stroke="url(#paint13_linear_389_6517)" stroke-width="0.4"/>
<path d="M827.512 847.772C895.675 790.598 945.356 724.507 970.582 663.875C995.809 603.237 996.564 548.094 966.94 512.775C937.315 477.456 882.882 468.603 818.779 482.893C754.683 497.182 680.954 534.604 612.791 591.777C544.628 648.951 494.946 715.042 469.721 775.674C444.493 836.312 443.738 891.455 473.363 926.774C502.987 962.093 557.42 970.946 621.523 956.655C685.62 942.367 759.349 904.945 827.512 847.772Z" stroke="url(#paint14_linear_389_6517)" stroke-width="0.25"/>
<path d="M704.593 887.165C792.658 894.268 874.157 881.939 934.731 856.271C995.31 830.601 1034.93 791.605 1039.3 745.389C1043.68 699.172 1012 654.426 957.164 619.448C902.335 584.473 824.389 559.286 736.324 552.184C648.259 545.081 566.76 557.41 506.187 583.078C445.607 608.748 405.99 647.744 401.612 693.96C397.235 740.177 428.919 784.923 483.754 819.901C538.583 854.876 616.528 880.063 704.593 887.165Z" stroke="url(#paint15_linear_389_6517)" stroke-width="0.25"/>
<path d="M769.717 879.63C854.267 852.532 925.262 810.092 971.695 763.387C1018.13 716.677 1039.98 665.729 1026.32 621.603C1012.66 577.476 966.05 548.469 901.681 537.272C837.319 526.077 755.234 532.699 670.684 559.797C586.134 586.895 515.139 629.336 468.706 676.041C422.267 722.75 400.418 773.698 414.081 817.825C427.745 861.951 474.351 890.959 538.72 902.155C603.082 913.35 685.167 906.729 769.717 879.63Z" stroke="url(#paint16_linear_389_6517)" stroke-width="0.25"/>
<path d="M821.76 852.389C892.317 798.202 944.812 734.296 972.649 674.783C1000.49 615.264 1003.65 560.173 975.621 523.577C947.587 486.982 893.625 475.763 828.997 487.259C764.375 498.753 689.124 532.954 618.566 587.14C548.009 641.327 495.514 705.234 467.677 764.746C439.837 824.265 436.672 879.356 464.706 915.952C492.74 952.547 546.701 963.766 611.329 952.27C675.951 940.776 751.202 906.576 821.76 852.389Z" stroke="url(#paint17_linear_389_6517)" stroke-width="0.25"/>
<path d="M697.31 886.421C784.928 897.353 866.839 888.575 928.441 865.553C990.049 842.527 1031.31 805.269 1037.7 759.26C1044.09 713.25 1014.42 667.141 961.195 629.789C907.981 592.44 831.258 563.87 743.64 552.938C656.022 542.006 574.111 550.783 512.509 573.806C450.901 596.831 409.64 634.089 403.248 680.099C396.856 726.108 426.535 772.218 479.755 809.57C532.969 846.918 609.692 875.489 697.31 886.421Z" stroke="url(#paint18_linear_389_6517)" stroke-width="0.25"/>
<path d="M762.66 881.721C848.264 858.312 921.004 818.975 969.409 774.307C1017.82 729.635 1041.86 679.656 1030.15 634.951C1018.44 590.245 973.17 559.219 909.391 545.226C845.618 531.234 763.371 534.281 677.767 557.69C592.163 581.099 519.423 620.435 471.019 665.103C422.61 709.776 398.567 759.755 410.279 804.46C421.992 849.166 467.257 880.191 531.036 894.185C594.809 908.177 677.057 905.13 762.66 881.721Z" stroke="url(#paint19_linear_389_6517)" stroke-width="0.25"/>
<path d="M815.814 856.752C888.631 805.655 943.839 744.056 974.236 685.775C1004.64 627.489 1010.2 572.555 983.815 534.752C957.425 496.95 904.038 483.387 839.007 492.066C773.982 500.744 697.353 531.658 624.535 582.755C551.718 633.852 496.51 695.451 466.113 753.732C435.713 812.018 430.144 866.952 456.534 904.755C482.924 942.557 536.311 956.12 601.342 947.441C666.367 938.763 742.996 907.85 815.814 856.752Z" stroke="url(#paint20_linear_389_6517)" stroke-width="0.25"/>
<path d="M755.526 883.504C842.02 863.828 916.368 827.671 966.65 785.125C1016.94 742.575 1043.13 693.66 1033.39 648.461C1023.65 603.261 979.811 570.277 916.743 553.513C853.681 536.75 771.428 536.217 684.933 555.893C598.439 575.568 524.091 611.725 473.809 654.271C423.522 696.821 397.33 745.736 407.07 790.936C416.809 836.135 460.648 869.12 523.716 885.884C586.778 902.646 669.031 903.18 755.526 883.504Z" stroke="url(#paint21_linear_389_6517)" stroke-width="0.25"/>
<path d="M809.687 860.857C884.626 812.946 942.442 753.771 975.34 696.834C1008.24 639.891 1016.2 585.219 991.508 546.281C966.812 507.343 914.101 491.462 848.792 497.308C783.489 503.153 705.626 530.721 630.687 578.632C555.748 626.542 497.932 685.717 465.034 742.654C432.133 799.597 424.17 854.269 448.866 893.207C473.562 932.145 526.273 948.026 591.583 942.18C656.886 936.335 734.748 908.767 809.687 860.857Z" stroke="url(#paint22_linear_389_6517)" stroke-width="0.25"/>
<path d="M857.525 815.35C908.773 742.727 939.79 666.295 948.513 601.431C957.237 536.561 943.661 483.298 905.776 456.958C867.891 430.618 812.822 436.154 754.383 466.459C695.95 496.76 634.181 551.812 582.933 624.434C531.684 697.056 500.668 773.489 491.945 838.352C483.221 903.223 496.797 956.485 534.682 982.825C572.567 1009.17 627.636 1003.63 686.075 973.325C744.508 943.023 806.277 887.972 857.525 815.35Z" stroke="url(#paint23_linear_389_6517)" stroke-width="0.25"/>
<path d="M748.322 884.976C835.543 869.071 911.356 836.162 963.421 795.819C1015.49 755.473 1043.78 707.715 1036.03 662.107C1028.29 616.5 985.957 581.619 923.72 562.116C861.489 542.615 779.387 538.503 692.166 554.408C604.945 570.312 529.132 603.221 477.067 643.564C424.997 683.911 396.707 731.669 404.455 777.276C412.202 822.883 454.531 857.764 516.768 877.267C578.999 896.768 661.101 900.88 748.322 884.976Z" stroke="url(#paint24_linear_389_6517)" stroke-width="0.25"/>
<path d="M803.39 864.694C880.308 820.062 940.622 763.423 975.959 707.938C1011.3 652.447 1021.64 598.14 998.686 558.142C975.731 518.143 923.796 499.973 858.332 502.975C792.875 505.977 713.928 530.146 637.01 574.779C560.092 619.411 499.778 676.05 464.441 731.535C429.101 787.026 418.759 841.333 441.714 881.331C464.67 921.33 516.604 939.5 582.068 936.498C647.525 933.496 726.473 909.327 803.39 864.694Z" stroke="url(#paint25_linear_389_6517)" stroke-width="0.25"/>
<path d="M853.143 821.285C907.488 750.918 941.799 675.862 953.345 611.401C964.892 546.933 953.666 493.099 916.992 465.119C880.317 437.14 825.092 440.277 765.418 468.028C705.75 495.776 641.67 548.12 587.325 618.487C532.981 688.853 498.67 763.909 487.124 828.37C475.577 892.838 486.803 946.673 523.477 974.652C560.151 1002.63 615.377 999.494 675.051 971.743C734.718 943.995 798.799 891.651 853.143 821.285Z" stroke="url(#paint26_linear_389_6517)" stroke-width="0.25"/>
<path d="M741.066 886.133C828.847 874.029 905.982 844.431 959.73 806.368C1013.48 768.302 1043.82 721.792 1038.08 675.863C1032.34 629.934 991.598 593.224 930.311 571.02C869.029 548.818 787.234 541.133 699.453 553.237C611.672 565.341 534.537 594.938 480.789 633.001C427.035 671.068 396.701 717.578 402.442 763.507C408.184 809.435 448.921 846.146 510.209 868.35C571.49 890.552 653.285 898.236 741.066 886.133Z" stroke="url(#paint27_linear_389_6517)" stroke-width="0.25"/>
<path d="M796.936 868.255C875.686 826.986 938.383 772.992 976.092 719.064C1013.8 665.13 1026.5 611.293 1005.33 570.309C984.164 529.326 933.104 508.902 867.61 509.054C802.123 509.206 722.242 529.932 643.492 571.201C564.741 612.471 502.044 666.465 464.336 720.393C426.624 774.327 413.924 828.164 435.094 869.147C456.264 910.131 507.324 930.554 572.817 930.402C638.304 930.25 718.186 909.525 796.936 868.255Z" stroke="url(#paint28_linear_389_6517)" stroke-width="0.25"/>
<path d="M848.511 827.025C905.849 759.048 943.388 685.511 957.735 621.575C972.084 557.633 963.229 503.328 927.836 473.763C892.442 444.197 837.165 444.93 776.37 470.075C715.581 495.216 649.311 544.753 591.974 612.73C534.637 680.707 497.097 754.243 482.75 818.18C468.402 882.122 477.256 936.426 512.65 965.992C548.044 995.558 603.321 994.825 664.116 969.68C724.904 944.539 791.174 895.002 848.511 827.025Z" stroke="url(#paint29_linear_389_6517)" stroke-width="0.25"/>
<path d="M733.771 886.974C821.945 878.695 900.254 852.464 955.583 816.754C1010.92 781.04 1043.24 735.866 1039.52 689.704C1035.79 643.542 996.723 605.071 936.501 580.208C876.286 555.347 794.954 544.106 706.779 552.385C618.605 560.664 540.296 586.895 484.967 622.605C429.632 658.32 397.311 703.493 401.035 749.655C404.759 795.818 443.827 834.288 504.049 859.152C564.265 884.013 645.597 895.254 733.771 886.974Z" stroke="url(#paint30_linear_389_6517)" stroke-width="0.25"/>
<path d="M790.336 871.534C870.769 833.706 935.729 782.46 975.738 730.192C1015.75 677.918 1030.78 624.652 1011.44 582.762C992.094 540.871 942.007 518.233 876.608 515.535C811.216 512.837 730.552 530.079 650.12 567.907C569.687 605.735 504.726 656.981 464.718 709.25C424.706 761.523 409.671 814.789 429.016 856.679C448.361 898.57 498.449 921.208 563.847 923.906C629.239 926.604 709.903 909.362 790.336 871.534Z" stroke="url(#paint31_linear_389_6517)" stroke-width="0.25"/>
<path d="M843.632 832.564C903.853 767.106 944.55 695.229 961.671 631.94C978.793 568.644 972.327 513.974 938.281 482.878C904.236 451.783 849.012 450.11 787.212 472.6C725.419 495.087 657.085 541.723 596.864 607.181C536.644 672.638 495.946 744.515 478.826 807.805C461.703 871.1 468.169 925.771 502.215 956.866C536.261 987.962 591.485 989.635 653.284 967.145C715.078 944.657 783.412 898.021 843.632 832.564Z" stroke="url(#paint32_linear_389_6517)" stroke-width="0.25"/>
<path d="M726.449 887.497C814.848 883.058 894.183 860.244 950.988 826.954C1007.8 793.66 1042.04 749.909 1040.35 703.601C1038.65 657.293 1001.32 617.136 942.279 589.66C883.244 562.188 802.53 547.411 714.131 551.851C625.731 556.29 546.397 579.104 489.592 612.394C432.781 645.687 398.534 689.438 400.234 735.746C401.933 782.054 439.259 822.211 498.3 849.687C557.335 877.16 638.049 891.936 726.449 887.497Z" stroke="url(#paint33_linear_389_6517)" stroke-width="0.25"/>
<path d="M783.602 874.524C865.564 840.21 932.665 791.808 974.897 741.299C1017.13 690.785 1034.47 638.193 1016.99 595.475C999.507 552.758 950.487 527.948 885.308 522.405C820.136 516.862 738.843 530.588 656.881 564.902C574.919 599.216 507.818 647.618 465.586 698.127C423.35 748.641 406.009 801.233 423.492 843.951C440.976 886.668 489.995 911.478 555.174 917.022C620.347 922.564 701.64 908.839 783.602 874.524Z" stroke="url(#paint34_linear_389_6517)" stroke-width="0.25"/>
<path d="M838.52 837.886C901.51 775.072 945.287 704.992 965.149 642.47C985.013 579.942 980.948 525.009 948.314 492.443C915.681 459.877 860.616 455.801 797.929 475.594C735.248 495.384 664.981 539.03 601.991 601.844C539.002 664.658 495.224 734.739 475.363 797.261C455.499 859.789 459.564 914.722 492.197 947.288C524.831 979.854 579.895 983.929 642.583 964.137C705.264 944.346 775.531 900.701 838.52 837.886Z" stroke="url(#paint35_linear_389_6517)" stroke-width="0.25"/>
<path d="M719.117 887.702C807.573 887.111 887.782 867.758 945.955 836.951C1004.13 806.142 1040.24 763.896 1040.57 717.531C1040.9 671.165 1005.38 629.398 947.637 599.363C889.895 569.33 809.952 551.047 721.496 551.638C633.039 552.228 552.83 571.582 494.657 602.388C436.479 633.197 400.372 675.443 400.044 721.809C399.716 768.174 435.228 809.942 492.976 839.977C550.718 870.009 630.66 888.293 719.117 887.702Z" stroke="url(#paint36_linear_389_6517)" stroke-width="0.25"/>
<path d="M776.747 877.221C860.082 846.485 929.196 801.021 973.571 752.367C1017.95 703.709 1037.56 651.89 1021.98 608.426C1006.39 564.963 958.529 538.029 893.693 529.651C828.864 521.274 747.097 531.457 663.762 562.193C580.427 592.928 511.313 638.393 466.938 687.046C422.559 735.704 402.945 787.523 418.533 830.987C434.121 874.45 481.98 901.385 546.816 909.762C611.645 918.139 693.412 907.956 776.747 877.221Z" stroke="url(#paint37_linear_389_6517)" stroke-width="0.25"/>
<path d="M833.184 842.986C898.823 782.935 945.597 714.784 968.162 653.149C990.729 591.507 989.072 536.416 957.914 502.442C926.755 468.467 871.954 461.996 808.498 479.054C745.049 496.11 672.983 536.682 607.344 596.733C541.705 656.784 494.931 724.935 472.366 786.57C449.799 848.212 451.456 903.303 482.614 937.277C513.773 971.252 568.574 977.723 632.029 960.665C695.479 943.609 767.545 903.037 833.184 842.986Z" stroke="url(#paint38_linear_389_6517)" stroke-width="0.25"/>
<path d="M711.787 887.587C800.132 890.846 881.063 874.99 940.492 846.726C999.928 818.459 1037.83 777.8 1040.18 731.465C1042.54 685.13 1008.91 641.832 952.561 609.294C896.222 576.76 817.203 555.004 728.858 551.745C640.513 548.486 559.582 564.342 500.152 592.606C440.717 620.873 402.819 661.532 400.464 707.867C398.109 754.202 431.739 797.5 488.084 830.038C544.423 862.572 623.442 884.328 711.787 887.587Z" stroke="url(#paint39_linear_389_6517)" stroke-width="0.25"/>
<path d="M559.199 771.724C585.2 855.694 626.765 925.928 672.939 971.6C719.12 1017.28 769.869 1038.35 814.256 1024.13C858.644 1009.9 888.356 963.04 900.464 898.679C912.57 834.327 907.063 752.538 881.063 668.567C855.062 584.597 813.496 514.364 767.322 468.691C721.141 423.011 670.393 401.936 626.005 416.163C581.618 430.389 551.906 477.251 539.798 541.612C527.692 605.964 533.198 687.754 559.199 771.724Z" stroke="url(#paint40_linear_389_6517)" stroke-width="0.4"/>
<path d="M853.902 617.414C800.555 547.774 737.218 496.29 677.952 469.343C618.676 442.391 563.523 440.002 526.48 468.45C489.438 496.898 477.447 550.853 488.081 615.161C498.713 679.459 531.958 754.052 585.305 823.691C638.652 893.331 701.988 944.814 761.255 971.762C820.531 998.714 875.684 1001.1 912.726 972.655C949.768 944.207 961.76 890.252 951.126 825.944C940.494 761.646 907.249 687.053 853.902 617.414Z" stroke="url(#paint41_linear_389_6517)" stroke-width="0.4"/>
<path d="M557.199 764.716C579.487 849.788 617.917 921.806 662.022 969.472C706.134 1017.14 755.881 1040.42 800.822 1028.13C845.763 1015.84 877.478 970.289 892.382 906.477C907.283 842.675 905.362 760.675 883.073 675.602C860.785 590.53 822.355 518.513 778.25 470.847C734.138 423.173 684.39 399.897 639.45 412.187C594.509 424.476 562.794 470.029 547.89 533.841C532.989 597.643 534.91 679.644 557.199 764.716Z" stroke="url(#paint42_linear_389_6517)" stroke-width="0.4"/>
<path d="M858.193 623.285C807.974 551.349 746.988 497.127 688.991 467.609C630.986 438.087 576.023 433.299 537.794 460.125C499.565 486.951 485.233 540.365 493.038 605.113C500.842 669.851 530.774 745.865 580.993 817.801C631.212 889.738 692.198 943.96 750.195 973.477C808.2 1003 863.163 1007.79 901.392 980.961C939.62 954.135 953.952 900.721 946.147 835.973C938.344 771.235 908.412 695.221 858.193 623.285Z" stroke="url(#paint43_linear_389_6517)" stroke-width="0.4"/>
<path d="M555.511 757.623C574.044 843.635 609.265 917.3 651.217 966.868C693.176 1016.44 741.829 1041.88 787.237 1031.55C832.646 1021.22 866.304 977.061 883.975 913.921C901.643 850.79 903.31 768.734 884.777 682.722C866.243 596.709 831.022 523.045 789.07 473.476C747.111 423.9 698.458 398.467 653.05 408.797C607.642 419.126 573.984 463.283 556.313 526.424C538.644 589.555 536.977 671.61 555.511 757.623Z" stroke="url(#paint44_linear_389_6517)" stroke-width="0.4"/>
<path d="M862.221 629.338C815.225 555.242 756.705 498.385 700.089 466.354C643.465 434.318 588.796 427.14 549.454 452.293C510.112 477.446 493.466 530.217 498.427 595.282C503.388 660.337 529.949 737.627 576.944 811.723C623.94 885.819 682.46 942.676 739.076 974.707C795.7 1006.74 850.369 1013.92 889.711 988.768C929.054 963.615 945.699 910.844 940.738 845.779C935.777 780.724 909.216 703.434 862.221 629.338Z" stroke="url(#paint45_linear_389_6517)" stroke-width="0.4"/>
<path d="M554.133 750.459C568.877 837.248 600.821 912.419 640.541 963.796C680.267 1015.18 727.732 1042.72 773.521 1034.37C819.311 1026.02 854.847 983.345 875.252 920.996C895.654 858.656 900.906 776.702 886.163 689.913C871.42 603.124 839.475 527.953 799.755 476.576C760.029 425.191 712.564 397.65 666.775 406C620.986 414.35 585.449 457.026 565.044 519.376C544.642 581.716 539.39 663.67 554.133 750.459Z" stroke="url(#paint46_linear_389_6517)" stroke-width="0.4"/>
<path d="M865.978 635.569C822.296 559.453 766.353 500.07 711.225 465.586C656.09 431.098 601.82 421.543 561.439 444.975C521.058 468.407 502.13 520.435 504.239 585.693C506.347 650.941 529.487 729.36 573.169 805.475C616.851 881.59 672.795 940.974 727.922 975.457C783.058 1009.95 837.327 1019.5 877.708 996.069C918.09 972.637 937.017 920.609 934.909 855.351C932.801 790.102 909.66 711.684 865.978 635.569Z" stroke="url(#paint47_linear_389_6517)" stroke-width="0.4"/>
<path d="M553.071 743.238C563.996 830.638 592.604 907.173 630.016 960.26C667.433 1013.36 713.62 1042.95 759.703 1036.6C805.787 1030.24 843.134 989.13 866.234 927.69C889.33 866.26 898.159 784.563 887.233 697.163C876.308 609.763 847.7 533.228 810.289 480.141C772.871 427.045 726.684 397.448 680.601 403.803C634.518 410.157 597.17 451.271 574.07 512.711C550.974 574.141 542.146 655.838 553.071 743.238Z" stroke="url(#paint48_linear_389_6517)" stroke-width="0.4"/>
<path d="M869.456 641.959C829.17 563.969 775.91 502.172 722.377 465.301C668.835 428.426 615.067 416.513 573.724 438.179C532.381 459.845 511.207 511.031 510.459 576.358C509.711 641.675 529.386 721.073 569.671 799.063C609.957 877.052 663.217 938.85 716.751 975.72C770.293 1012.6 824.06 1024.51 865.403 1002.84C906.747 981.176 927.92 929.99 928.669 864.663C929.417 799.346 909.742 719.948 869.456 641.959Z" stroke="url(#paint49_linear_389_6517)" stroke-width="0.4"/>
<path d="M552.326 735.973C559.412 823.817 584.629 901.571 619.661 956.267C654.698 1010.97 699.519 1042.57 745.809 1038.22C792.098 1033.88 831.186 994.401 856.937 933.988C882.683 873.584 895.071 792.3 887.984 704.455C880.898 616.611 855.681 538.858 820.649 484.161C785.612 429.456 740.791 397.86 694.501 402.206C648.212 406.553 609.124 446.028 583.374 506.441C557.627 566.844 545.24 648.128 552.326 735.973Z" stroke="url(#paint50_linear_389_6517)" stroke-width="0.4"/>
<path d="M872.65 648.497C835.837 568.782 785.362 504.688 733.524 465.501C681.678 426.309 628.515 412.06 586.288 431.919C544.062 451.779 520.683 502.026 517.079 567.297C513.476 632.559 529.648 712.785 566.461 792.5C603.274 872.215 653.749 936.309 705.587 975.496C757.433 1014.69 810.596 1028.94 852.823 1009.08C895.049 989.218 918.428 938.971 922.032 873.7C925.636 808.438 909.463 728.212 872.65 648.497Z" stroke="url(#paint51_linear_389_6517)" stroke-width="0.4"/>
<path d="M551.902 728.68C555.136 816.802 576.914 895.626 609.499 951.828C642.09 1008.04 685.46 1041.57 731.867 1039.24C778.275 1036.91 819.028 999.153 847.381 939.882C875.729 880.62 891.651 799.903 888.417 711.781C885.183 623.659 863.406 544.836 830.82 488.634C798.23 432.423 754.86 398.888 708.452 401.218C662.045 403.549 621.291 441.308 592.939 500.58C564.591 559.842 548.668 640.558 551.902 728.68Z" stroke="url(#paint52_linear_389_6517)" stroke-width="0.4"/>
<path d="M875.55 655.173C842.28 573.883 794.687 507.616 744.642 466.187C694.59 424.752 642.133 408.195 599.104 426.209C556.074 444.224 530.535 493.436 524.082 558.528C517.63 623.609 530.269 704.511 563.539 785.8C596.809 867.09 644.403 933.357 694.447 974.786C744.499 1016.22 796.956 1032.78 839.985 1014.76C883.015 996.749 908.555 947.537 915.007 882.446C921.459 817.364 908.82 736.462 875.55 655.173Z" stroke="url(#paint53_linear_389_6517)" stroke-width="0.4"/>
<path d="M878.158 661.973C848.494 579.265 803.872 510.95 755.717 467.357C707.555 423.758 655.903 404.924 612.153 421.06C568.403 437.196 540.75 485.279 531.461 550.067C522.173 614.845 531.255 696.268 560.918 778.977C590.582 861.686 635.204 930.001 683.359 973.593C731.521 1017.19 783.173 1036.03 826.923 1019.89C870.673 1003.75 898.326 955.671 907.615 890.883C916.903 826.105 907.821 744.682 878.158 661.973Z" stroke="url(#paint54_linear_389_6517)" stroke-width="0.4"/>
<path d="M929.064 637.614C872.691 570.404 807.125 521.756 746.701 497.43C686.267 473.099 631.029 473.115 595.244 503.13C559.459 533.146 549.831 587.539 563.273 651.284C576.713 715.02 613.209 788.051 669.582 855.26C725.956 922.47 791.521 971.117 851.946 995.444C912.379 1019.77 967.617 1019.76 1003.4 989.744C1039.19 959.728 1048.82 905.335 1035.37 841.59C1021.93 777.854 985.438 704.823 929.064 637.614Z" stroke="url(#paint55_linear_389_6517)" stroke-width="0.4"/>
<path d="M721.034 895.322C799.198 935.539 878.781 955.196 944.257 954.473C1009.74 953.75 1061.06 932.647 1082.8 891.412C1104.53 850.178 1092.61 796.536 1055.66 743.11C1018.72 689.693 956.793 636.539 878.629 596.322C800.465 556.105 720.881 536.449 655.405 537.171C589.919 537.894 538.601 558.998 516.867 600.232C495.133 641.467 507.055 695.109 544.001 748.534C580.941 801.952 642.869 855.106 721.034 895.322Z" stroke="url(#paint56_linear_389_6517)" stroke-width="0.4"/>
<path d="M714.633 891.855C790.918 935.459 869.518 958.572 934.924 960.699C1000.34 962.826 1052.5 943.964 1076 903.689C1099.51 863.414 1089.95 809.273 1055.4 754.258C1020.85 699.252 961.344 643.422 885.059 599.818C808.775 556.214 730.175 533.101 664.769 530.974C599.353 528.847 547.191 547.709 523.688 587.984C500.185 628.258 509.743 682.4 544.295 737.415C578.842 792.421 638.349 848.251 714.633 891.855Z" stroke="url(#paint57_linear_389_6517)" stroke-width="0.4"/>
<path d="M769.229 911.424C856.224 926.163 938.379 920.953 1000.88 900.624C1063.39 880.291 1106.18 844.856 1114.57 799.181C1122.95 753.506 1095.36 706.146 1043.87 666.498C992.38 626.856 917.038 594.96 830.044 580.221C743.05 565.481 660.894 570.691 598.395 591.021C535.886 611.353 493.094 646.788 484.707 692.463C476.32 738.138 503.91 785.498 555.406 825.147C606.893 864.789 682.235 896.684 769.229 911.424Z" stroke="url(#paint58_linear_389_6517)" stroke-width="0.4"/>
<path d="M708.393 888.109C782.652 935.017 860.12 961.543 925.331 966.515C990.553 971.488 1043.46 954.902 1068.69 915.665C1093.91 876.427 1086.74 821.888 1054.65 765.39C1022.56 708.899 965.585 650.499 891.325 603.591C817.066 556.682 739.599 530.157 674.387 525.184C609.166 520.211 556.26 536.797 531.032 576.035C505.804 615.273 512.98 669.811 545.072 726.31C577.16 782.8 634.134 841.2 708.393 888.109Z" stroke="url(#paint59_linear_389_6517)" stroke-width="0.4"/>
<path d="M762.051 910.046C848.265 928.566 930.521 926.933 993.812 909.331C1057.11 891.726 1101.39 858.165 1111.76 812.871C1122.13 767.577 1096.65 719.033 1046.97 677.158C997.3 635.289 923.469 600.126 837.254 581.606C751.04 563.086 668.784 564.719 605.493 582.321C542.192 599.927 497.916 633.487 487.545 678.781C477.174 724.075 502.65 772.619 552.332 814.495C602.005 856.363 675.836 891.526 762.051 910.046Z" stroke="url(#paint60_linear_389_6517)" stroke-width="0.4"/>
<path d="M702.327 884.091C774.42 934.214 850.607 964.101 915.5 971.91C980.402 979.72 1033.95 965.442 1060.86 927.316C1087.76 889.19 1082.98 834.358 1053.41 776.483C1023.84 718.616 969.51 657.757 897.417 607.634C825.325 557.51 749.138 527.623 684.245 519.814C619.342 512.004 565.793 526.282 538.889 564.408C511.984 602.535 516.763 657.366 546.335 715.242C575.903 773.109 630.234 833.967 702.327 884.091Z" stroke="url(#paint61_linear_389_6517)" stroke-width="0.4"/>
<path d="M754.942 908.36C840.213 930.625 922.413 932.573 986.375 917.731C1050.35 902.886 1096.02 871.265 1108.36 826.438C1120.69 781.611 1097.38 731.975 1049.61 687.952C1001.84 643.937 929.663 605.573 844.392 583.308C759.121 561.042 676.922 559.095 612.959 573.937C548.987 588.781 503.312 620.403 490.976 665.23C478.641 710.057 501.955 759.693 549.728 803.716C597.493 847.731 669.671 886.094 754.942 908.36Z" stroke="url(#paint62_linear_389_6517)" stroke-width="0.4"/>
<path d="M696.448 879.814C766.237 933.057 840.999 966.249 905.45 976.879C969.91 987.511 1024 975.568 1052.53 938.626C1081.06 901.684 1078.69 846.664 1051.69 787.522C1024.7 728.389 973.114 665.187 903.325 611.944C833.536 558.701 758.774 525.509 694.323 514.879C629.863 504.247 575.773 516.19 547.243 553.132C518.712 590.074 521.087 645.094 548.082 704.236C575.074 763.369 626.659 826.571 696.448 879.814Z" stroke="url(#paint63_linear_389_6517)" stroke-width="0.4"/>
<path d="M747.918 906.359C832.083 932.327 914.07 937.851 978.582 925.798C1043.1 913.743 1090.09 884.12 1104.37 839.845C1118.65 795.571 1097.54 744.938 1051.76 698.852C1006 652.773 935.609 611.282 851.444 585.314C767.279 559.345 685.292 553.822 620.78 565.875C556.258 577.93 509.271 607.553 494.994 651.828C480.717 696.102 501.825 746.735 547.598 792.821C593.365 838.9 663.754 880.391 747.918 906.359Z" stroke="url(#paint64_linear_389_6517)" stroke-width="0.4"/>
<path d="M690.765 875.279C758.117 931.541 831.312 967.974 895.198 981.405C959.093 994.838 1013.62 985.254 1043.72 949.566C1073.82 913.879 1073.86 858.775 1049.49 798.479C1025.13 738.192 976.387 672.767 909.035 616.506C841.683 560.244 768.488 523.81 704.602 510.38C640.707 496.947 586.179 506.531 556.077 542.218C525.975 577.906 525.94 633.01 550.307 693.306C574.671 753.593 623.413 819.017 690.765 875.279Z" stroke="url(#paint65_linear_389_6517)" stroke-width="0.4"/>
<path d="M740.994 904.059C823.892 933.681 905.51 942.77 970.449 933.529C1035.4 924.286 1083.61 896.718 1099.8 853.08C1115.99 809.442 1097.13 757.908 1053.44 709.847C1009.76 661.792 941.296 617.253 858.398 587.631C775.499 558.009 693.881 548.92 628.942 558.161C563.993 567.404 515.784 594.972 499.593 638.61C483.402 682.248 502.262 733.781 545.95 781.843C589.63 829.898 658.095 874.437 740.994 904.059Z" stroke="url(#paint66_linear_389_6517)" stroke-width="0.4"/>
<path d="M685.287 870.501C750.074 929.674 821.562 969.28 884.762 985.486C947.97 1001.69 1002.83 994.487 1034.45 960.122C1066.06 925.757 1068.51 870.674 1046.82 809.338C1025.13 748.012 979.322 680.49 914.535 621.317C849.747 562.144 778.259 522.538 715.06 506.332C651.851 490.123 596.988 497.331 565.373 531.696C533.757 566.061 531.312 621.144 553.005 682.48C574.695 743.806 620.5 811.328 685.287 870.501Z" stroke="url(#paint67_linear_389_6517)" stroke-width="0.4"/>
<path d="M734.18 901.455C815.655 934.674 896.749 947.312 961.991 940.9C1027.24 934.487 1076.58 909.027 1094.66 866.109C1112.73 823.191 1096.15 770.854 1054.64 720.908C1013.12 670.97 946.714 623.467 865.239 590.248C783.765 557.029 702.671 544.391 637.429 550.803C572.176 557.217 522.836 582.677 504.762 625.595C486.688 668.513 503.265 720.849 544.783 770.795C586.295 820.733 652.706 868.236 734.18 901.455Z" stroke="url(#paint68_linear_389_6517)" stroke-width="0.4"/>
<path d="M680.028 865.485C742.127 927.456 811.772 970.159 874.165 989.11C936.566 1008.06 991.659 1003.25 1024.73 970.269C1057.8 937.292 1062.65 882.334 1043.67 820.077C1024.7 757.828 981.915 688.336 919.816 626.365C857.717 564.393 788.072 521.69 725.68 502.739C663.278 483.786 608.185 488.604 575.116 521.581C542.046 554.558 537.196 609.515 556.173 671.773C575.147 734.021 617.929 803.513 680.028 865.485Z" stroke="url(#paint69_linear_389_6517)" stroke-width="0.4"/>
<path d="M727.49 898.555C807.385 935.307 887.8 951.47 953.222 947.899C1018.65 944.328 1069.03 921.024 1088.95 878.907C1108.88 836.791 1094.61 783.751 1055.34 732.016C1016.08 680.289 951.85 629.913 871.955 593.16C792.059 556.407 711.644 540.245 646.222 543.815C580.791 547.387 530.414 570.691 510.491 612.807C490.568 654.924 504.831 707.963 544.101 759.698C583.364 811.425 647.594 861.802 727.49 898.555Z" stroke="url(#paint70_linear_389_6517)" stroke-width="0.4"/>
<path d="M674.994 860.244C734.287 924.896 801.957 970.615 863.424 992.274C924.9 1013.94 980.118 1011.52 1014.58 979.992C1049.04 948.465 1056.28 893.738 1040.06 830.676C1023.84 767.624 984.16 696.295 924.867 631.643C865.574 566.991 797.905 521.272 736.438 499.613C674.962 477.95 619.744 480.369 585.284 511.895C550.824 543.422 543.578 598.149 559.803 661.21C576.025 724.263 615.701 795.592 674.994 860.244Z" stroke="url(#paint71_linear_389_6517)" stroke-width="0.4"/>
<defs>
<linearGradient id="paint0_linear_389_6517" x1="690.038" y1="1038.02" x2="741.481" y2="400.138" gradientUnits="userSpaceOnUse">
<stop stop-color="#FF8159"/>
<stop offset="1" stop-color="#6200EE"/>
</linearGradient>
<linearGradient id="paint1_linear_389_6517" x1="570.374" y1="1003.77" x2="864.615" y2="431.89" gradientUnits="userSpaceOnUse">
<stop stop-color="#FF8159"/>
<stop offset="1" stop-color="#6200EE"/>
</linearGradient>
<linearGradient id="paint2_linear_389_6517" x1="676.152" y1="1036.58" x2="755.433" y2="401.167" gradientUnits="userSpaceOnUse">
<stop stop-color="#FF8159"/>
<stop offset="1" stop-color="#6200EE"/>
</linearGradient>
<linearGradient id="paint3_linear_389_6517" x1="558.172" y1="997.135" x2="877.462" y2="438.547" gradientUnits="userSpaceOnUse">
<stop stop-color="#FF8159"/>
<stop offset="1" stop-color="#6200EE"/>
</linearGradient>
<linearGradient id="paint4_linear_389_6517" x1="662.351" y1="1034.54" x2="769.385" y2="402.814" gradientUnits="userSpaceOnUse">
<stop stop-color="#FF8159"/>
<stop offset="1" stop-color="#6200EE"/>
</linearGradient>
<linearGradient id="paint5_linear_389_6517" x1="546.279" y1="989.974" x2="890.023" y2="445.807" gradientUnits="userSpaceOnUse">
<stop stop-color="#FF8159"/>
<stop offset="1" stop-color="#6200EE"/>
</linearGradient>
<linearGradient id="paint6_linear_389_6517" x1="648.66" y1="1031.9" x2="783.308" y2="405.087" gradientUnits="userSpaceOnUse">
<stop stop-color="#FF8159"/>
<stop offset="1" stop-color="#6200EE"/>
</linearGradient>
<linearGradient id="paint7_linear_389_6517" x1="635.11" y1="1028.66" x2="797.177" y2="407.988" gradientUnits="userSpaceOnUse">
<stop stop-color="#FF8159"/>
<stop offset="1" stop-color="#6200EE"/>
</linearGradient>
<linearGradient id="paint8_linear_389_6517" x1="621.717" y1="1024.84" x2="810.951" y2="411.518" gradientUnits="userSpaceOnUse">
<stop stop-color="#FF8159"/>
<stop offset="1" stop-color="#6200EE"/>
</linearGradient>
<linearGradient id="paint9_linear_389_6517" x1="608.515" y1="1020.43" x2="824.608" y2="415.682" gradientUnits="userSpaceOnUse">
<stop stop-color="#FF8159"/>
<stop offset="1" stop-color="#6200EE"/>
</linearGradient>
<linearGradient id="paint10_linear_389_6517" x1="595.523" y1="1015.45" x2="838.109" y2="420.475" gradientUnits="userSpaceOnUse">
<stop stop-color="#FF8159"/>
<stop offset="1" stop-color="#6200EE"/>
</linearGradient>
<linearGradient id="paint11_linear_389_6517" x1="723.098" y1="399.735" x2="727.367" y2="1038.9" gradientUnits="userSpaceOnUse">
<stop stop-color="#6200EE"/>
<stop offset="1" stop-color="#FF8159"/>
</linearGradient>
<linearGradient id="paint12_linear_389_6517" x1="582.772" y1="1009.91" x2="851.425" y2="425.895" gradientUnits="userSpaceOnUse">
<stop stop-color="#FF8159"/>
<stop offset="1" stop-color="#6200EE"/>
</linearGradient>
<linearGradient id="paint13_linear_389_6517" x1="737.072" y1="399.963" x2="713.496" y2="1039.09" gradientUnits="userSpaceOnUse">
<stop stop-color="#6200EE"/>
<stop offset="1" stop-color="#FF8159"/>
</linearGradient>
<linearGradient id="paint14_linear_389_6517" x1="473.266" y1="926.855" x2="967.036" y2="512.694" gradientUnits="userSpaceOnUse">
<stop stop-color="#FF8159"/>
<stop offset="1" stop-color="#6200EE"/>
</linearGradient>
<linearGradient id="paint15_linear_389_6517" x1="401.488" y1="693.95" x2="1038.59" y2="754.299" gradientUnits="userSpaceOnUse">
<stop stop-color="#FF8159"/>
<stop offset="1" stop-color="#6200EE"/>
</linearGradient>
<linearGradient id="paint16_linear_389_6517" x1="413.962" y1="817.863" x2="1028.32" y2="627.633" gradientUnits="userSpaceOnUse">
<stop stop-color="#FF8159"/>
<stop offset="1" stop-color="#6200EE"/>
</linearGradient>
<linearGradient id="paint17_linear_389_6517" x1="464.606" y1="916.028" x2="976.198" y2="524.124" gradientUnits="userSpaceOnUse">
<stop stop-color="#FF8159"/>
<stop offset="1" stop-color="#6200EE"/>
</linearGradient>
<linearGradient id="paint18_linear_389_6517" x1="403.124" y1="680.083" x2="1036.6" y2="768.091" gradientUnits="userSpaceOnUse">
<stop stop-color="#FF8159"/>
<stop offset="1" stop-color="#6200EE"/>
</linearGradient>
<linearGradient id="paint19_linear_389_6517" x1="410.158" y1="804.493" x2="1032.01" y2="641.572" gradientUnits="userSpaceOnUse">
<stop stop-color="#FF8159"/>
<stop offset="1" stop-color="#6200EE"/>
</linearGradient>
<linearGradient id="paint20_linear_389_6517" x1="456.431" y1="904.827" x2="984.813" y2="535.962" gradientUnits="userSpaceOnUse">
<stop stop-color="#FF8159"/>
<stop offset="1" stop-color="#6200EE"/>
</linearGradient>
<linearGradient id="paint21_linear_389_6517" x1="406.947" y1="790.964" x2="1035.06" y2="655.621" gradientUnits="userSpaceOnUse">
<stop stop-color="#FF8159"/>
<stop offset="1" stop-color="#6200EE"/>
</linearGradient>
<linearGradient id="paint22_linear_389_6517" x1="448.76" y1="893.275" x2="992.862" y2="548.18" gradientUnits="userSpaceOnUse">
<stop stop-color="#FF8159"/>
<stop offset="1" stop-color="#6200EE"/>
</linearGradient>
<linearGradient id="paint23_linear_389_6517" x1="534.609" y1="982.928" x2="902.156" y2="454.288" gradientUnits="userSpaceOnUse">
<stop stop-color="#FF8159"/>
<stop offset="1" stop-color="#6200EE"/>
</linearGradient>
<linearGradient id="paint24_linear_389_6517" x1="404.331" y1="777.298" x2="1037.46" y2="669.744" gradientUnits="userSpaceOnUse">
<stop stop-color="#FF8159"/>
<stop offset="1" stop-color="#6200EE"/>
</linearGradient>
<linearGradient id="paint25_linear_389_6517" x1="441.606" y1="881.395" x2="1000.33" y2="560.748" gradientUnits="userSpaceOnUse">
<stop stop-color="#FF8159"/>
<stop offset="1" stop-color="#6200EE"/>
</linearGradient>
<linearGradient id="paint26_linear_389_6517" x1="523.4" y1="974.752" x2="914.045" y2="462.713" gradientUnits="userSpaceOnUse">
<stop stop-color="#FF8159"/>
<stop offset="1" stop-color="#6200EE"/>
</linearGradient>
<linearGradient id="paint27_linear_389_6517" x1="402.318" y1="763.524" x2="1039.21" y2="683.91" gradientUnits="userSpaceOnUse">
<stop stop-color="#FF8159"/>
<stop offset="1" stop-color="#6200EE"/>
</linearGradient>
<linearGradient id="paint28_linear_389_6517" x1="434.982" y1="869.206" x2="1007.19" y2="573.629" gradientUnits="userSpaceOnUse">
<stop stop-color="#FF8159"/>
<stop offset="1" stop-color="#6200EE"/>
</linearGradient>
<linearGradient id="paint29_linear_389_6517" x1="512.569" y1="966.088" x2="925.554" y2="471.693" gradientUnits="userSpaceOnUse">
<stop stop-color="#FF8159"/>
<stop offset="1" stop-color="#6200EE"/>
</linearGradient>
<linearGradient id="paint30_linear_389_6517" x1="400.91" y1="749.667" x2="1040.32" y2="698.086" gradientUnits="userSpaceOnUse">
<stop stop-color="#FF8159"/>
<stop offset="1" stop-color="#6200EE"/>
</linearGradient>
<linearGradient id="paint31_linear_389_6517" x1="428.902" y1="856.733" x2="1013.44" y2="586.791" gradientUnits="userSpaceOnUse">
<stop stop-color="#FF8159"/>
<stop offset="1" stop-color="#6200EE"/>
</linearGradient>
<linearGradient id="paint32_linear_389_6517" x1="502.13" y1="956.959" x2="936.646" y2="481.214" gradientUnits="userSpaceOnUse">
<stop stop-color="#FF8159"/>
<stop offset="1" stop-color="#6200EE"/>
</linearGradient>
<linearGradient id="paint33_linear_389_6517" x1="400.109" y1="735.753" x2="1040.79" y2="712.24" gradientUnits="userSpaceOnUse">
<stop stop-color="#FF8159"/>
<stop offset="1" stop-color="#6200EE"/>
</linearGradient>
<linearGradient id="paint34_linear_389_6517" x1="423.376" y1="843.999" x2="1019.06" y2="600.2" gradientUnits="userSpaceOnUse">
<stop stop-color="#FF8159"/>
<stop offset="1" stop-color="#6200EE"/>
</linearGradient>
<linearGradient id="paint35_linear_389_6517" x1="492.108" y1="947.377" x2="947.297" y2="491.25" gradientUnits="userSpaceOnUse">
<stop stop-color="#FF8159"/>
<stop offset="1" stop-color="#6200EE"/>
</linearGradient>
<linearGradient id="paint36_linear_389_6517" x1="399.919" y1="721.809" x2="1040.63" y2="726.345" gradientUnits="userSpaceOnUse">
<stop stop-color="#FF8159"/>
<stop offset="1" stop-color="#6200EE"/>
</linearGradient>
<linearGradient id="paint37_linear_389_6517" x1="418.415" y1="831.03" x2="1024.04" y2="613.821" gradientUnits="userSpaceOnUse">
<stop stop-color="#FF8159"/>
<stop offset="1" stop-color="#6200EE"/>
</linearGradient>
<linearGradient id="paint38_linear_389_6517" x1="482.521" y1="937.362" x2="957.476" y2="501.778" gradientUnits="userSpaceOnUse">
<stop stop-color="#FF8159"/>
<stop offset="1" stop-color="#6200EE"/>
</linearGradient>
<linearGradient id="paint39_linear_389_6517" x1="400.339" y1="707.863" x2="1039.85" y2="740.37" gradientUnits="userSpaceOnUse">
<stop stop-color="#FF8159"/>
<stop offset="1" stop-color="#6200EE"/>
</linearGradient>
<linearGradient id="paint40_linear_389_6517" x1="625.946" y1="415.972" x2="820.306" y2="1022.4" gradientUnits="userSpaceOnUse">
<stop stop-color="#A246FF"/>
<stop offset="1" stop-color="#5E5BFF"/>
</linearGradient>
<linearGradient id="paint41_linear_389_6517" x1="912.848" y1="972.813" x2="525.745" y2="468.763" gradientUnits="userSpaceOnUse">
<stop stop-color="#A246FF"/>
<stop offset="1" stop-color="#5E5BFF"/>
</linearGradient>
<linearGradient id="paint42_linear_389_6517" x1="639.399" y1="411.993" x2="807.45" y2="1026.53" gradientUnits="userSpaceOnUse">
<stop stop-color="#A246FF"/>
<stop offset="1" stop-color="#5E5BFF"/>
</linearGradient>
<linearGradient id="paint43_linear_389_6517" x1="901.506" y1="981.125" x2="536.417" y2="460.847" gradientUnits="userSpaceOnUse">
<stop stop-color="#A246FF"/>
<stop offset="1" stop-color="#5E5BFF"/>
</linearGradient>
<linearGradient id="paint44_linear_389_6517" x1="653.008" y1="408.601" x2="794.392" y2="1030.12" gradientUnits="userSpaceOnUse">
<stop stop-color="#A246FF"/>
<stop offset="1" stop-color="#5E5BFF"/>
</linearGradient>
<linearGradient id="paint45_linear_389_6517" x1="889.818" y1="988.937" x2="547.41" y2="453.362" gradientUnits="userSpaceOnUse">
<stop stop-color="#A246FF"/>
<stop offset="1" stop-color="#5E5BFF"/>
</linearGradient>
<linearGradient id="paint46_linear_389_6517" x1="666.741" y1="405.803" x2="781.145" y2="1033.18" gradientUnits="userSpaceOnUse">
<stop stop-color="#A246FF"/>
<stop offset="1" stop-color="#5E5BFF"/>
</linearGradient>
<linearGradient id="paint47_linear_389_6517" x1="877.808" y1="996.242" x2="558.712" y2="446.326" gradientUnits="userSpaceOnUse">
<stop stop-color="#A246FF"/>
<stop offset="1" stop-color="#5E5BFF"/>
</linearGradient>
<linearGradient id="paint48_linear_389_6517" x1="680.576" y1="403.604" x2="767.731" y2="1035.69" gradientUnits="userSpaceOnUse">
<stop stop-color="#A246FF"/>
<stop offset="1" stop-color="#5E5BFF"/>
</linearGradient>
<linearGradient id="paint49_linear_389_6517" x1="865.495" y1="1003.02" x2="570.307" y2="439.744" gradientUnits="userSpaceOnUse">
<stop stop-color="#A246FF"/>
<stop offset="1" stop-color="#5E5BFF"/>
</linearGradient>
<linearGradient id="paint50_linear_389_6517" x1="694.485" y1="402.007" x2="754.169" y2="1037.64" gradientUnits="userSpaceOnUse">
<stop stop-color="#A246FF"/>
<stop offset="1" stop-color="#5E5BFF"/>
</linearGradient>
<linearGradient id="paint51_linear_389_6517" x1="852.907" y1="1009.26" x2="582.184" y2="433.629" gradientUnits="userSpaceOnUse">
<stop stop-color="#A246FF"/>
<stop offset="1" stop-color="#5E5BFF"/>
</linearGradient>
<linearGradient id="paint52_linear_389_6517" x1="708.445" y1="401.018" x2="740.484" y2="1039.01" gradientUnits="userSpaceOnUse">
<stop stop-color="#A246FF"/>
<stop offset="1" stop-color="#5E5BFF"/>
</linearGradient>
<linearGradient id="paint53_linear_389_6517" x1="840.061" y1="1014.95" x2="594.325" y2="427.993" gradientUnits="userSpaceOnUse">
<stop stop-color="#A246FF"/>
<stop offset="1" stop-color="#5E5BFF"/>
</linearGradient>
<linearGradient id="paint54_linear_389_6517" x1="826.991" y1="1020.08" x2="606.722" y2="422.85" gradientUnits="userSpaceOnUse">
<stop stop-color="#A246FF"/>
<stop offset="1" stop-color="#5E5BFF"/>
</linearGradient>
<linearGradient id="paint55_linear_389_6517" x1="625.256" y1="484.47" x2="925.086" y2="1041.43" gradientUnits="userSpaceOnUse">
<stop stop-color="#FF5959"/>
<stop offset="1" stop-color="#AF48FF"/>
</linearGradient>
<linearGradient id="paint56_linear_389_6517" x1="516.689" y1="600.141" x2="1080.04" y2="897.069" gradientUnits="userSpaceOnUse">
<stop stop-color="#FF5959"/>
<stop offset="1" stop-color="#AF48FF"/>
</linearGradient>
<linearGradient id="paint57_linear_389_6517" x1="523.514" y1="587.885" x2="1073.3" y2="908.725" gradientUnits="userSpaceOnUse">
<stop stop-color="#FF5959"/>
<stop offset="1" stop-color="#AF48FF"/>
</linearGradient>
<linearGradient id="paint58_linear_389_6517" x1="484.51" y1="692.43" x2="1113.18" y2="807.864" gradientUnits="userSpaceOnUse">
<stop stop-color="#FF5959"/>
<stop offset="1" stop-color="#AF48FF"/>
</linearGradient>
<linearGradient id="paint59_linear_389_6517" x1="530.863" y1="575.928" x2="1066.1" y2="920.06" gradientUnits="userSpaceOnUse">
<stop stop-color="#FF5959"/>
<stop offset="1" stop-color="#AF48FF"/>
</linearGradient>
<linearGradient id="paint60_linear_389_6517" x1="487.35" y1="678.739" x2="1110.03" y2="821.316" gradientUnits="userSpaceOnUse">
<stop stop-color="#FF5959"/>
<stop offset="1" stop-color="#AF48FF"/>
</linearGradient>
<linearGradient id="paint61_linear_389_6517" x1="538.724" y1="564.294" x2="1058.46" y2="931.061" gradientUnits="userSpaceOnUse">
<stop stop-color="#FF5959"/>
<stop offset="1" stop-color="#AF48FF"/>
</linearGradient>
<linearGradient id="paint62_linear_389_6517" x1="490.783" y1="665.18" x2="1106.33" y2="834.569" gradientUnits="userSpaceOnUse">
<stop stop-color="#FF5959"/>
<stop offset="1" stop-color="#AF48FF"/>
</linearGradient>
<linearGradient id="paint63_linear_389_6517" x1="547.084" y1="553.01" x2="1050.39" y2="941.719" gradientUnits="userSpaceOnUse">
<stop stop-color="#FF5959"/>
<stop offset="1" stop-color="#AF48FF"/>
</linearGradient>
<linearGradient id="paint64_linear_389_6517" x1="494.803" y1="651.769" x2="1102.08" y2="847.593" gradientUnits="userSpaceOnUse">
<stop stop-color="#FF5959"/>
<stop offset="1" stop-color="#AF48FF"/>
</linearGradient>
<linearGradient id="paint65_linear_389_6517" x1="555.924" y1="542.09" x2="1041.92" y2="952.017" gradientUnits="userSpaceOnUse">
<stop stop-color="#FF5959"/>
<stop offset="1" stop-color="#AF48FF"/>
</linearGradient>
<linearGradient id="paint66_linear_389_6517" x1="499.404" y1="638.543" x2="1097.3" y2="860.381" gradientUnits="userSpaceOnUse">
<stop stop-color="#FF5959"/>
<stop offset="1" stop-color="#AF48FF"/>
</linearGradient>
<linearGradient id="paint67_linear_389_6517" x1="565.225" y1="531.561" x2="1033.04" y2="961.948" gradientUnits="userSpaceOnUse">
<stop stop-color="#FF5959"/>
<stop offset="1" stop-color="#AF48FF"/>
</linearGradient>
<linearGradient id="paint68_linear_389_6517" x1="504.576" y1="625.519" x2="1092.01" y2="872.907" gradientUnits="userSpaceOnUse">
<stop stop-color="#FF5959"/>
<stop offset="1" stop-color="#AF48FF"/>
</linearGradient>
<linearGradient id="paint69_linear_389_6517" x1="574.974" y1="521.439" x2="1023.78" y2="971.499" gradientUnits="userSpaceOnUse">
<stop stop-color="#FF5959"/>
<stop offset="1" stop-color="#AF48FF"/>
</linearGradient>
<linearGradient id="paint70_linear_389_6517" x1="510.309" y1="612.724" x2="1086.22" y2="885.154" gradientUnits="userSpaceOnUse">
<stop stop-color="#FF5959"/>
<stop offset="1" stop-color="#AF48FF"/>
</linearGradient>
<linearGradient id="paint71_linear_389_6517" x1="585.148" y1="511.748" x2="1014.14" y2="980.661" gradientUnits="userSpaceOnUse">
<stop stop-color="#FF5959"/>
<stop offset="1" stop-color="#AF48FF"/>
</linearGradient>
</defs>
</svg>
