<svg width="1834" height="1837" viewBox="0 0 1834 1837" fill="none" xmlns="http://www.w3.org/2000/svg">
<path d="M937.637 1131.87C825.539 1144.31 721.744 1131.64 644.551 1101.09C567.349 1070.54 516.807 1022.15 511.094 963.179C505.382 904.212 545.571 845.744 615.275 798.889C684.97 752.039 784.126 716.835 896.224 704.392C1008.32 691.95 1112.12 704.627 1189.31 735.173C1266.51 765.722 1317.05 814.119 1322.77 873.086C1328.48 932.053 1288.29 990.52 1218.59 1037.38C1148.89 1084.23 1049.73 1119.43 937.637 1131.87Z" stroke="url(#paint0_linear_389_6382)" stroke-width="0.4"/>
<path d="M1017.54 1106.67C918.139 1161.13 816.864 1189.32 733.486 1190.89C650.098 1192.46 584.67 1167.4 556.859 1115.42C529.049 1063.44 544.076 994.306 590.958 924.509C637.834 854.721 716.527 784.322 815.93 729.866C915.333 675.411 1016.61 647.218 1099.99 645.65C1183.37 644.082 1248.8 669.143 1276.61 721.12C1304.42 773.098 1289.4 842.234 1242.51 912.031C1195.64 981.82 1116.94 1052.22 1017.54 1106.67Z" stroke="url(#paint1_linear_389_6382)" stroke-width="0.4"/>
<path d="M946.914 1130.64C835.397 1147.96 731.088 1139.85 652.594 1112.72C574.09 1085.6 521.461 1039.49 513.185 980.864C504.91 922.238 542.541 862.102 610.182 812.27C677.815 762.444 775.405 722.956 886.922 705.629C998.438 688.302 1102.75 696.419 1181.24 723.54C1259.75 750.664 1312.38 796.775 1320.65 855.4C1328.93 914.026 1291.29 974.162 1223.65 1023.99C1156.02 1073.82 1058.43 1113.31 946.914 1130.64Z" stroke="url(#paint2_linear_389_6382)" stroke-width="0.4"/>
<path d="M1025.69 1101.98C928.694 1160.7 828.681 1193.28 745.402 1198.49C662.112 1203.71 595.616 1181.55 565.555 1130.87C535.493 1080.19 547.508 1010.5 591.337 938.761C635.161 867.03 710.763 793.297 807.762 734.577C904.761 675.857 1004.77 643.277 1088.05 638.064C1171.34 632.851 1237.84 655.01 1267.9 705.69C1297.96 756.37 1285.95 826.057 1242.12 897.798C1198.29 969.529 1122.69 1043.26 1025.69 1101.98Z" stroke="url(#paint3_linear_389_6382)" stroke-width="0.4"/>
<path d="M956.129 1128.99C845.406 1151.17 740.78 1147.63 661.134 1123.99C581.478 1100.34 526.862 1056.6 516.039 998.429C505.217 940.256 540.219 878.568 605.669 825.853C671.11 773.146 766.947 729.45 877.671 707.27C988.394 685.091 1093.02 688.632 1172.67 712.277C1252.32 735.925 1306.94 779.662 1317.76 837.835C1328.58 896.008 1293.58 957.696 1228.13 1010.41C1162.69 1063.12 1066.85 1106.81 956.129 1128.99Z" stroke="url(#paint4_linear_389_6382)" stroke-width="0.4"/>
<path d="M1033.64 1096.94C939.225 1159.81 840.665 1196.71 757.642 1205.56C674.608 1214.41 607.173 1195.19 574.917 1145.91C542.662 1096.62 551.642 1026.52 592.334 952.971C633.022 879.433 705.39 802.507 799.801 739.635C894.211 676.762 992.771 639.857 1075.79 631.009C1158.83 622.159 1226.26 641.375 1258.52 690.662C1290.77 739.948 1281.79 810.053 1241.1 883.6C1200.41 957.137 1128.05 1034.06 1033.64 1096.94Z" stroke="url(#paint5_linear_389_6382)" stroke-width="0.4"/>
<path d="M965.271 1126.95C855.552 1153.94 750.809 1154.98 670.163 1134.86C589.507 1114.73 533.008 1073.45 519.658 1015.84C506.309 958.233 538.616 895.108 601.749 839.612C664.874 784.123 758.777 736.302 868.496 709.313C978.216 682.324 1082.96 681.282 1163.6 701.406C1244.26 721.532 1300.76 762.812 1314.11 820.422C1327.46 878.031 1295.15 941.156 1232.02 996.652C1168.89 1052.14 1074.99 1099.96 965.271 1126.95Z" stroke="url(#paint6_linear_389_6382)" stroke-width="0.4"/>
<path d="M974.323 1124.52C865.816 1156.26 761.156 1161.89 679.663 1145.32C598.161 1128.75 539.886 1090.01 524.035 1033.07C508.185 976.138 537.735 911.698 598.431 853.525C659.12 795.361 750.909 743.505 859.416 711.758C967.922 680.011 1072.58 674.388 1154.07 690.953C1235.58 707.519 1293.85 746.263 1309.7 803.2C1325.55 860.136 1296 924.576 1235.31 982.748C1174.62 1040.91 1082.83 1092.77 974.323 1124.52Z" stroke="url(#paint7_linear_389_6382)" stroke-width="0.4"/>
<path d="M983.263 1121.68C876.176 1158.13 771.798 1168.32 689.614 1155.35C607.419 1142.37 547.48 1106.24 529.158 1050.08C510.837 993.927 537.573 928.294 595.718 867.557C653.855 806.827 743.356 751.036 850.443 714.591C957.53 678.146 1061.91 667.953 1144.09 680.927C1226.29 693.902 1286.23 730.037 1304.55 786.192C1322.87 842.346 1296.13 907.979 1237.99 968.717C1179.85 1029.45 1090.35 1085.24 983.263 1121.68Z" stroke="url(#paint8_linear_389_6382)" stroke-width="0.4"/>
<path d="M992.078 1118.47C886.614 1159.54 782.717 1174.28 699.997 1164.92C617.267 1155.57 555.777 1122.11 535.02 1066.84C514.262 1011.58 538.134 944.875 593.616 881.688C649.091 818.509 736.133 758.889 841.597 717.815C947.06 676.741 1050.96 661.998 1133.68 671.356C1216.41 680.716 1277.9 714.172 1298.65 769.438C1319.41 824.704 1295.54 891.406 1240.06 954.593C1184.58 1017.77 1097.54 1077.39 992.078 1118.47Z" stroke="url(#paint9_linear_389_6382)" stroke-width="0.4"/>
<path d="M1000.75 1114.87C897.109 1160.49 793.89 1179.76 710.793 1174.03C627.685 1168.31 564.762 1137.59 541.608 1083.32C518.454 1029.05 539.415 961.404 592.129 895.887C644.836 830.379 729.254 767.043 832.894 721.419C936.533 675.795 1039.75 656.529 1122.85 662.254C1205.96 667.979 1268.88 698.694 1292.03 752.966C1315.19 807.239 1294.23 874.881 1241.51 940.398C1188.81 1005.91 1104.39 1069.24 1000.75 1114.87Z" stroke="url(#paint10_linear_389_6382)" stroke-width="0.4"/>
<path d="M914.802 703.935C1027.42 701.324 1129.6 723.042 1203.75 760.255C1277.91 797.473 1323.99 850.162 1324.55 909.474C1325.11 968.786 1280.04 1023.59 1206.61 1064.23C1133.19 1104.86 1031.47 1131.31 918.853 1133.92C806.234 1136.53 704.06 1114.81 629.907 1077.6C555.746 1040.38 509.663 987.691 509.104 928.379C508.545 869.067 553.615 814.265 627.043 773.625C700.462 732.991 802.182 706.546 914.802 703.935Z" stroke="url(#paint11_linear_389_6382)" stroke-width="0.4"/>
<path d="M1009.26 1110.89C907.644 1160.98 805.299 1184.73 721.983 1182.65C638.655 1180.57 574.419 1152.66 548.912 1099.48C523.405 1046.31 541.417 977.851 591.262 910.129C641.101 842.416 722.734 775.486 824.352 725.398C925.97 675.31 1028.32 651.559 1111.63 653.639C1194.96 655.72 1259.2 683.634 1284.7 736.809C1310.21 789.985 1292.2 858.44 1242.35 926.161C1192.51 993.874 1110.88 1060.8 1009.26 1110.89Z" stroke="url(#paint12_linear_389_6382)" stroke-width="0.4"/>
<path d="M905.47 704.358C1017.94 696.825 1121.02 714.038 1196.76 747.95C1272.52 781.866 1320.88 832.457 1324.01 891.653C1327.15 950.849 1284.48 1007.54 1212.85 1051.33C1141.22 1095.11 1040.69 1125.96 928.224 1133.5C815.758 1141.03 712.675 1123.82 636.931 1089.91C561.176 1055.99 512.818 1005.4 509.679 946.204C506.541 887.008 549.211 830.319 620.845 786.53C692.47 742.746 793.004 711.892 905.47 704.358Z" stroke="url(#paint13_linear_389_6382)" stroke-width="0.4"/>
<path d="M1082.98 1052.48C1011.4 1140.66 928.049 1205.44 851.167 1238.89C774.279 1272.34 703.89 1274.44 658.183 1237.34C612.477 1200.24 600.059 1130.93 616.984 1048.8C633.907 966.685 680.162 871.799 751.743 783.613C823.324 695.427 906.671 630.647 983.553 597.199C1060.44 563.749 1130.83 561.646 1176.54 598.747C1222.24 635.848 1234.66 705.164 1217.74 787.288C1200.81 869.405 1154.56 964.291 1082.98 1052.48Z" stroke="url(#paint14_linear_389_6382)" stroke-width="0.25"/>
<path d="M1130.75 894.743C1141.62 1007.01 1127.56 1111.3 1096.04 1189.16C1064.51 1267.02 1015.54 1318.4 956.622 1324.94C897.699 1331.48 839.92 1291.95 794.142 1222.67C748.368 1153.39 714.614 1054.41 703.737 942.14C692.861 829.869 706.923 725.58 738.444 647.727C769.968 569.867 818.938 518.481 877.861 511.941C936.784 505.4 994.562 544.938 1040.34 614.217C1086.11 683.491 1119.87 782.473 1130.75 894.743Z" stroke="url(#paint15_linear_389_6382)" stroke-width="0.25"/>
<path d="M1122.46 978.038C1089.61 1086.52 1036.89 1178.02 978.224 1238.26C919.552 1298.5 854.956 1327.45 798.331 1310.91C741.706 1294.37 703.716 1235.46 688.1 1153.52C672.486 1071.59 679.252 966.666 712.105 858.18C744.958 749.694 797.675 658.195 856.343 597.959C915.015 537.718 979.611 508.77 1036.24 525.31C1092.86 541.849 1130.85 600.76 1146.47 682.699C1162.08 764.631 1155.32 869.552 1122.46 978.038Z" stroke="url(#paint16_linear_389_6382)" stroke-width="0.25"/>
<path d="M1088.75 1045.04C1021.03 1136.22 940.535 1204.55 865.135 1241.31C789.729 1278.07 719.457 1283.25 672.153 1248.2C624.848 1213.16 609.42 1144.49 622.766 1061.76C636.111 979.026 678.223 882.263 745.943 791.082C813.662 699.901 894.161 631.576 969.561 594.816C1044.97 558.053 1115.24 552.875 1162.54 587.918C1209.85 622.962 1225.28 691.628 1211.93 774.365C1198.58 857.095 1156.47 953.858 1088.75 1045.04Z" stroke="url(#paint17_linear_389_6382)" stroke-width="0.25"/>
<path d="M1129.64 885.459C1145.4 997.08 1135.88 1101.82 1107.75 1180.93C1079.63 1260.05 1032.91 1313.5 974.293 1322.61C915.676 1331.72 856.198 1294.77 807.423 1227.6C758.651 1160.44 720.604 1063.08 704.848 951.463C689.092 839.842 698.612 735.099 726.736 655.987C754.862 576.869 801.579 523.42 860.197 514.312C918.814 505.204 978.292 542.153 1027.07 609.322C1075.84 676.486 1113.89 773.838 1129.64 885.459Z" stroke="url(#paint18_linear_389_6382)" stroke-width="0.25"/>
<path d="M1124.99 968.988C1096.86 1078.74 1048.15 1172.41 992.12 1235.12C936.089 1297.83 872.775 1329.56 815.45 1315.52C758.126 1301.49 717.587 1244.33 698.413 1163.2C679.24 1082.08 681.44 977.024 709.562 867.268C737.685 757.513 786.403 663.849 842.43 601.14C898.461 538.426 961.775 506.696 1019.1 520.733C1076.42 534.769 1116.96 591.927 1136.14 673.056C1155.31 754.178 1153.11 859.232 1124.99 968.988Z" stroke="url(#paint19_linear_389_6382)" stroke-width="0.25"/>
<path d="M1094.2 1037.36C1030.47 1131.36 952.976 1203.1 879.202 1243.11C805.422 1283.11 735.401 1291.36 686.589 1258.44C637.777 1225.52 619.367 1157.63 629.11 1074.44C638.851 991.252 676.739 892.796 740.468 798.794C804.198 704.791 881.696 633.05 955.47 593.048C1029.25 553.044 1099.27 544.799 1148.08 577.719C1196.9 610.638 1215.31 678.523 1205.56 761.716C1195.82 844.902 1157.93 943.358 1094.2 1037.36Z" stroke="url(#paint20_linear_389_6382)" stroke-width="0.25"/>
<path d="M1127.12 959.841C1103.78 1070.66 1059.15 1166.31 1005.87 1231.37C952.589 1296.44 890.678 1330.89 832.763 1319.38C774.849 1307.88 731.838 1252.58 709.142 1172.42C686.447 1092.26 684.076 987.269 707.414 876.453C730.753 765.637 775.38 669.987 828.658 604.924C881.942 539.855 943.853 505.405 1001.77 516.912C1059.68 528.419 1102.69 583.715 1125.39 663.879C1148.08 744.037 1150.45 849.025 1127.12 959.841Z" stroke="url(#paint21_linear_389_6382)" stroke-width="0.25"/>
<path d="M1099.32 1029.45C1039.7 1126.1 965.349 1201.12 893.341 1244.29C821.328 1287.46 751.689 1298.75 701.463 1268.02C651.236 1237.29 629.881 1170.31 636.001 1086.82C642.121 1003.34 675.712 903.376 735.33 806.731C794.948 710.086 869.298 635.065 941.306 591.898C1013.32 548.728 1082.96 537.432 1133.18 568.166C1183.41 598.899 1204.77 665.873 1198.65 749.363C1192.53 832.847 1158.94 932.808 1099.32 1029.45Z" stroke="url(#paint22_linear_389_6382)" stroke-width="0.25"/>
<path d="M1042.2 1091.46C950.552 1158.37 853.621 1199.54 770.998 1212.01C688.368 1224.48 620.085 1208.24 585.673 1160.41C551.261 1112.58 557.201 1042.15 594.685 966.932C632.166 891.715 701.171 811.733 792.821 744.822C884.471 677.91 981.402 636.745 1064.03 624.276C1146.66 611.806 1214.94 628.04 1249.35 675.872C1283.76 723.705 1277.82 794.128 1240.34 869.351C1202.86 944.568 1133.85 1024.55 1042.2 1091.46Z" stroke="url(#paint23_linear_389_6382)" stroke-width="0.25"/>
<path d="M1128.85 950.614C1110.34 1062.28 1069.89 1159.73 1019.46 1227.03C969.022 1294.33 908.631 1331.43 850.237 1322.48C791.842 1313.52 746.442 1260.19 720.266 1181.15C694.093 1102.1 687.156 997.383 705.666 885.717C724.175 774.051 764.626 676.597 815.055 609.304C865.489 542.005 925.88 504.9 984.275 513.855C1042.67 522.81 1088.07 576.139 1114.25 655.186C1140.42 734.227 1147.36 838.948 1128.85 950.614Z" stroke="url(#paint24_linear_389_6382)" stroke-width="0.25"/>
<path d="M1104.09 1021.34C1048.69 1120.44 977.632 1198.6 907.528 1244.85C837.417 1291.1 768.295 1305.43 716.75 1276.94C665.204 1248.45 640.943 1182.51 643.429 1098.88C645.915 1015.26 675.146 913.987 730.539 814.883C785.932 715.779 856.993 637.622 927.097 591.372C997.207 545.117 1066.33 530.793 1117.88 559.281C1169.42 587.769 1193.68 653.706 1191.2 737.334C1188.71 820.956 1159.48 922.232 1104.09 1021.34Z" stroke="url(#paint25_linear_389_6382)" stroke-width="0.25"/>
<path d="M1049.69 1085.75C960.981 1156.57 865.875 1201.91 783.824 1217.97C701.766 1234.04 632.8 1220.82 596.32 1174.56C559.839 1128.31 562.714 1057.74 596.913 980.989C631.109 904.25 696.611 821.373 785.317 750.555C874.024 679.738 969.13 634.395 1051.18 618.331C1133.24 602.266 1202.2 615.487 1238.69 661.74C1275.17 707.993 1272.29 778.567 1238.09 855.313C1203.9 932.053 1138.39 1014.93 1049.69 1085.75Z" stroke="url(#paint26_linear_389_6382)" stroke-width="0.25"/>
<path d="M1130.17 941.327C1116.53 1053.63 1080.33 1152.7 1032.85 1222.1C985.358 1291.5 926.603 1331.19 867.839 1324.8C809.076 1318.42 761.372 1267.16 731.768 1189.38C702.165 1111.6 690.675 1007.35 704.321 895.044C717.967 782.741 754.164 683.668 801.649 614.273C849.137 544.872 907.893 505.182 966.656 511.568C1025.42 517.955 1073.12 569.215 1102.73 646.995C1132.33 724.768 1143.82 829.024 1130.17 941.327Z" stroke="url(#paint27_linear_389_6382)" stroke-width="0.25"/>
<path d="M1108.5 1013.02C1057.44 1114.4 989.801 1195.54 921.733 1244.79C853.66 1294.04 785.186 1311.36 732.419 1285.17C679.653 1258.98 652.532 1194.21 651.38 1110.6C650.228 1027 675.043 924.605 726.105 823.231C777.168 721.858 844.803 640.713 912.871 591.467C980.944 542.217 1049.42 524.89 1102.19 551.08C1154.95 577.269 1182.07 642.042 1183.22 725.649C1184.38 809.251 1159.56 911.648 1108.5 1013.02Z" stroke="url(#paint28_linear_389_6382)" stroke-width="0.25"/>
<path d="M1056.92 1079.71C971.329 1154.3 878.229 1203.73 796.906 1223.36C715.576 1242.99 646.06 1232.81 607.58 1188.23C569.101 1143.64 568.905 1073.05 599.753 994.926C630.599 916.809 692.472 831.195 778.067 756.606C863.662 682.017 956.762 632.584 1038.09 612.955C1119.42 593.324 1188.93 603.508 1227.41 648.094C1265.89 692.679 1266.09 763.27 1235.24 841.393C1204.39 919.51 1142.52 1005.12 1056.92 1079.71Z" stroke="url(#paint29_linear_389_6382)" stroke-width="0.25"/>
<path d="M1131.1 931.995C1122.34 1044.72 1090.47 1145.22 1046.02 1216.59C1001.57 1287.96 944.557 1330.16 885.537 1326.35C826.517 1322.55 776.6 1273.45 743.623 1197.09C710.648 1120.73 694.628 1017.14 703.384 904.415C712.14 791.689 744.014 691.186 788.464 619.82C832.916 548.449 889.925 506.25 948.945 510.056C1007.96 513.862 1057.88 562.956 1090.86 639.32C1123.83 715.678 1139.85 819.27 1131.1 931.995Z" stroke="url(#paint30_linear_389_6382)" stroke-width="0.25"/>
<path d="M1112.55 1004.53C1065.92 1107.98 1001.83 1191.96 935.932 1244.11C870.026 1296.26 802.329 1316.55 748.442 1292.71C694.556 1268.87 664.627 1205.39 659.838 1121.96C655.05 1038.54 675.402 935.212 722.037 831.761C768.672 728.31 832.753 644.332 898.655 592.184C964.562 540.032 1032.26 519.737 1086.14 543.577C1140.03 567.417 1169.96 630.903 1174.75 714.331C1179.54 797.753 1159.18 901.078 1112.55 1004.53Z" stroke="url(#paint31_linear_389_6382)" stroke-width="0.25"/>
<path d="M1063.89 1073.37C981.573 1151.59 890.657 1205.02 810.216 1228.18C729.769 1251.34 659.834 1244.21 619.429 1201.38C579.024 1158.54 575.758 1088.07 603.197 1008.72C630.633 929.372 688.761 841.183 771.081 762.965C853.401 684.747 944.317 631.318 1024.76 608.161C1105.21 585.003 1175.14 592.13 1215.54 634.963C1255.95 677.796 1259.22 748.269 1231.78 827.621C1204.34 906.966 1146.21 995.155 1063.89 1073.37Z" stroke="url(#paint32_linear_389_6382)" stroke-width="0.25"/>
<path d="M1131.62 922.638C1127.77 1035.57 1100.27 1137.31 1058.95 1210.51C1017.61 1283.72 962.461 1328.35 903.296 1327.13C844.132 1325.91 792.097 1279.08 755.81 1204.27C719.525 1129.48 699.004 1026.75 702.854 913.812C706.703 800.878 734.195 699.135 775.524 625.936C816.856 552.73 872.009 508.103 931.174 509.321C990.338 510.539 1042.37 557.373 1078.66 632.176C1114.94 706.973 1135.47 809.704 1131.62 922.638Z" stroke="url(#paint33_linear_389_6382)" stroke-width="0.25"/>
<path d="M1116.23 995.87C1074.11 1101.2 1013.7 1187.85 950.094 1242.8C886.479 1297.76 819.69 1320.98 764.785 1299.54C709.881 1278.09 677.201 1216.01 668.785 1132.92C660.37 1049.84 676.22 945.785 718.339 840.455C760.457 735.124 820.863 648.472 884.473 593.522C948.087 538.568 1014.88 515.342 1069.78 536.788C1124.69 558.234 1157.37 620.312 1165.78 703.401C1174.2 786.484 1158.35 890.539 1116.23 995.87Z" stroke="url(#paint34_linear_389_6382)" stroke-width="0.25"/>
<path d="M1070.58 1066.74C991.695 1148.43 903.135 1205.76 823.73 1232.4C744.319 1259.04 674.099 1254.98 631.845 1213.99C589.591 1172.99 583.261 1102.77 607.238 1022.34C631.214 941.913 685.485 851.318 764.373 769.619C843.261 687.921 931.821 630.597 1011.23 603.957C1090.64 577.315 1160.86 581.371 1203.11 622.37C1245.36 663.369 1251.7 733.59 1227.72 814.019C1203.74 894.443 1149.47 985.038 1070.58 1066.74Z" stroke="url(#paint35_linear_389_6382)" stroke-width="0.25"/>
<path d="M1131.73 913.272C1132.79 1026.2 1109.73 1128.99 1071.6 1203.88C1033.47 1278.78 980.279 1325.75 921.083 1327.13C861.886 1328.5 807.833 1284.01 768.305 1210.91C728.78 1137.82 703.797 1036.15 702.733 923.218C701.669 810.29 724.725 707.503 762.855 632.608C800.989 557.708 854.18 510.737 913.377 509.364C972.573 507.992 1026.63 552.477 1066.15 625.576C1105.68 698.67 1130.66 800.344 1131.73 913.272Z" stroke="url(#paint36_linear_389_6382)" stroke-width="0.25"/>
<path d="M1119.53 987.064C1082.01 1094.07 1025.39 1183.23 964.197 1240.88C902.995 1298.54 837.24 1324.65 781.422 1305.64C725.604 1286.63 690.235 1226.07 678.208 1143.48C666.182 1060.89 677.501 956.307 715.022 849.296C752.544 742.286 809.159 653.125 870.356 595.478C931.558 537.825 997.313 511.714 1053.13 530.724C1108.95 549.735 1144.32 610.287 1156.34 692.88C1168.37 775.466 1157.05 880.054 1119.53 987.064Z" stroke="url(#paint37_linear_389_6382)" stroke-width="0.25"/>
<path d="M1076.98 1059.82C1001.68 1144.84 915.643 1205.95 837.425 1236.02C759.201 1266.1 688.83 1265.12 644.807 1226.03C600.785 1186.95 591.402 1117.11 611.873 1035.76C632.341 954.409 682.652 861.58 757.959 776.557C833.265 691.533 919.3 630.424 997.518 600.351C1075.74 570.276 1146.11 571.254 1190.14 610.341C1234.16 649.428 1243.54 719.263 1223.07 800.617C1202.6 881.965 1152.29 974.794 1076.98 1059.82Z" stroke="url(#paint38_linear_389_6382)" stroke-width="0.25"/>
<path d="M1131.43 903.916C1137.4 1016.62 1118.83 1120.26 1083.97 1196.71C1049.11 1273.16 997.978 1322.38 938.862 1326.34C879.746 1330.3 823.777 1288.25 781.083 1217C738.393 1145.74 708.996 1045.32 703.02 932.615C697.045 819.908 715.621 716.271 750.48 639.825C785.342 563.372 836.472 514.146 895.588 510.186C954.703 506.226 1010.67 548.277 1053.37 619.535C1096.06 690.786 1125.45 791.21 1131.43 903.916Z" stroke="url(#paint39_linear_389_6382)" stroke-width="0.25"/>
<path d="M980.384 711.46C1088.11 742.925 1178.62 794.542 1237.88 852.55C1297.14 910.565 1325.1 974.93 1307.85 1031.91C1290.59 1088.89 1231.36 1127.79 1149.45 1144.57C1067.54 1161.35 963.018 1156 855.292 1124.53C747.565 1093.07 657.053 1041.45 597.797 983.442C538.533 925.427 510.572 861.062 527.827 804.081C545.083 747.1 604.316 708.203 686.23 691.423C768.133 674.645 872.658 679.995 980.384 711.46Z" stroke="url(#paint40_linear_389_6382)" stroke-width="0.4"/>
<path d="M789.423 1090.9C699.429 1024.24 632.403 944.442 596.783 869.334C561.158 794.217 556.966 723.841 592.536 675.948C628.105 628.056 696.756 611.642 779.069 623.895C861.373 636.147 957.28 677.054 1047.27 743.722C1137.27 810.391 1204.29 890.185 1239.91 965.293C1275.54 1040.41 1279.73 1110.79 1244.16 1158.68C1208.59 1206.57 1139.94 1222.98 1057.63 1210.73C975.325 1198.48 879.417 1157.57 789.423 1090.9Z" stroke="url(#paint41_linear_389_6382)" stroke-width="0.4"/>
<path d="M971.397 709.05C1080.45 735.753 1173.18 783.331 1234.94 838.656C1296.7 893.989 1327.45 957.031 1312.68 1014.68C1297.91 1072.33 1240.39 1113.75 1159.24 1134.09C1078.09 1154.43 973.374 1153.66 864.317 1126.96C755.26 1100.25 662.534 1052.67 600.776 997.349C539.01 942.017 508.259 878.974 523.03 821.327C537.801 763.679 595.321 722.251 676.475 701.913C757.62 681.578 862.34 682.347 971.397 709.05Z" stroke="url(#paint42_linear_389_6382)" stroke-width="0.4"/>
<path d="M797.007 1096.26C704.145 1033.64 633.672 956.897 594.797 883.463C555.918 810.022 548.666 739.937 582.139 690.563C615.613 641.189 683.525 621.797 766.342 630.43C849.15 639.061 946.802 675.71 1039.66 738.338C1132.53 800.966 1203 877.705 1241.87 951.138C1280.75 1024.58 1288.01 1094.66 1254.53 1144.04C1221.06 1193.41 1153.15 1212.8 1070.33 1204.17C987.521 1195.54 889.869 1158.89 797.007 1096.26Z" stroke="url(#paint43_linear_389_6382)" stroke-width="0.4"/>
<path d="M962.305 707.04C1072.49 728.931 1167.25 772.378 1231.39 824.916C1295.54 877.461 1329.02 939.06 1316.77 997.264C1304.51 1055.47 1248.81 1099.35 1168.57 1123.21C1088.34 1147.06 983.622 1150.87 873.442 1128.98C763.262 1107.09 668.5 1063.65 604.357 1011.11C540.206 958.562 506.724 896.963 518.982 838.758C531.24 780.554 586.937 736.673 667.178 712.817C747.41 688.963 852.126 685.149 962.305 707.04Z" stroke="url(#paint44_linear_389_6382)" stroke-width="0.4"/>
<path d="M804.82 1101.28C709.267 1042.81 635.481 969.275 593.426 897.656C551.365 826.029 541.068 756.371 572.382 705.609C603.695 654.847 670.74 632.513 753.904 637.51C837.057 642.505 936.269 674.824 1031.82 733.293C1127.38 791.761 1201.16 865.298 1243.22 936.917C1285.28 1008.54 1295.57 1078.2 1264.26 1128.96C1232.95 1179.73 1165.9 1202.06 1082.74 1197.06C999.585 1192.07 900.373 1159.75 804.82 1101.28Z" stroke="url(#paint45_linear_389_6382)" stroke-width="0.4"/>
<path d="M953.131 705.429C1064.22 722.465 1160.84 761.699 1227.25 811.35C1293.66 861.007 1329.81 921.046 1320.09 979.696C1310.37 1038.35 1256.6 1084.6 1177.42 1111.93C1098.26 1139.25 993.746 1147.64 882.653 1130.61C771.56 1113.57 674.941 1074.34 608.536 1024.68C542.122 975.027 505.972 914.988 515.694 856.338C525.416 797.688 579.185 751.438 658.36 724.108C737.525 696.781 842.038 688.392 953.131 705.429Z" stroke="url(#paint46_linear_389_6382)" stroke-width="0.4"/>
<path d="M812.851 1105.95C714.789 1051.75 637.83 981.558 592.675 911.89C547.514 842.214 534.19 773.114 563.284 721.06C592.379 669.007 658.429 643.775 741.779 645.126C825.121 646.476 925.703 674.404 1023.77 728.602C1121.83 782.8 1198.79 852.995 1243.94 922.663C1289.1 992.339 1302.43 1061.44 1273.33 1113.49C1244.24 1165.55 1178.19 1190.78 1094.84 1189.43C1011.5 1188.08 910.914 1160.15 812.851 1105.95Z" stroke="url(#paint47_linear_389_6382)" stroke-width="0.4"/>
<path d="M943.888 704.221C1055.68 716.372 1153.97 751.318 1222.52 797.987C1291.07 844.661 1329.81 903.026 1322.65 962.011C1315.48 1021 1263.74 1069.53 1185.78 1100.28C1107.84 1131.03 1003.72 1143.97 891.93 1131.82C780.135 1119.67 681.844 1084.73 613.303 1038.06C544.753 991.384 506.004 933.019 513.171 874.035C520.338 815.05 572.076 766.52 650.034 735.768C727.983 705.02 832.094 692.071 943.888 704.221Z" stroke="url(#paint48_linear_389_6382)" stroke-width="0.4"/>
<path d="M821.083 1110.26C720.698 1060.44 640.714 993.716 592.544 926.131C544.368 858.539 528.043 790.128 554.863 736.883C581.683 683.637 646.612 655.555 729.992 653.256C813.362 650.958 915.123 674.443 1015.51 724.267C1115.89 774.091 1195.88 840.81 1244.05 908.395C1292.22 975.987 1308.55 1044.4 1281.73 1097.64C1254.91 1150.89 1189.98 1178.97 1106.6 1181.27C1023.23 1183.57 921.469 1160.08 821.083 1110.26Z" stroke="url(#paint49_linear_389_6382)" stroke-width="0.4"/>
<path d="M934.596 703.421C1046.88 710.661 1146.66 741.253 1217.2 784.851C1287.76 828.455 1329.03 885.034 1324.43 944.24C1319.83 1003.45 1270.23 1054.17 1193.63 1088.28C1117.05 1122.39 1013.54 1139.87 901.256 1132.63C788.973 1125.39 689.196 1094.8 618.649 1051.2C548.093 1007.6 506.819 951.021 511.418 891.814C516.017 832.608 565.626 781.889 642.218 747.774C718.802 713.664 822.313 696.18 934.596 703.421Z" stroke="url(#paint50_linear_389_6382)" stroke-width="0.4"/>
<path d="M829.495 1114.2C726.978 1068.85 644.12 1005.73 593.027 940.358C541.929 874.978 522.634 807.388 547.128 753.051C571.622 698.715 635.306 667.836 718.557 661.893C801.798 655.951 904.545 674.948 1007.06 720.303C1109.58 765.657 1192.44 828.774 1243.53 894.147C1294.63 959.527 1313.92 1027.12 1289.43 1081.45C1264.93 1135.79 1201.25 1166.67 1118 1172.61C1034.76 1178.55 932.012 1159.56 829.495 1114.2Z" stroke="url(#paint51_linear_389_6382)" stroke-width="0.4"/>
<path d="M925.276 703.027C1037.83 705.344 1138.91 731.524 1211.33 771.968C1283.75 812.417 1327.47 867.103 1325.45 926.419C1323.43 985.735 1276.04 1038.55 1200.96 1075.96C1125.89 1113.37 1023.18 1135.35 910.618 1133.03C798.06 1130.72 696.989 1104.54 624.57 1064.09C552.142 1023.64 508.422 968.958 510.444 909.642C512.466 850.326 559.85 797.516 634.932 760.103C710.005 722.695 812.718 700.71 925.276 703.027Z" stroke="url(#paint52_linear_389_6382)" stroke-width="0.4"/>
<path d="M838.079 1117.77C733.625 1076.97 648.051 1017.58 594.133 954.54C540.208 891.497 517.98 824.855 540.102 769.531C562.224 714.208 624.542 680.59 707.505 671.014C790.458 661.44 893.994 675.912 998.448 716.712C1102.9 757.511 1188.48 816.906 1242.39 879.942C1296.32 942.986 1318.55 1009.63 1296.42 1064.95C1274.3 1120.27 1211.98 1153.89 1129.02 1163.47C1046.07 1173.04 942.532 1158.57 838.079 1117.77Z" stroke="url(#paint53_linear_389_6382)" stroke-width="0.4"/>
<path d="M846.817 1120.96C740.626 1084.79 652.499 1029.23 595.858 968.653C539.21 908.066 514.091 842.5 533.799 786.295C553.506 730.089 614.34 693.797 696.856 680.606C779.363 667.418 883.493 677.338 989.684 713.505C1095.87 749.671 1184 805.23 1240.64 865.81C1297.29 926.397 1322.41 991.963 1302.7 1048.17C1282.99 1104.37 1222.16 1140.67 1139.64 1153.86C1057.14 1167.05 953.008 1157.12 846.817 1120.96Z" stroke="url(#paint54_linear_389_6382)" stroke-width="0.4"/>
<path d="M756.16 937.144C681.961 876.916 627.819 806.35 600.26 740.955C572.697 675.552 571.742 615.375 603.815 575.862C635.888 536.349 694.976 524.908 764.649 538.433C834.313 551.955 914.505 590.429 988.704 650.656C1062.9 710.884 1117.04 781.45 1144.6 846.845C1172.17 912.248 1173.12 972.425 1141.05 1011.94C1108.98 1051.45 1049.89 1062.89 980.215 1049.37C910.551 1035.84 830.359 997.371 756.16 937.144Z" stroke="url(#paint55_linear_389_6382)" stroke-width="0.4"/>
<path d="M1033.25 706.004C1078.43 790.441 1101.24 876.786 1101.6 948.122C1101.96 1019.47 1079.87 1075.75 1035.33 1100.15C990.786 1124.55 932.14 1112.5 873.295 1073.19C814.459 1033.89 755.473 967.364 710.295 882.927C665.116 798.489 642.308 712.144 641.947 640.808C641.586 569.462 663.673 513.184 708.216 488.783C752.758 464.381 811.404 476.43 870.249 515.738C929.085 555.041 988.071 621.566 1033.25 706.004Z" stroke="url(#paint56_linear_389_6382)" stroke-width="0.4"/>
<path d="M1029.36 699.092C1078.19 781.422 1104.75 866.635 1108.21 937.845C1111.68 1009.07 1092.05 1066.22 1048.58 1092.53C1005.12 1118.85 945.966 1109.38 885.433 1072.71C824.908 1036.04 763.05 972.2 714.214 889.87C665.379 807.54 638.823 722.327 635.359 651.117C631.894 579.897 651.526 522.74 694.992 496.427C738.457 470.115 797.606 479.58 858.14 516.252C918.665 552.92 980.523 616.762 1029.36 699.092Z" stroke="url(#paint57_linear_389_6382)" stroke-width="0.4"/>
<path d="M1051.64 758.225C1069.22 852.727 1064.98 942.31 1043.93 1010.75C1022.88 1079.19 985.032 1126.44 935.418 1136.37C885.804 1146.31 833.727 1117.08 789.634 1061.69C745.549 1006.3 709.484 924.786 691.903 830.284C674.321 735.781 678.555 646.198 699.604 577.761C720.656 509.314 758.506 462.072 808.12 452.134C857.735 442.196 909.812 471.424 953.904 526.822C997.99 582.212 1034.05 663.722 1051.64 758.225Z" stroke="url(#paint58_linear_389_6382)" stroke-width="0.4"/>
<path d="M1025.17 692.361C1077.57 772.427 1107.82 856.346 1114.38 927.295C1120.94 998.253 1103.8 1056.18 1061.5 1084.35C1019.19 1112.53 959.654 1105.66 897.547 1071.7C835.448 1037.73 770.835 976.697 718.436 896.631C666.036 816.565 635.784 732.645 629.223 661.697C622.662 590.739 639.8 532.812 682.106 504.638C724.411 476.465 783.951 483.327 846.058 517.295C908.157 551.257 972.77 612.294 1025.17 692.361Z" stroke="url(#paint59_linear_389_6382)" stroke-width="0.4"/>
<path d="M1050.01 750.426C1071.69 844.013 1071.36 933.642 1053.29 1002.89C1035.23 1072.16 999.445 1120.98 950.281 1133.07C901.117 1145.17 847.787 1118.26 801.3 1064.88C754.821 1011.5 715.224 931.699 693.538 838.111C671.852 744.524 672.188 654.895 690.252 585.643C708.319 516.381 744.101 467.556 793.266 455.463C842.43 443.369 895.76 470.274 942.246 523.657C988.726 577.032 1028.32 656.839 1050.01 750.426Z" stroke="url(#paint60_linear_389_6382)" stroke-width="0.4"/>
<path d="M1020.69 685.824C1076.55 763.474 1110.44 845.94 1120.09 916.491C1129.73 987.052 1115.12 1045.64 1074.05 1075.62C1032.99 1105.6 973.172 1101.35 909.61 1070.16C846.056 1038.96 778.811 980.847 722.947 903.197C667.084 825.547 633.192 743.081 623.548 672.53C613.902 601.969 628.515 543.382 669.58 513.401C710.645 483.42 770.462 487.667 834.024 518.865C897.578 550.058 964.824 608.174 1020.69 685.824Z" stroke="url(#paint61_linear_389_6382)" stroke-width="0.4"/>
<path d="M1048.05 742.713C1073.79 835.207 1077.36 924.712 1062.31 994.647C1047.26 1064.59 1013.62 1114.91 964.998 1129.13C916.377 1143.36 861.895 1118.83 813.104 1067.56C764.319 1016.3 721.265 938.352 695.516 845.858C669.766 753.365 666.203 663.86 681.249 593.925C696.296 523.98 729.942 473.665 778.563 459.439C827.184 445.213 881.666 469.743 930.457 521.01C979.242 572.269 1022.3 650.22 1048.05 742.713Z" stroke="url(#paint62_linear_389_6382)" stroke-width="0.4"/>
<path d="M1015.92 679.494C1075.14 754.579 1112.61 835.435 1125.32 905.455C1138.03 975.485 1125.97 1034.62 1086.23 1066.35C1046.48 1098.08 986.499 1096.46 921.602 1068.09C856.715 1039.73 786.965 984.642 727.744 909.556C668.523 834.471 631.055 753.615 618.346 683.595C605.634 613.565 617.693 554.429 657.44 522.698C697.186 490.967 757.167 492.591 822.064 520.96C886.951 549.324 956.701 604.408 1015.92 679.494Z" stroke="url(#paint63_linear_389_6382)" stroke-width="0.4"/>
<path d="M1045.75 735.096C1075.51 826.319 1082.96 915.53 1070.97 986.015C1058.97 1056.51 1027.52 1108.22 979.535 1124.55C931.55 1140.88 876.021 1118.77 825.017 1069.72C774.02 1020.67 727.59 944.728 697.827 853.504C668.064 762.28 660.608 673.069 672.607 602.584C684.606 532.089 716.051 480.381 764.037 464.05C812.022 447.719 867.551 469.827 918.555 518.88C969.552 567.926 1015.98 643.872 1045.75 735.096Z" stroke="url(#paint64_linear_389_6382)" stroke-width="0.4"/>
<path d="M1010.88 673.381C1073.35 745.76 1114.32 824.851 1130.07 894.207C1145.83 963.572 1136.34 1023.14 1097.99 1056.56C1059.64 1089.99 999.608 1090.99 933.501 1065.5C867.402 1040.02 795.281 988.074 732.815 915.695C670.349 843.316 629.378 764.225 613.627 694.869C597.874 625.504 607.356 565.932 645.708 532.511C684.06 499.091 744.091 498.088 810.198 523.573C876.297 549.055 948.418 601.002 1010.88 673.381Z" stroke="url(#paint65_linear_389_6382)" stroke-width="0.4"/>
<path d="M1043.12 727.593C1076.84 817.373 1088.17 906.119 1079.24 977.02C1070.31 1047.93 1041.13 1100.94 993.87 1119.34C946.612 1137.75 890.141 1118.1 837.021 1071.36C783.909 1024.62 734.192 950.819 700.472 861.039C666.751 771.258 655.418 682.512 664.346 611.612C673.275 540.701 702.459 487.696 749.717 469.291C796.975 450.886 853.446 470.531 906.566 517.277C959.678 564.015 1009.4 637.812 1043.12 727.593Z" stroke="url(#paint66_linear_389_6382)" stroke-width="0.4"/>
<path d="M1005.58 667.498C1071.17 737.032 1115.57 814.208 1134.33 882.767C1153.1 951.336 1146.21 1011.23 1109.33 1046.28C1072.44 1081.32 1012.48 1084.95 945.283 1062.4C878.1 1039.85 803.745 991.136 738.153 921.602C672.561 852.069 628.164 774.892 609.401 706.333C590.637 637.764 597.524 577.87 634.409 542.823C671.294 507.776 731.259 504.148 798.452 526.702C865.635 549.253 939.99 597.964 1005.58 667.498Z" stroke="url(#paint67_linear_389_6382)" stroke-width="0.4"/>
<path d="M1040.16 720.217C1077.77 808.383 1092.96 896.496 1087.12 967.677C1081.28 1038.87 1054.41 1093.07 1007.97 1113.51C961.532 1133.96 904.226 1116.81 849.092 1072.46C793.965 1028.12 741.056 956.613 703.442 868.446C665.828 780.28 650.639 692.167 656.48 620.986C662.321 549.794 689.19 495.595 735.63 475.151C782.071 454.707 839.376 471.851 894.51 516.2C949.637 560.543 1002.55 632.05 1040.16 720.217Z" stroke="url(#paint68_linear_389_6382)" stroke-width="0.4"/>
<path d="M1000.03 661.857C1068.62 728.414 1116.36 803.528 1138.1 871.161C1159.84 938.802 1155.56 998.905 1120.21 1035.51C1084.86 1072.12 1025.08 1078.36 956.927 1058.78C888.786 1039.21 812.339 993.824 743.745 927.268C675.152 860.711 627.413 785.597 605.675 717.964C583.935 650.323 588.215 590.22 623.562 553.613C658.909 517.007 718.695 510.762 786.845 530.341C854.986 549.918 931.433 595.301 1000.03 661.857Z" stroke="url(#paint69_linear_389_6382)" stroke-width="0.4"/>
<path d="M1036.88 712.979C1078.32 799.364 1097.34 886.676 1094.59 958.002C1091.85 1029.34 1067.35 1084.63 1021.81 1107.07C976.28 1129.52 918.249 1114.91 861.205 1073.04C804.17 1031.18 748.169 962.095 706.733 875.711C665.297 789.327 646.281 702.015 649.023 630.688C651.766 559.351 676.267 504.06 721.802 481.616C767.337 459.172 825.368 473.782 882.412 515.651C939.447 557.513 995.448 626.595 1036.88 712.979Z" stroke="url(#paint70_linear_389_6382)" stroke-width="0.4"/>
<path d="M994.226 656.466C1065.69 719.918 1116.68 792.828 1141.35 859.405C1166.03 925.991 1164.36 986.188 1130.62 1024.28C1096.88 1062.38 1037.38 1071.23 968.407 1054.66C899.439 1038.1 821.045 996.13 749.581 932.678C678.116 869.225 627.128 796.315 602.456 729.739C577.781 663.153 579.445 602.956 613.187 564.86C646.929 526.763 706.423 517.912 775.4 534.48C844.368 551.045 922.762 593.013 994.226 656.466Z" stroke="url(#paint71_linear_389_6382)" stroke-width="0.4"/>
<defs>
<linearGradient id="paint0_linear_389_6382" x1="1322.97" y1="873.064" x2="509.795" y2="951.841" gradientUnits="userSpaceOnUse">
<stop stop-color="#FF8159"/>
<stop offset="1" stop-color="#6200EE"/>
</linearGradient>
<linearGradient id="paint1_linear_389_6382" x1="1276.79" y1="721.024" x2="552.857" y2="1108.37" gradientUnits="userSpaceOnUse">
<stop stop-color="#FF8159"/>
<stop offset="1" stop-color="#6200EE"/>
</linearGradient>
<linearGradient id="paint2_linear_389_6382" x1="1320.85" y1="855.37" x2="511.397" y2="969.629" gradientUnits="userSpaceOnUse">
<stop stop-color="#FF8159"/>
<stop offset="1" stop-color="#6200EE"/>
</linearGradient>
<linearGradient id="paint3_linear_389_6382" x1="1268.07" y1="705.586" x2="561.62" y2="1124.63" gradientUnits="userSpaceOnUse">
<stop stop-color="#FF8159"/>
<stop offset="1" stop-color="#6200EE"/>
</linearGradient>
<linearGradient id="paint4_linear_389_6382" x1="1317.96" y1="837.795" x2="513.785" y2="987.405" gradientUnits="userSpaceOnUse">
<stop stop-color="#FF8159"/>
<stop offset="1" stop-color="#6200EE"/>
</linearGradient>
<linearGradient id="paint5_linear_389_6382" x1="1258.69" y1="690.55" x2="571.144" y2="1140.51" gradientUnits="userSpaceOnUse">
<stop stop-color="#FF8159"/>
<stop offset="1" stop-color="#6200EE"/>
</linearGradient>
<linearGradient id="paint6_linear_389_6382" x1="1314.3" y1="820.374" x2="516.971" y2="1005.13" gradientUnits="userSpaceOnUse">
<stop stop-color="#FF8159"/>
<stop offset="1" stop-color="#6200EE"/>
</linearGradient>
<linearGradient id="paint7_linear_389_6382" x1="1309.9" y1="803.143" x2="520.96" y2="1022.77" gradientUnits="userSpaceOnUse">
<stop stop-color="#FF8159"/>
<stop offset="1" stop-color="#6200EE"/>
</linearGradient>
<linearGradient id="paint8_linear_389_6382" x1="1304.74" y1="786.127" x2="525.75" y2="1040.28" gradientUnits="userSpaceOnUse">
<stop stop-color="#FF8159"/>
<stop offset="1" stop-color="#6200EE"/>
</linearGradient>
<linearGradient id="paint9_linear_389_6382" x1="1298.84" y1="769.365" x2="531.345" y2="1057.63" gradientUnits="userSpaceOnUse">
<stop stop-color="#FF8159"/>
<stop offset="1" stop-color="#6200EE"/>
</linearGradient>
<linearGradient id="paint10_linear_389_6382" x1="1292.22" y1="752.885" x2="537.74" y2="1074.77" gradientUnits="userSpaceOnUse">
<stop stop-color="#FF8159"/>
<stop offset="1" stop-color="#6200EE"/>
</linearGradient>
<linearGradient id="paint11_linear_389_6382" x1="508.904" y1="928.384" x2="1324.86" y2="920.695" gradientUnits="userSpaceOnUse">
<stop stop-color="#6200EE"/>
<stop offset="1" stop-color="#FF8159"/>
</linearGradient>
<linearGradient id="paint12_linear_389_6382" x1="1284.88" y1="736.721" x2="544.933" y2="1091.65" gradientUnits="userSpaceOnUse">
<stop stop-color="#FF8159"/>
<stop offset="1" stop-color="#6200EE"/>
</linearGradient>
<linearGradient id="paint13_linear_389_6382" x1="509.48" y1="946.217" x2="1324.82" y2="902.986" gradientUnits="userSpaceOnUse">
<stop stop-color="#6200EE"/>
<stop offset="1" stop-color="#FF8159"/>
</linearGradient>
<linearGradient id="paint14_linear_389_6382" x1="1176.62" y1="598.649" x2="658.104" y2="1237.44" gradientUnits="userSpaceOnUse">
<stop stop-color="#FF8159"/>
<stop offset="1" stop-color="#6200EE"/>
</linearGradient>
<linearGradient id="paint15_linear_389_6382" x1="877.849" y1="511.816" x2="967.977" y2="1323.81" gradientUnits="userSpaceOnUse">
<stop stop-color="#FF8159"/>
<stop offset="1" stop-color="#6200EE"/>
</linearGradient>
<linearGradient id="paint16_linear_389_6382" x1="1036.27" y1="525.189" x2="806.08" y2="1313.3" gradientUnits="userSpaceOnUse">
<stop stop-color="#FF8159"/>
<stop offset="1" stop-color="#6200EE"/>
</linearGradient>
<linearGradient id="paint17_linear_389_6382" x1="1162.62" y1="587.817" x2="672.883" y2="1248.9" gradientUnits="userSpaceOnUse">
<stop stop-color="#FF8159"/>
<stop offset="1" stop-color="#6200EE"/>
</linearGradient>
<linearGradient id="paint18_linear_389_6382" x1="860.179" y1="514.189" x2="985.539" y2="1320.99" gradientUnits="userSpaceOnUse">
<stop stop-color="#FF8159"/>
<stop offset="1" stop-color="#6200EE"/>
</linearGradient>
<linearGradient id="paint19_linear_389_6382" x1="1019.13" y1="520.611" x2="823.95" y2="1317.73" gradientUnits="userSpaceOnUse">
<stop stop-color="#FF8159"/>
<stop offset="1" stop-color="#6200EE"/>
</linearGradient>
<linearGradient id="paint20_linear_389_6382" x1="1148.15" y1="577.614" x2="688.173" y2="1259.66" gradientUnits="userSpaceOnUse">
<stop stop-color="#FF8159"/>
<stop offset="1" stop-color="#6200EE"/>
</linearGradient>
<linearGradient id="paint21_linear_389_6382" x1="1001.79" y1="516.789" x2="841.944" y2="1321.33" gradientUnits="userSpaceOnUse">
<stop stop-color="#FF8159"/>
<stop offset="1" stop-color="#6200EE"/>
</linearGradient>
<linearGradient id="paint22_linear_389_6382" x1="1133.25" y1="568.058" x2="703.934" y2="1269.68" gradientUnits="userSpaceOnUse">
<stop stop-color="#FF8159"/>
<stop offset="1" stop-color="#6200EE"/>
</linearGradient>
<linearGradient id="paint23_linear_389_6382" x1="1249.45" y1="675.798" x2="582.218" y2="1155.82" gradientUnits="userSpaceOnUse">
<stop stop-color="#FF8159"/>
<stop offset="1" stop-color="#6200EE"/>
</linearGradient>
<linearGradient id="paint24_linear_389_6382" x1="984.295" y1="513.731" x2="860.02" y2="1324.1" gradientUnits="userSpaceOnUse">
<stop stop-color="#FF8159"/>
<stop offset="1" stop-color="#6200EE"/>
</linearGradient>
<linearGradient id="paint25_linear_389_6382" x1="1117.94" y1="559.171" x2="720.128" y2="1278.95" gradientUnits="userSpaceOnUse">
<stop stop-color="#FF8159"/>
<stop offset="1" stop-color="#6200EE"/>
</linearGradient>
<linearGradient id="paint26_linear_389_6382" x1="1238.78" y1="661.661" x2="593.215" y2="1170.83" gradientUnits="userSpaceOnUse">
<stop stop-color="#FF8159"/>
<stop offset="1" stop-color="#6200EE"/>
</linearGradient>
<linearGradient id="paint27_linear_389_6382" x1="966.671" y1="511.444" x2="878.138" y2="1326.05" gradientUnits="userSpaceOnUse">
<stop stop-color="#FF8159"/>
<stop offset="1" stop-color="#6200EE"/>
</linearGradient>
<linearGradient id="paint28_linear_389_6382" x1="1102.24" y1="550.967" x2="736.711" y2="1287.44" gradientUnits="userSpaceOnUse">
<stop stop-color="#FF8159"/>
<stop offset="1" stop-color="#6200EE"/>
</linearGradient>
<linearGradient id="paint29_linear_389_6382" x1="1227.51" y1="648.011" x2="604.918" y2="1185.33" gradientUnits="userSpaceOnUse">
<stop stop-color="#FF8159"/>
<stop offset="1" stop-color="#6200EE"/>
</linearGradient>
<linearGradient id="paint30_linear_389_6382" x1="948.954" y1="509.931" x2="896.256" y2="1327.17" gradientUnits="userSpaceOnUse">
<stop stop-color="#FF8159"/>
<stop offset="1" stop-color="#6200EE"/>
</linearGradient>
<linearGradient id="paint31_linear_389_6382" x1="1086.2" y1="543.463" x2="753.641" y2="1295.15" gradientUnits="userSpaceOnUse">
<stop stop-color="#FF8159"/>
<stop offset="1" stop-color="#6200EE"/>
</linearGradient>
<linearGradient id="paint32_linear_389_6382" x1="1215.64" y1="634.876" x2="617.297" y2="1199.3" gradientUnits="userSpaceOnUse">
<stop stop-color="#FF8159"/>
<stop offset="1" stop-color="#6200EE"/>
</linearGradient>
<linearGradient id="paint33_linear_389_6382" x1="931.178" y1="509.196" x2="914.334" y2="1327.48" gradientUnits="userSpaceOnUse">
<stop stop-color="#FF8159"/>
<stop offset="1" stop-color="#6200EE"/>
</linearGradient>
<linearGradient id="paint34_linear_389_6382" x1="1069.83" y1="536.671" x2="770.871" y2="1302.05" gradientUnits="userSpaceOnUse">
<stop stop-color="#FF8159"/>
<stop offset="1" stop-color="#6200EE"/>
</linearGradient>
<linearGradient id="paint35_linear_389_6382" x1="1203.2" y1="622.28" x2="630.326" y2="1212.69" gradientUnits="userSpaceOnUse">
<stop stop-color="#FF8159"/>
<stop offset="1" stop-color="#6200EE"/>
</linearGradient>
<linearGradient id="paint36_linear_389_6382" x1="913.376" y1="509.239" x2="932.334" y2="1326.99" gradientUnits="userSpaceOnUse">
<stop stop-color="#FF8159"/>
<stop offset="1" stop-color="#6200EE"/>
</linearGradient>
<linearGradient id="paint37_linear_389_6382" x1="1053.17" y1="530.606" x2="788.362" y2="1308.13" gradientUnits="userSpaceOnUse">
<stop stop-color="#FF8159"/>
<stop offset="1" stop-color="#6200EE"/>
</linearGradient>
<linearGradient id="paint38_linear_389_6382" x1="1190.22" y1="610.247" x2="643.975" y2="1225.46" gradientUnits="userSpaceOnUse">
<stop stop-color="#FF8159"/>
<stop offset="1" stop-color="#6200EE"/>
</linearGradient>
<linearGradient id="paint39_linear_389_6382" x1="895.581" y1="510.061" x2="950.22" y2="1325.71" gradientUnits="userSpaceOnUse">
<stop stop-color="#FF8159"/>
<stop offset="1" stop-color="#6200EE"/>
</linearGradient>
<linearGradient id="paint40_linear_389_6382" x1="527.635" y1="804.025" x2="1305.71" y2="1039.65" gradientUnits="userSpaceOnUse">
<stop stop-color="#A246FF"/>
<stop offset="1" stop-color="#5E5BFF"/>
</linearGradient>
<linearGradient id="paint41_linear_389_6382" x1="1244.32" y1="1158.8" x2="592.964" y2="675.036" gradientUnits="userSpaceOnUse">
<stop stop-color="#A246FF"/>
<stop offset="1" stop-color="#5E5BFF"/>
</linearGradient>
<linearGradient id="paint42_linear_389_6382" x1="522.836" y1="821.279" x2="1310.72" y2="1023.16" gradientUnits="userSpaceOnUse">
<stop stop-color="#A246FF"/>
<stop offset="1" stop-color="#5E5BFF"/>
</linearGradient>
<linearGradient id="paint43_linear_389_6382" x1="1254.7" y1="1144.15" x2="583.078" y2="688.822" gradientUnits="userSpaceOnUse">
<stop stop-color="#A246FF"/>
<stop offset="1" stop-color="#5E5BFF"/>
</linearGradient>
<linearGradient id="paint44_linear_389_6382" x1="518.785" y1="838.719" x2="1315.04" y2="1006.42" gradientUnits="userSpaceOnUse">
<stop stop-color="#A246FF"/>
<stop offset="1" stop-color="#5E5BFF"/>
</linearGradient>
<linearGradient id="paint45_linear_389_6382" x1="1264.43" y1="1129.07" x2="573.752" y2="703.007" gradientUnits="userSpaceOnUse">
<stop stop-color="#A246FF"/>
<stop offset="1" stop-color="#5E5BFF"/>
</linearGradient>
<linearGradient id="paint46_linear_389_6382" x1="515.496" y1="856.308" x2="1318.68" y2="989.444" gradientUnits="userSpaceOnUse">
<stop stop-color="#A246FF"/>
<stop offset="1" stop-color="#5E5BFF"/>
</linearGradient>
<linearGradient id="paint47_linear_389_6382" x1="1273.51" y1="1113.59" x2="565.001" y2="717.578" gradientUnits="userSpaceOnUse">
<stop stop-color="#A246FF"/>
<stop offset="1" stop-color="#5E5BFF"/>
</linearGradient>
<linearGradient id="paint48_linear_389_6382" x1="512.972" y1="874.013" x2="1321.6" y2="972.27" gradientUnits="userSpaceOnUse">
<stop stop-color="#A246FF"/>
<stop offset="1" stop-color="#5E5BFF"/>
</linearGradient>
<linearGradient id="paint49_linear_389_6382" x1="1281.91" y1="1097.73" x2="556.84" y2="732.513" gradientUnits="userSpaceOnUse">
<stop stop-color="#A246FF"/>
<stop offset="1" stop-color="#5E5BFF"/>
</linearGradient>
<linearGradient id="paint50_linear_389_6382" x1="511.219" y1="891.801" x2="1323.8" y2="954.921" gradientUnits="userSpaceOnUse">
<stop stop-color="#A246FF"/>
<stop offset="1" stop-color="#5E5BFF"/>
</linearGradient>
<linearGradient id="paint51_linear_389_6382" x1="1289.61" y1="1081.53" x2="549.276" y2="747.799" gradientUnits="userSpaceOnUse">
<stop stop-color="#A246FF"/>
<stop offset="1" stop-color="#5E5BFF"/>
</linearGradient>
<linearGradient id="paint52_linear_389_6382" x1="510.244" y1="909.638" x2="1325.28" y2="937.421" gradientUnits="userSpaceOnUse">
<stop stop-color="#A246FF"/>
<stop offset="1" stop-color="#5E5BFF"/>
</linearGradient>
<linearGradient id="paint53_linear_389_6382" x1="1296.61" y1="1065.02" x2="542.333" y2="763.415" gradientUnits="userSpaceOnUse">
<stop stop-color="#A246FF"/>
<stop offset="1" stop-color="#5E5BFF"/>
</linearGradient>
<linearGradient id="paint54_linear_389_6382" x1="1302.89" y1="1048.23" x2="536.024" y2="779.344" gradientUnits="userSpaceOnUse">
<stop stop-color="#A246FF"/>
<stop offset="1" stop-color="#5E5BFF"/>
</linearGradient>
<linearGradient id="paint55_linear_389_6382" x1="584.03" y1="608.891" x2="1195.96" y2="925.713" gradientUnits="userSpaceOnUse">
<stop stop-color="#FF5959"/>
<stop offset="1" stop-color="#AF48FF"/>
</linearGradient>
<linearGradient id="paint56_linear_389_6382" x1="708.121" y1="488.606" x2="1041.43" y2="1097.03" gradientUnits="userSpaceOnUse">
<stop stop-color="#FF5959"/>
<stop offset="1" stop-color="#AF48FF"/>
</linearGradient>
<linearGradient id="paint57_linear_389_6382" x1="694.89" y1="496.255" x2="1054.01" y2="1089.48" gradientUnits="userSpaceOnUse">
<stop stop-color="#FF5959"/>
<stop offset="1" stop-color="#AF48FF"/>
</linearGradient>
<linearGradient id="paint58_linear_389_6382" x1="808.084" y1="451.937" x2="944.848" y2="1134.69" gradientUnits="userSpaceOnUse">
<stop stop-color="#FF5959"/>
<stop offset="1" stop-color="#AF48FF"/>
</linearGradient>
<linearGradient id="paint59_linear_389_6382" x1="681.996" y1="504.471" x2="1066.23" y2="1081.44" gradientUnits="userSpaceOnUse">
<stop stop-color="#FF5959"/>
<stop offset="1" stop-color="#AF48FF"/>
</linearGradient>
<linearGradient id="paint60_linear_389_6382" x1="793.22" y1="455.268" x2="959.445" y2="1131.03" gradientUnits="userSpaceOnUse">
<stop stop-color="#FF5959"/>
<stop offset="1" stop-color="#AF48FF"/>
</linearGradient>
<linearGradient id="paint61_linear_389_6382" x1="669.463" y1="513.238" x2="1078.08" y2="1072.93" gradientUnits="userSpaceOnUse">
<stop stop-color="#FF5959"/>
<stop offset="1" stop-color="#AF48FF"/>
</linearGradient>
<linearGradient id="paint62_linear_389_6382" x1="778.51" y1="459.246" x2="973.814" y2="1126.76" gradientUnits="userSpaceOnUse">
<stop stop-color="#FF5959"/>
<stop offset="1" stop-color="#AF48FF"/>
</linearGradient>
<linearGradient id="paint63_linear_389_6382" x1="657.316" y1="522.541" x2="1089.55" y2="1063.96" gradientUnits="userSpaceOnUse">
<stop stop-color="#FF5959"/>
<stop offset="1" stop-color="#AF48FF"/>
</linearGradient>
<linearGradient id="paint64_linear_389_6382" x1="763.975" y1="463.859" x2="987.929" y2="1121.9" gradientUnits="userSpaceOnUse">
<stop stop-color="#FF5959"/>
<stop offset="1" stop-color="#AF48FF"/>
</linearGradient>
<linearGradient id="paint65_linear_389_6382" x1="645.578" y1="532.36" x2="1100.62" y2="1054.54" gradientUnits="userSpaceOnUse">
<stop stop-color="#FF5959"/>
<stop offset="1" stop-color="#AF48FF"/>
</linearGradient>
<linearGradient id="paint66_linear_389_6382" x1="749.647" y1="469.104" x2="1001.77" y2="1116.48" gradientUnits="userSpaceOnUse">
<stop stop-color="#FF5959"/>
<stop offset="1" stop-color="#AF48FF"/>
</linearGradient>
<linearGradient id="paint67_linear_389_6382" x1="634.272" y1="542.677" x2="1111.28" y2="1044.7" gradientUnits="userSpaceOnUse">
<stop stop-color="#FF5959"/>
<stop offset="1" stop-color="#AF48FF"/>
</linearGradient>
<linearGradient id="paint68_linear_389_6382" x1="735.552" y1="474.967" x2="1015.32" y2="1110.49" gradientUnits="userSpaceOnUse">
<stop stop-color="#FF5959"/>
<stop offset="1" stop-color="#AF48FF"/>
</linearGradient>
<linearGradient id="paint69_linear_389_6382" x1="623.418" y1="553.474" x2="1121.52" y2="1034.44" gradientUnits="userSpaceOnUse">
<stop stop-color="#FF5959"/>
<stop offset="1" stop-color="#AF48FF"/>
</linearGradient>
<linearGradient id="paint70_linear_389_6382" x1="721.716" y1="481.436" x2="1028.56" y2="1103.97" gradientUnits="userSpaceOnUse">
<stop stop-color="#FF5959"/>
<stop offset="1" stop-color="#AF48FF"/>
</linearGradient>
<linearGradient id="paint71_linear_389_6382" x1="613.037" y1="564.727" x2="1131.33" y2="1023.79" gradientUnits="userSpaceOnUse">
<stop stop-color="#FF5959"/>
<stop offset="1" stop-color="#AF48FF"/>
</linearGradient>
</defs>
</svg>
